STARTFONT 2.2
FONT -Misc-XXX_HeiTi-Medium-R-Normal--8-70-75-75-C-80-ISO10646-1
SIZE 7 75 75
FONTBOUNDINGBOX 8 9 0 -2
METRICSSET 2
SWIDTH 15258 0
DWIDTH 8 0
SWIDTH1 15258 0
DWIDTH1 8 0
VVECTOR 4,6
COMMENT "Generated by fontforge, http://fontforge.sourceforge.net"
STARTPROPERTIES 19
FONTNAME_REGISTRY ""
FOUNDRY "Misc"
FAMILY_NAME "XXX_HeiTi"
WEIGHT_NAME "Medium"
SLANT "R"
SETWIDTH_NAME "Normal"
ADD_STYLE_NAME ""
PIXEL_SIZE 8
POINT_SIZE 70
RESOLUTION_X 75
RESOLUTION_Y 75
SPACING "C"
AVERAGE_WIDTH 80
CHARSET_REGISTRY "ISO10646"
CHARSET_ENCODING "1"
COPYRIGHT "NO"
DEFAULT_CHAR 8481
FONT_DESCENT 2
FONT_ASCENT 6
ENDPROPERTIES
CHARS 11595
STARTCHAR exclam
ENCODING 33
SWIDTH 500 0
DWIDTH 4 0
SWIDTH1 1000 0
DWIDTH1 0 0
BBX 1 6 1 0
BITMAP
80
80
80
80
00
80
ENDCHAR
STARTCHAR quotedbl
ENCODING 34
SWIDTH 500 0
DWIDTH 4 0
SWIDTH1 1000 0
DWIDTH1 0 0
BBX 3 2 0 4
BITMAP
A0
A0
ENDCHAR
STARTCHAR numbersign
ENCODING 35
SWIDTH 500 0
DWIDTH 4 0
SWIDTH1 1000 0
DWIDTH1 0 0
BBX 3 6 0 0
BITMAP
A0
E0
A0
A0
E0
A0
ENDCHAR
STARTCHAR dollar
ENCODING 36
SWIDTH 500 0
DWIDTH 4 0
SWIDTH1 1000 0
DWIDTH1 0 0
BBX 3 6 0 0
BITMAP
40
E0
C0
60
E0
40
ENDCHAR
STARTCHAR percent
ENCODING 37
SWIDTH 500 0
DWIDTH 4 0
SWIDTH1 1000 0
DWIDTH1 0 0
BBX 3 5 0 0
BITMAP
80
20
40
80
20
ENDCHAR
STARTCHAR ampersand
ENCODING 38
SWIDTH 500 0
DWIDTH 4 0
SWIDTH1 1000 0
DWIDTH1 0 0
BBX 4 6 0 0
BITMAP
40
A0
A0
50
A0
D0
ENDCHAR
STARTCHAR quotesingle
ENCODING 39
SWIDTH 500 0
DWIDTH 4 0
SWIDTH1 1000 0
DWIDTH1 0 0
BBX 2 2 0 4
BITMAP
40
80
ENDCHAR
STARTCHAR parenleft
ENCODING 40
SWIDTH 500 0
DWIDTH 4 0
SWIDTH1 1000 0
DWIDTH1 0 0
BBX 2 7 1 -1
BITMAP
40
80
80
80
80
80
40
ENDCHAR
STARTCHAR parenright
ENCODING 41
SWIDTH 500 0
DWIDTH 4 0
SWIDTH1 1000 0
DWIDTH1 0 0
BBX 2 7 0 -1
BITMAP
80
40
40
40
40
40
80
ENDCHAR
STARTCHAR asterisk
ENCODING 42
SWIDTH 500 0
DWIDTH 4 0
SWIDTH1 1000 0
DWIDTH1 0 0
BBX 3 4 0 2
BITMAP
40
E0
40
A0
ENDCHAR
STARTCHAR plus
ENCODING 43
SWIDTH 500 0
DWIDTH 4 0
SWIDTH1 1000 0
DWIDTH1 0 0
BBX 3 5 0 0
BITMAP
40
40
E0
40
40
ENDCHAR
STARTCHAR comma
ENCODING 44
SWIDTH 500 0
DWIDTH 4 0
SWIDTH1 1000 0
DWIDTH1 0 0
BBX 2 2 1 -1
BITMAP
40
80
ENDCHAR
STARTCHAR hyphen
ENCODING 45
SWIDTH 500 0
DWIDTH 4 0
SWIDTH1 1000 0
DWIDTH1 0 0
BBX 3 1 0 2
BITMAP
E0
ENDCHAR
STARTCHAR period
ENCODING 46
SWIDTH 500 0
DWIDTH 4 0
SWIDTH1 1000 0
DWIDTH1 0 0
BBX 1 1 1 0
BITMAP
80
ENDCHAR
STARTCHAR slash
ENCODING 47
SWIDTH 500 0
DWIDTH 4 0
SWIDTH1 1000 0
DWIDTH1 0 0
BBX 3 3 0 1
BITMAP
20
40
80
ENDCHAR
STARTCHAR zero
ENCODING 48
SWIDTH 500 0
DWIDTH 4 0
SWIDTH1 1000 0
DWIDTH1 0 0
BBX 3 5 0 0
BITMAP
40
A0
A0
A0
40
ENDCHAR
STARTCHAR one
ENCODING 49
SWIDTH 500 0
DWIDTH 4 0
SWIDTH1 1000 0
DWIDTH1 0 0
BBX 3 5 0 0
BITMAP
40
C0
40
40
E0
ENDCHAR
STARTCHAR two
ENCODING 50
SWIDTH 500 0
DWIDTH 4 0
SWIDTH1 1000 0
DWIDTH1 0 0
BBX 3 5 0 0
BITMAP
C0
20
40
80
E0
ENDCHAR
STARTCHAR three
ENCODING 51
SWIDTH 500 0
DWIDTH 4 0
SWIDTH1 1000 0
DWIDTH1 0 0
BBX 3 5 0 0
BITMAP
C0
20
40
20
C0
ENDCHAR
STARTCHAR four
ENCODING 52
SWIDTH 500 0
DWIDTH 4 0
SWIDTH1 1000 0
DWIDTH1 0 0
BBX 3 5 0 0
BITMAP
20
60
A0
E0
20
ENDCHAR
STARTCHAR five
ENCODING 53
SWIDTH 500 0
DWIDTH 4 0
SWIDTH1 1000 0
DWIDTH1 0 0
BBX 3 5 0 0
BITMAP
E0
80
C0
20
C0
ENDCHAR
STARTCHAR six
ENCODING 54
SWIDTH 500 0
DWIDTH 4 0
SWIDTH1 1000 0
DWIDTH1 0 0
BBX 3 5 0 0
BITMAP
E0
80
E0
A0
E0
ENDCHAR
STARTCHAR seven
ENCODING 55
SWIDTH 500 0
DWIDTH 4 0
SWIDTH1 1000 0
DWIDTH1 0 0
BBX 3 5 0 0
BITMAP
E0
20
40
40
40
ENDCHAR
STARTCHAR eight
ENCODING 56
SWIDTH 500 0
DWIDTH 4 0
SWIDTH1 1000 0
DWIDTH1 0 0
BBX 3 5 0 0
BITMAP
E0
A0
E0
A0
E0
ENDCHAR
STARTCHAR nine
ENCODING 57
SWIDTH 500 0
DWIDTH 4 0
SWIDTH1 1000 0
DWIDTH1 0 0
BBX 3 5 0 0
BITMAP
E0
A0
E0
20
E0
ENDCHAR
STARTCHAR colon
ENCODING 58
SWIDTH 500 0
DWIDTH 4 0
SWIDTH1 1000 0
DWIDTH1 0 0
BBX 1 3 1 1
BITMAP
80
00
80
ENDCHAR
STARTCHAR semicolon
ENCODING 59
SWIDTH 500 0
DWIDTH 4 0
SWIDTH1 1000 0
DWIDTH1 0 0
BBX 2 4 0 0
BITMAP
40
00
40
80
ENDCHAR
STARTCHAR less
ENCODING 60
SWIDTH 500 0
DWIDTH 4 0
SWIDTH1 1000 0
DWIDTH1 0 0
BBX 3 5 0 0
BITMAP
20
40
80
40
20
ENDCHAR
STARTCHAR equal
ENCODING 61
SWIDTH 500 0
DWIDTH 4 0
SWIDTH1 1000 0
DWIDTH1 0 0
BBX 3 3 0 1
BITMAP
E0
00
E0
ENDCHAR
STARTCHAR greater
ENCODING 62
SWIDTH 500 0
DWIDTH 4 0
SWIDTH1 1000 0
DWIDTH1 0 0
BBX 3 5 0 0
BITMAP
80
40
20
40
80
ENDCHAR
STARTCHAR question
ENCODING 63
SWIDTH 500 0
DWIDTH 4 0
SWIDTH1 1000 0
DWIDTH1 0 0
BBX 3 6 0 0
BITMAP
40
A0
20
40
00
40
ENDCHAR
STARTCHAR at
ENCODING 64
SWIDTH 500 0
DWIDTH 4 0
SWIDTH1 1000 0
DWIDTH1 0 0
BBX 3 6 0 0
BITMAP
40
A0
20
60
A0
40
ENDCHAR
STARTCHAR A
ENCODING 65
SWIDTH 500 0
DWIDTH 4 0
SWIDTH1 1000 0
DWIDTH1 0 0
BBX 3 6 0 0
BITMAP
40
A0
A0
E0
A0
A0
ENDCHAR
STARTCHAR B
ENCODING 66
SWIDTH 500 0
DWIDTH 4 0
SWIDTH1 1000 0
DWIDTH1 0 0
BBX 3 6 0 0
BITMAP
C0
A0
C0
A0
A0
C0
ENDCHAR
STARTCHAR C
ENCODING 67
SWIDTH 500 0
DWIDTH 4 0
SWIDTH1 1000 0
DWIDTH1 0 0
BBX 3 6 0 0
BITMAP
60
80
80
80
80
60
ENDCHAR
STARTCHAR D
ENCODING 68
SWIDTH 500 0
DWIDTH 4 0
SWIDTH1 1000 0
DWIDTH1 0 0
BBX 3 6 0 0
BITMAP
C0
A0
A0
A0
A0
C0
ENDCHAR
STARTCHAR E
ENCODING 69
SWIDTH 500 0
DWIDTH 4 0
SWIDTH1 1000 0
DWIDTH1 0 0
BBX 3 6 0 0
BITMAP
E0
80
C0
80
80
E0
ENDCHAR
STARTCHAR F
ENCODING 70
SWIDTH 500 0
DWIDTH 4 0
SWIDTH1 1000 0
DWIDTH1 0 0
BBX 3 6 0 0
BITMAP
E0
80
C0
80
80
80
ENDCHAR
STARTCHAR G
ENCODING 71
SWIDTH 500 0
DWIDTH 4 0
SWIDTH1 1000 0
DWIDTH1 0 0
BBX 3 6 0 0
BITMAP
60
80
80
A0
A0
60
ENDCHAR
STARTCHAR H
ENCODING 72
SWIDTH 500 0
DWIDTH 4 0
SWIDTH1 1000 0
DWIDTH1 0 0
BBX 3 6 0 0
BITMAP
A0
A0
A0
E0
A0
A0
ENDCHAR
STARTCHAR I
ENCODING 73
SWIDTH 500 0
DWIDTH 4 0
SWIDTH1 1000 0
DWIDTH1 0 0
BBX 3 6 0 0
BITMAP
E0
40
40
40
40
E0
ENDCHAR
STARTCHAR J
ENCODING 74
SWIDTH 500 0
DWIDTH 4 0
SWIDTH1 1000 0
DWIDTH1 0 0
BBX 3 6 0 0
BITMAP
20
20
20
20
A0
40
ENDCHAR
STARTCHAR K
ENCODING 75
SWIDTH 500 0
DWIDTH 4 0
SWIDTH1 1000 0
DWIDTH1 0 0
BBX 3 6 0 0
BITMAP
A0
A0
C0
A0
A0
A0
ENDCHAR
STARTCHAR L
ENCODING 76
SWIDTH 500 0
DWIDTH 4 0
SWIDTH1 1000 0
DWIDTH1 0 0
BBX 3 6 0 0
BITMAP
80
80
80
80
80
E0
ENDCHAR
STARTCHAR M
ENCODING 77
SWIDTH 500 0
DWIDTH 4 0
SWIDTH1 1000 0
DWIDTH1 0 0
BBX 3 6 0 0
BITMAP
A0
E0
E0
A0
A0
A0
ENDCHAR
STARTCHAR N
ENCODING 78
SWIDTH 500 0
DWIDTH 4 0
SWIDTH1 1000 0
DWIDTH1 0 0
BBX 3 6 0 0
BITMAP
C0
A0
A0
A0
A0
A0
ENDCHAR
STARTCHAR O
ENCODING 79
SWIDTH 500 0
DWIDTH 4 0
SWIDTH1 1000 0
DWIDTH1 0 0
BBX 3 6 0 0
BITMAP
40
A0
A0
A0
A0
40
ENDCHAR
STARTCHAR P
ENCODING 80
SWIDTH 500 0
DWIDTH 4 0
SWIDTH1 1000 0
DWIDTH1 0 0
BBX 3 6 0 0
BITMAP
C0
A0
A0
C0
80
80
ENDCHAR
STARTCHAR Q
ENCODING 81
SWIDTH 500 0
DWIDTH 4 0
SWIDTH1 1000 0
DWIDTH1 0 0
BBX 3 7 0 -1
BITMAP
40
A0
A0
A0
A0
40
20
ENDCHAR
STARTCHAR R
ENCODING 82
SWIDTH 500 0
DWIDTH 4 0
SWIDTH1 1000 0
DWIDTH1 0 0
BBX 3 6 0 0
BITMAP
C0
A0
A0
C0
A0
A0
ENDCHAR
STARTCHAR S
ENCODING 83
SWIDTH 500 0
DWIDTH 4 0
SWIDTH1 1000 0
DWIDTH1 0 0
BBX 3 6 0 0
BITMAP
60
80
40
20
20
C0
ENDCHAR
STARTCHAR T
ENCODING 84
SWIDTH 500 0
DWIDTH 4 0
SWIDTH1 1000 0
DWIDTH1 0 0
BBX 3 6 0 0
BITMAP
E0
40
40
40
40
40
ENDCHAR
STARTCHAR U
ENCODING 85
SWIDTH 500 0
DWIDTH 4 0
SWIDTH1 1000 0
DWIDTH1 0 0
BBX 3 6 0 0
BITMAP
A0
A0
A0
A0
A0
E0
ENDCHAR
STARTCHAR V
ENCODING 86
SWIDTH 500 0
DWIDTH 4 0
SWIDTH1 1000 0
DWIDTH1 0 0
BBX 3 6 0 0
BITMAP
A0
A0
A0
A0
C0
80
ENDCHAR
STARTCHAR W
ENCODING 87
SWIDTH 500 0
DWIDTH 4 0
SWIDTH1 1000 0
DWIDTH1 0 0
BBX 3 6 0 0
BITMAP
A0
A0
A0
E0
E0
A0
ENDCHAR
STARTCHAR X
ENCODING 88
SWIDTH 500 0
DWIDTH 4 0
SWIDTH1 1000 0
DWIDTH1 0 0
BBX 3 6 0 0
BITMAP
A0
A0
40
40
A0
A0
ENDCHAR
STARTCHAR Y
ENCODING 89
SWIDTH 500 0
DWIDTH 4 0
SWIDTH1 1000 0
DWIDTH1 0 0
BBX 3 6 0 0
BITMAP
A0
A0
40
40
40
40
ENDCHAR
STARTCHAR Z
ENCODING 90
SWIDTH 500 0
DWIDTH 4 0
SWIDTH1 1000 0
DWIDTH1 0 0
BBX 3 6 0 0
BITMAP
E0
20
40
40
80
E0
ENDCHAR
STARTCHAR bracketleft
ENCODING 91
SWIDTH 500 0
DWIDTH 4 0
SWIDTH1 1000 0
DWIDTH1 0 0
BBX 2 7 1 -1
BITMAP
C0
80
80
80
80
80
C0
ENDCHAR
STARTCHAR backslash
ENCODING 92
SWIDTH 500 0
DWIDTH 4 0
SWIDTH1 1000 0
DWIDTH1 0 0
BBX 3 3 0 1
BITMAP
80
40
20
ENDCHAR
STARTCHAR bracketright
ENCODING 93
SWIDTH 500 0
DWIDTH 4 0
SWIDTH1 1000 0
DWIDTH1 0 0
BBX 2 7 0 -1
BITMAP
C0
40
40
40
40
40
C0
ENDCHAR
STARTCHAR asciicircum
ENCODING 94
SWIDTH 500 0
DWIDTH 4 0
SWIDTH1 1000 0
DWIDTH1 0 0
BBX 3 2 0 4
BITMAP
40
A0
ENDCHAR
STARTCHAR underscore
ENCODING 95
SWIDTH 500 0
DWIDTH 4 0
SWIDTH1 1000 0
DWIDTH1 0 0
BBX 3 1 0 -1
BITMAP
E0
ENDCHAR
STARTCHAR grave
ENCODING 96
SWIDTH 500 0
DWIDTH 4 0
SWIDTH1 1000 0
DWIDTH1 0 0
BBX 2 2 1 4
BITMAP
80
40
ENDCHAR
STARTCHAR a
ENCODING 97
SWIDTH 500 0
DWIDTH 4 0
SWIDTH1 1000 0
DWIDTH1 0 0
BBX 3 4 0 0
BITMAP
60
A0
A0
60
ENDCHAR
STARTCHAR b
ENCODING 98
SWIDTH 500 0
DWIDTH 4 0
SWIDTH1 1000 0
DWIDTH1 0 0
BBX 3 6 0 0
BITMAP
80
80
C0
A0
A0
C0
ENDCHAR
STARTCHAR c
ENCODING 99
SWIDTH 500 0
DWIDTH 4 0
SWIDTH1 1000 0
DWIDTH1 0 0
BBX 3 4 0 0
BITMAP
60
80
80
60
ENDCHAR
STARTCHAR d
ENCODING 100
SWIDTH 500 0
DWIDTH 4 0
SWIDTH1 1000 0
DWIDTH1 0 0
BBX 3 6 0 0
BITMAP
20
20
60
A0
A0
60
ENDCHAR
STARTCHAR e
ENCODING 101
SWIDTH 500 0
DWIDTH 4 0
SWIDTH1 1000 0
DWIDTH1 0 0
BBX 3 4 0 0
BITMAP
40
A0
C0
60
ENDCHAR
STARTCHAR f
ENCODING 102
SWIDTH 500 0
DWIDTH 4 0
SWIDTH1 1000 0
DWIDTH1 0 0
BBX 3 6 0 0
BITMAP
60
40
E0
40
40
40
ENDCHAR
STARTCHAR g
ENCODING 103
SWIDTH 500 0
DWIDTH 4 0
SWIDTH1 1000 0
DWIDTH1 0 0
BBX 3 5 0 -1
BITMAP
E0
A0
E0
20
E0
ENDCHAR
STARTCHAR h
ENCODING 104
SWIDTH 500 0
DWIDTH 4 0
SWIDTH1 1000 0
DWIDTH1 0 0
BBX 3 6 0 0
BITMAP
80
80
C0
A0
A0
A0
ENDCHAR
STARTCHAR i
ENCODING 105
SWIDTH 500 0
DWIDTH 4 0
SWIDTH1 1000 0
DWIDTH1 0 0
BBX 3 6 0 0
BITMAP
40
00
C0
40
40
E0
ENDCHAR
STARTCHAR j
ENCODING 106
SWIDTH 500 0
DWIDTH 4 0
SWIDTH1 1000 0
DWIDTH1 0 0
BBX 2 7 0 -1
BITMAP
40
00
40
40
40
40
80
ENDCHAR
STARTCHAR k
ENCODING 107
SWIDTH 500 0
DWIDTH 4 0
SWIDTH1 1000 0
DWIDTH1 0 0
BBX 3 6 0 0
BITMAP
80
80
A0
C0
A0
A0
ENDCHAR
STARTCHAR l
ENCODING 108
SWIDTH 500 0
DWIDTH 4 0
SWIDTH1 1000 0
DWIDTH1 0 0
BBX 3 6 0 0
BITMAP
C0
40
40
40
40
E0
ENDCHAR
STARTCHAR m
ENCODING 109
SWIDTH 500 0
DWIDTH 4 0
SWIDTH1 1000 0
DWIDTH1 0 0
BBX 3 4 0 0
BITMAP
A0
E0
A0
A0
ENDCHAR
STARTCHAR n
ENCODING 110
SWIDTH 500 0
DWIDTH 4 0
SWIDTH1 1000 0
DWIDTH1 0 0
BBX 3 4 0 0
BITMAP
C0
A0
A0
A0
ENDCHAR
STARTCHAR o
ENCODING 111
SWIDTH 500 0
DWIDTH 4 0
SWIDTH1 1000 0
DWIDTH1 0 0
BBX 3 4 0 0
BITMAP
40
A0
A0
40
ENDCHAR
STARTCHAR p
ENCODING 112
SWIDTH 500 0
DWIDTH 4 0
SWIDTH1 1000 0
DWIDTH1 0 0
BBX 3 5 0 -1
BITMAP
C0
A0
A0
C0
80
ENDCHAR
STARTCHAR q
ENCODING 113
SWIDTH 500 0
DWIDTH 4 0
SWIDTH1 1000 0
DWIDTH1 0 0
BBX 3 5 0 -1
BITMAP
60
A0
A0
60
20
ENDCHAR
STARTCHAR r
ENCODING 114
SWIDTH 500 0
DWIDTH 4 0
SWIDTH1 1000 0
DWIDTH1 0 0
BBX 3 4 0 0
BITMAP
A0
C0
80
80
ENDCHAR
STARTCHAR s
ENCODING 115
SWIDTH 500 0
DWIDTH 4 0
SWIDTH1 1000 0
DWIDTH1 0 0
BBX 3 4 0 0
BITMAP
60
C0
60
C0
ENDCHAR
STARTCHAR t
ENCODING 116
SWIDTH 500 0
DWIDTH 4 0
SWIDTH1 1000 0
DWIDTH1 0 0
BBX 3 5 0 0
BITMAP
40
E0
40
40
60
ENDCHAR
STARTCHAR u
ENCODING 117
SWIDTH 500 0
DWIDTH 4 0
SWIDTH1 1000 0
DWIDTH1 0 0
BBX 3 4 0 0
BITMAP
A0
A0
A0
60
ENDCHAR
STARTCHAR v
ENCODING 118
SWIDTH 500 0
DWIDTH 4 0
SWIDTH1 1000 0
DWIDTH1 0 0
BBX 3 4 0 0
BITMAP
A0
A0
40
40
ENDCHAR
STARTCHAR w
ENCODING 119
SWIDTH 500 0
DWIDTH 4 0
SWIDTH1 1000 0
DWIDTH1 0 0
BBX 3 4 0 0
BITMAP
A0
A0
E0
A0
ENDCHAR
STARTCHAR x
ENCODING 120
SWIDTH 500 0
DWIDTH 4 0
SWIDTH1 1000 0
DWIDTH1 0 0
BBX 3 4 0 0
BITMAP
A0
40
40
A0
ENDCHAR
STARTCHAR y
ENCODING 121
SWIDTH 500 0
DWIDTH 4 0
SWIDTH1 1000 0
DWIDTH1 0 0
BBX 3 5 0 -1
BITMAP
A0
A0
60
20
C0
ENDCHAR
STARTCHAR z
ENCODING 122
SWIDTH 500 0
DWIDTH 4 0
SWIDTH1 1000 0
DWIDTH1 0 0
BBX 3 4 0 0
BITMAP
E0
20
40
E0
ENDCHAR
STARTCHAR braceleft
ENCODING 123
SWIDTH 500 0
DWIDTH 4 0
SWIDTH1 1000 0
DWIDTH1 0 0
BBX 3 7 0 -1
BITMAP
20
40
40
80
40
40
20
ENDCHAR
STARTCHAR bar
ENCODING 124
SWIDTH 500 0
DWIDTH 4 0
SWIDTH1 1000 0
DWIDTH1 0 0
BBX 1 7 1 -1
BITMAP
80
80
80
80
80
80
80
ENDCHAR
STARTCHAR braceright
ENCODING 125
SWIDTH 500 0
DWIDTH 4 0
SWIDTH1 1000 0
DWIDTH1 0 0
BBX 3 7 0 -1
BITMAP
80
40
40
20
40
40
80
ENDCHAR
STARTCHAR asciitilde
ENCODING 126
SWIDTH 500 0
DWIDTH 4 0
SWIDTH1 1000 0
DWIDTH1 0 0
BBX 3 2 0 4
BITMAP
C0
60
ENDCHAR
STARTCHAR exclamdown
ENCODING 161
SWIDTH 500 0
DWIDTH 4 0
SWIDTH1 1000 0
DWIDTH1 0 0
BBX 1 6 1 -1
BITMAP
80
00
80
80
80
80
ENDCHAR
STARTCHAR cent
ENCODING 162
SWIDTH 500 0
DWIDTH 4 0
SWIDTH1 1000 0
BBX 3 5 0 0
BITMAP
40
E0
C0
E0
40
ENDCHAR
STARTCHAR sterling
ENCODING 163
SWIDTH 500 0
DWIDTH 4 0
SWIDTH1 1000 0
BBX 3 6 0 0
BITMAP
60
40
E0
40
C0
E0
ENDCHAR
STARTCHAR currency
ENCODING 164
SWIDTH 1000 0
SWIDTH1 1000 0
DWIDTH1 0 0
BBX 3 6 0 0
BITMAP
A0
40
A0
A0
40
A0
ENDCHAR
STARTCHAR yen
ENCODING 165
SWIDTH 500 0
DWIDTH 4 0
SWIDTH1 1000 0
DWIDTH1 0 0
BBX 3 6 0 0
BITMAP
A0
40
E0
40
E0
40
ENDCHAR
STARTCHAR brokenbar
ENCODING 166
SWIDTH 500 0
DWIDTH 4 0
SWIDTH1 1000 0
DWIDTH1 0 0
BBX 1 7 1 -1
BITMAP
80
80
80
00
80
80
80
ENDCHAR
STARTCHAR section
ENCODING 167
SWIDTH 1000 0
SWIDTH1 1000 0
BBX 3 7 0 -1
BITMAP
60
80
40
A0
40
20
C0
ENDCHAR
STARTCHAR dieresis
ENCODING 168
SWIDTH 1000 0
SWIDTH1 1000 0
BBX 3 1 0 5
BITMAP
A0
ENDCHAR
STARTCHAR copyright
ENCODING 169
SWIDTH 500 0
DWIDTH 4 0
SWIDTH1 1000 0
DWIDTH1 0 0
BBX 3 4 0 1
BITMAP
60
80
80
60
ENDCHAR
STARTCHAR ordfeminine
ENCODING 170
SWIDTH 500 0
DWIDTH 4 0
SWIDTH1 1000 0
DWIDTH1 0 0
BBX 3 5 0 1
BITMAP
60
A0
60
00
E0
ENDCHAR
STARTCHAR guillemotleft
ENCODING 171
SWIDTH 500 0
DWIDTH 4 0
SWIDTH1 1000 0
DWIDTH1 0 0
BBX 3 5 0 0
BITMAP
20
60
C0
60
20
ENDCHAR
STARTCHAR logicalnot
ENCODING 172
SWIDTH 500 0
DWIDTH 4 0
SWIDTH1 1000 0
BBX 3 2 0 1
BITMAP
E0
20
ENDCHAR
STARTCHAR uni00AD
ENCODING 173
SWIDTH 500 0
DWIDTH 4 0
SWIDTH1 1000 0
DWIDTH1 0 0
BBX 3 1 0 2
BITMAP
E0
ENDCHAR
STARTCHAR registered
ENCODING 174
SWIDTH 500 0
DWIDTH 4 0
SWIDTH1 1000 0
DWIDTH1 0 0
BBX 3 4 0 1
BITMAP
C0
A0
C0
A0
ENDCHAR
STARTCHAR macron
ENCODING 175
SWIDTH 500 0
DWIDTH 4 0
SWIDTH1 1000 0
DWIDTH1 0 0
BBX 3 1 0 5
BITMAP
E0
ENDCHAR
STARTCHAR degree
ENCODING 176
SWIDTH 1000 0
SWIDTH1 1000 0
BBX 3 3 0 3
BITMAP
40
A0
40
ENDCHAR
STARTCHAR plusminus
ENCODING 177
SWIDTH 1000 0
SWIDTH1 1000 0
BBX 3 5 0 0
BITMAP
40
E0
40
00
E0
ENDCHAR
STARTCHAR uni00B2
ENCODING 178
SWIDTH 500 0
DWIDTH 4 0
SWIDTH1 1000 0
DWIDTH1 0 0
BBX 3 4 0 2
BITMAP
C0
20
40
E0
ENDCHAR
STARTCHAR uni00B3
ENCODING 179
SWIDTH 500 0
DWIDTH 4 0
SWIDTH1 1000 0
DWIDTH1 0 0
BBX 3 4 0 2
BITMAP
C0
60
20
C0
ENDCHAR
STARTCHAR acute
ENCODING 180
SWIDTH 500 0
DWIDTH 4 0
SWIDTH1 1000 0
BBX 2 2 1 4
BITMAP
40
80
ENDCHAR
STARTCHAR mu
ENCODING 181
SWIDTH 500 0
DWIDTH 4 0
SWIDTH1 1000 0
DWIDTH1 0 0
BBX 3 5 0 -1
BITMAP
A0
A0
A0
E0
80
ENDCHAR
STARTCHAR paragraph
ENCODING 182
SWIDTH 500 0
DWIDTH 4 0
SWIDTH1 1000 0
BBX 3 6 0 0
BITMAP
60
A0
A0
60
60
60
ENDCHAR
STARTCHAR periodcentered
ENCODING 183
SWIDTH 1000 0
SWIDTH1 1000 0
DWIDTH1 0 0
BBX 1 1 1 2
BITMAP
80
ENDCHAR
STARTCHAR cedilla
ENCODING 184
SWIDTH 500 0
DWIDTH 4 0
SWIDTH1 1000 0
DWIDTH1 0 0
BBX 2 2 0 -1
BITMAP
40
C0
ENDCHAR
STARTCHAR uni00B9
ENCODING 185
SWIDTH 500 0
DWIDTH 4 0
SWIDTH1 1000 0
DWIDTH1 0 0
BBX 3 4 0 2
BITMAP
40
C0
40
E0
ENDCHAR
STARTCHAR ordmasculine
ENCODING 186
SWIDTH 500 0
DWIDTH 4 0
SWIDTH1 1000 0
DWIDTH1 0 0
BBX 3 5 0 1
BITMAP
40
A0
40
00
E0
ENDCHAR
STARTCHAR guillemotright
ENCODING 187
SWIDTH 500 0
DWIDTH 4 0
SWIDTH1 1000 0
DWIDTH1 0 0
BBX 3 5 0 0
BITMAP
80
C0
60
C0
80
ENDCHAR
STARTCHAR onequarter
ENCODING 188
SWIDTH 500 0
DWIDTH 4 0
SWIDTH1 1000 0
DWIDTH1 0 0
BBX 3 7 0 -1
BITMAP
80
80
80
20
60
E0
20
ENDCHAR
STARTCHAR onehalf
ENCODING 189
SWIDTH 500 0
DWIDTH 4 0
SWIDTH1 1000 0
DWIDTH1 0 0
BBX 3 7 0 -1
BITMAP
80
80
00
60
20
40
60
ENDCHAR
STARTCHAR threequarters
ENCODING 190
SWIDTH 500 0
DWIDTH 4 0
SWIDTH1 1000 0
DWIDTH1 0 0
BBX 3 7 0 -1
BITMAP
C0
40
C0
20
60
E0
20
ENDCHAR
STARTCHAR questiondown
ENCODING 191
SWIDTH 500 0
DWIDTH 4 0
SWIDTH1 1000 0
DWIDTH1 0 0
BBX 3 6 0 -1
BITMAP
40
00
40
80
A0
40
ENDCHAR
STARTCHAR Agrave
ENCODING 192
SWIDTH 500 0
DWIDTH 4 0
SWIDTH1 1000 0
DWIDTH1 0 0
BBX 3 7 0 -1
BITMAP
80
40
00
40
A0
E0
A0
ENDCHAR
STARTCHAR Aacute
ENCODING 193
SWIDTH 500 0
DWIDTH 4 0
SWIDTH1 1000 0
DWIDTH1 0 0
BBX 3 7 0 -1
BITMAP
20
40
00
40
A0
E0
A0
ENDCHAR
STARTCHAR Acircumflex
ENCODING 194
SWIDTH 500 0
DWIDTH 4 0
SWIDTH1 1000 0
DWIDTH1 0 0
BBX 3 7 0 -1
BITMAP
40
A0
00
40
A0
E0
A0
ENDCHAR
STARTCHAR Atilde
ENCODING 195
SWIDTH 500 0
DWIDTH 4 0
SWIDTH1 1000 0
DWIDTH1 0 0
BBX 3 7 0 -1
BITMAP
C0
60
00
40
A0
E0
A0
ENDCHAR
STARTCHAR Adieresis
ENCODING 196
SWIDTH 500 0
DWIDTH 4 0
SWIDTH1 1000 0
DWIDTH1 0 0
BBX 3 6 0 -1
BITMAP
A0
00
40
A0
E0
A0
ENDCHAR
STARTCHAR Aring
ENCODING 197
SWIDTH 500 0
DWIDTH 4 0
SWIDTH1 1000 0
DWIDTH1 0 0
BBX 3 7 0 -1
BITMAP
40
A0
40
40
A0
E0
A0
ENDCHAR
STARTCHAR AE
ENCODING 198
SWIDTH 500 0
DWIDTH 4 0
SWIDTH1 1000 0
DWIDTH1 0 0
BBX 3 6 0 0
BITMAP
60
40
E0
C0
C0
E0
ENDCHAR
STARTCHAR Ccedilla
ENCODING 199
SWIDTH 500 0
DWIDTH 4 0
SWIDTH1 1000 0
DWIDTH1 0 0
BBX 3 7 0 -1
BITMAP
60
80
80
80
80
60
C0
ENDCHAR
STARTCHAR Egrave
ENCODING 200
SWIDTH 500 0
DWIDTH 4 0
SWIDTH1 1000 0
DWIDTH1 0 0
BBX 3 7 0 -1
BITMAP
80
40
00
E0
C0
80
E0
ENDCHAR
STARTCHAR Eacute
ENCODING 201
SWIDTH 500 0
DWIDTH 4 0
SWIDTH1 1000 0
DWIDTH1 0 0
BBX 3 7 0 -1
BITMAP
20
40
00
E0
C0
80
E0
ENDCHAR
STARTCHAR Ecircumflex
ENCODING 202
SWIDTH 500 0
DWIDTH 4 0
SWIDTH1 1000 0
DWIDTH1 0 0
BBX 3 7 0 -1
BITMAP
40
A0
00
E0
C0
80
E0
ENDCHAR
STARTCHAR Edieresis
ENCODING 203
SWIDTH 500 0
DWIDTH 4 0
SWIDTH1 1000 0
DWIDTH1 0 0
BBX 3 6 0 -1
BITMAP
A0
00
E0
C0
80
E0
ENDCHAR
STARTCHAR Igrave
ENCODING 204
SWIDTH 500 0
DWIDTH 4 0
SWIDTH1 1000 0
DWIDTH1 0 0
BBX 3 7 0 -1
BITMAP
80
40
00
E0
40
40
E0
ENDCHAR
STARTCHAR Iacute
ENCODING 205
SWIDTH 500 0
DWIDTH 4 0
SWIDTH1 1000 0
DWIDTH1 0 0
BBX 3 7 0 -1
BITMAP
20
40
00
E0
40
40
E0
ENDCHAR
STARTCHAR Icircumflex
ENCODING 206
SWIDTH 500 0
DWIDTH 4 0
SWIDTH1 1000 0
DWIDTH1 0 0
BBX 3 7 0 -1
BITMAP
40
A0
00
E0
40
40
E0
ENDCHAR
STARTCHAR Idieresis
ENCODING 207
SWIDTH 500 0
DWIDTH 4 0
SWIDTH1 1000 0
DWIDTH1 0 0
BBX 3 6 0 -1
BITMAP
A0
00
E0
40
40
E0
ENDCHAR
STARTCHAR Eth
ENCODING 208
SWIDTH 500 0
DWIDTH 4 0
SWIDTH1 1000 0
DWIDTH1 0 0
BBX 3 6 0 0
BITMAP
C0
A0
A0
E0
A0
C0
ENDCHAR
STARTCHAR Ntilde
ENCODING 209
SWIDTH 500 0
DWIDTH 4 0
SWIDTH1 1000 0
DWIDTH1 0 0
BBX 3 7 0 -1
BITMAP
C0
60
00
C0
A0
A0
A0
ENDCHAR
STARTCHAR Ograve
ENCODING 210
SWIDTH 500 0
DWIDTH 4 0
SWIDTH1 1000 0
DWIDTH1 0 0
BBX 3 7 0 -1
BITMAP
80
40
00
40
A0
A0
40
ENDCHAR
STARTCHAR Oacute
ENCODING 211
SWIDTH 500 0
DWIDTH 4 0
SWIDTH1 1000 0
DWIDTH1 0 0
BBX 3 7 0 -1
BITMAP
20
40
00
40
A0
A0
40
ENDCHAR
STARTCHAR Ocircumflex
ENCODING 212
SWIDTH 500 0
DWIDTH 4 0
SWIDTH1 1000 0
DWIDTH1 0 0
BBX 3 7 0 -1
BITMAP
40
A0
00
40
A0
A0
40
ENDCHAR
STARTCHAR Otilde
ENCODING 213
SWIDTH 500 0
DWIDTH 4 0
SWIDTH1 1000 0
DWIDTH1 0 0
BBX 3 7 0 -1
BITMAP
C0
60
00
40
A0
A0
40
ENDCHAR
STARTCHAR Odieresis
ENCODING 214
SWIDTH 500 0
DWIDTH 4 0
SWIDTH1 1000 0
DWIDTH1 0 0
BBX 3 6 0 -1
BITMAP
A0
00
40
A0
A0
40
ENDCHAR
STARTCHAR multiply
ENCODING 215
SWIDTH 1000 0
SWIDTH1 1000 0
BBX 5 5 1 0
BITMAP
88
50
20
50
88
ENDCHAR
STARTCHAR Oslash
ENCODING 216
SWIDTH 500 0
DWIDTH 4 0
SWIDTH1 1000 0
DWIDTH1 0 0
BBX 3 6 0 0
BITMAP
20
C0
A0
A0
60
80
ENDCHAR
STARTCHAR Ugrave
ENCODING 217
SWIDTH 500 0
DWIDTH 4 0
SWIDTH1 1000 0
DWIDTH1 0 0
BBX 3 7 0 -1
BITMAP
80
40
00
A0
A0
A0
E0
ENDCHAR
STARTCHAR Uacute
ENCODING 218
SWIDTH 500 0
DWIDTH 4 0
SWIDTH1 1000 0
DWIDTH1 0 0
BBX 3 7 0 -1
BITMAP
20
40
00
A0
A0
A0
E0
ENDCHAR
STARTCHAR Ucircumflex
ENCODING 219
SWIDTH 500 0
DWIDTH 4 0
SWIDTH1 1000 0
DWIDTH1 0 0
BBX 3 7 0 -1
BITMAP
40
A0
00
A0
A0
A0
E0
ENDCHAR
STARTCHAR Udieresis
ENCODING 220
SWIDTH 500 0
DWIDTH 4 0
SWIDTH1 1000 0
DWIDTH1 0 0
BBX 3 6 0 -1
BITMAP
A0
00
A0
A0
A0
E0
ENDCHAR
STARTCHAR Yacute
ENCODING 221
SWIDTH 500 0
DWIDTH 4 0
SWIDTH1 1000 0
DWIDTH1 0 0
BBX 3 7 0 -1
BITMAP
20
40
00
A0
A0
40
40
ENDCHAR
STARTCHAR Thorn
ENCODING 222
SWIDTH 500 0
DWIDTH 4 0
SWIDTH1 1000 0
DWIDTH1 0 0
BBX 3 5 0 0
BITMAP
80
C0
A0
C0
80
ENDCHAR
STARTCHAR germandbls
ENCODING 223
SWIDTH 500 0
DWIDTH 4 0
SWIDTH1 1000 0
DWIDTH1 0 0
BBX 3 6 0 0
BITMAP
40
A0
C0
A0
A0
C0
ENDCHAR
STARTCHAR agrave
ENCODING 224
SWIDTH 500 0
DWIDTH 4 0
SWIDTH1 1000 0
DWIDTH1 0 0
BBX 3 6 0 0
BITMAP
80
40
00
60
A0
60
ENDCHAR
STARTCHAR aacute
ENCODING 225
SWIDTH 500 0
DWIDTH 4 0
SWIDTH1 1000 0
DWIDTH1 0 0
BBX 3 6 0 0
BITMAP
20
40
00
60
A0
60
ENDCHAR
STARTCHAR acircumflex
ENCODING 226
SWIDTH 500 0
DWIDTH 4 0
SWIDTH1 1000 0
DWIDTH1 0 0
BBX 3 6 0 0
BITMAP
40
A0
00
60
A0
60
ENDCHAR
STARTCHAR atilde
ENCODING 227
SWIDTH 500 0
DWIDTH 4 0
SWIDTH1 1000 0
DWIDTH1 0 0
BBX 3 6 0 0
BITMAP
C0
60
00
60
A0
60
ENDCHAR
STARTCHAR adieresis
ENCODING 228
SWIDTH 500 0
DWIDTH 4 0
SWIDTH1 1000 0
DWIDTH1 0 0
BBX 3 5 0 0
BITMAP
A0
00
60
A0
60
ENDCHAR
STARTCHAR aring
ENCODING 229
SWIDTH 500 0
DWIDTH 4 0
SWIDTH1 1000 0
DWIDTH1 0 0
BBX 3 6 0 0
BITMAP
40
A0
40
60
A0
60
ENDCHAR
STARTCHAR ae
ENCODING 230
SWIDTH 500 0
DWIDTH 4 0
SWIDTH1 1000 0
DWIDTH1 0 0
BBX 3 4 0 0
BITMAP
60
E0
C0
E0
ENDCHAR
STARTCHAR ccedilla
ENCODING 231
SWIDTH 500 0
DWIDTH 4 0
SWIDTH1 1000 0
DWIDTH1 0 0
BBX 3 5 0 -1
BITMAP
60
80
80
60
C0
ENDCHAR
STARTCHAR egrave
ENCODING 232
SWIDTH 500 0
DWIDTH 4 0
SWIDTH1 1000 0
DWIDTH1 0 0
BBX 3 6 0 0
BITMAP
80
40
00
60
C0
60
ENDCHAR
STARTCHAR eacute
ENCODING 233
SWIDTH 500 0
DWIDTH 4 0
SWIDTH1 1000 0
DWIDTH1 0 0
BBX 3 6 0 0
BITMAP
20
40
00
60
C0
60
ENDCHAR
STARTCHAR ecircumflex
ENCODING 234
SWIDTH 500 0
DWIDTH 4 0
SWIDTH1 1000 0
DWIDTH1 0 0
BBX 3 6 0 0
BITMAP
40
A0
00
60
C0
60
ENDCHAR
STARTCHAR edieresis
ENCODING 235
SWIDTH 500 0
DWIDTH 4 0
SWIDTH1 1000 0
DWIDTH1 0 0
BBX 3 5 0 0
BITMAP
A0
00
60
C0
60
ENDCHAR
STARTCHAR igrave
ENCODING 236
SWIDTH 500 0
DWIDTH 4 0
SWIDTH1 1000 0
DWIDTH1 0 0
BBX 2 6 0 0
BITMAP
80
40
00
40
40
40
ENDCHAR
STARTCHAR iacute
ENCODING 237
SWIDTH 500 0
DWIDTH 4 0
SWIDTH1 1000 0
DWIDTH1 0 0
BBX 2 6 1 0
BITMAP
40
80
00
80
80
80
ENDCHAR
STARTCHAR icircumflex
ENCODING 238
SWIDTH 500 0
DWIDTH 4 0
SWIDTH1 1000 0
DWIDTH1 0 0
BBX 3 6 0 0
BITMAP
40
A0
00
40
40
40
ENDCHAR
STARTCHAR idieresis
ENCODING 239
SWIDTH 500 0
DWIDTH 4 0
SWIDTH1 1000 0
DWIDTH1 0 0
BBX 3 5 0 0
BITMAP
A0
00
40
40
40
ENDCHAR
STARTCHAR eth
ENCODING 240
SWIDTH 500 0
DWIDTH 4 0
SWIDTH1 1000 0
DWIDTH1 0 0
BBX 3 6 0 0
BITMAP
A0
40
A0
60
A0
C0
ENDCHAR
STARTCHAR ntilde
ENCODING 241
SWIDTH 500 0
DWIDTH 4 0
SWIDTH1 1000 0
DWIDTH1 0 0
BBX 3 6 0 0
BITMAP
C0
60
00
C0
A0
A0
ENDCHAR
STARTCHAR ograve
ENCODING 242
SWIDTH 500 0
DWIDTH 4 0
SWIDTH1 1000 0
DWIDTH1 0 0
BBX 3 6 0 0
BITMAP
80
40
00
40
A0
40
ENDCHAR
STARTCHAR oacute
ENCODING 243
SWIDTH 500 0
DWIDTH 4 0
SWIDTH1 1000 0
DWIDTH1 0 0
BBX 3 6 0 0
BITMAP
20
40
00
40
A0
40
ENDCHAR
STARTCHAR ocircumflex
ENCODING 244
SWIDTH 500 0
DWIDTH 4 0
SWIDTH1 1000 0
DWIDTH1 0 0
BBX 3 6 0 0
BITMAP
40
A0
00
40
A0
40
ENDCHAR
STARTCHAR otilde
ENCODING 245
SWIDTH 500 0
DWIDTH 4 0
SWIDTH1 1000 0
DWIDTH1 0 0
BBX 3 6 0 0
BITMAP
C0
60
00
40
A0
40
ENDCHAR
STARTCHAR odieresis
ENCODING 246
SWIDTH 500 0
DWIDTH 4 0
SWIDTH1 1000 0
DWIDTH1 0 0
BBX 3 5 0 0
BITMAP
A0
00
40
A0
40
ENDCHAR
STARTCHAR divide
ENCODING 247
SWIDTH 1000 0
SWIDTH1 1000 0
BBX 3 5 0 0
BITMAP
40
00
E0
00
40
ENDCHAR
STARTCHAR oslash
ENCODING 248
SWIDTH 500 0
DWIDTH 4 0
SWIDTH1 1000 0
DWIDTH1 0 0
BBX 3 5 0 0
BITMAP
20
C0
A0
60
80
ENDCHAR
STARTCHAR ugrave
ENCODING 249
SWIDTH 500 0
DWIDTH 4 0
SWIDTH1 1000 0
DWIDTH1 0 0
BBX 3 6 0 0
BITMAP
80
40
00
A0
A0
E0
ENDCHAR
STARTCHAR uacute
ENCODING 250
SWIDTH 500 0
DWIDTH 4 0
SWIDTH1 1000 0
DWIDTH1 0 0
BBX 3 6 0 0
BITMAP
20
40
00
A0
A0
E0
ENDCHAR
STARTCHAR ucircumflex
ENCODING 251
SWIDTH 500 0
DWIDTH 4 0
SWIDTH1 1000 0
DWIDTH1 0 0
BBX 3 6 0 0
BITMAP
40
A0
00
A0
A0
E0
ENDCHAR
STARTCHAR udieresis
ENCODING 252
SWIDTH 500 0
DWIDTH 4 0
SWIDTH1 1000 0
DWIDTH1 0 0
BBX 3 5 0 0
BITMAP
A0
00
A0
A0
E0
ENDCHAR
STARTCHAR yacute
ENCODING 253
SWIDTH 500 0
DWIDTH 4 0
SWIDTH1 1000 0
DWIDTH1 0 0
BBX 3 7 0 -1
BITMAP
20
40
00
A0
60
20
C0
ENDCHAR
STARTCHAR thorn
ENCODING 254
SWIDTH 500 0
DWIDTH 4 0
SWIDTH1 1000 0
DWIDTH1 0 0
BBX 3 7 0 -1
BITMAP
80
80
C0
A0
C0
80
80
ENDCHAR
STARTCHAR ydieresis
ENCODING 255
SWIDTH 500 0
DWIDTH 4 0
SWIDTH1 1000 0
DWIDTH1 0 0
BBX 3 6 0 -1
BITMAP
A0
00
A0
60
20
C0
ENDCHAR
STARTCHAR amacron
ENCODING 257
SWIDTH 500 0
DWIDTH 4 0
SWIDTH1 1000 0
BBX 3 5 0 0
BITMAP
E0
00
60
A0
60
ENDCHAR
STARTCHAR emacron
ENCODING 275
SWIDTH 500 0
DWIDTH 4 0
SWIDTH1 1000 0
BBX 3 6 0 0
BITMAP
E0
00
60
A0
C0
60
ENDCHAR
STARTCHAR ecaron
ENCODING 283
SWIDTH 500 0
DWIDTH 4 0
SWIDTH1 1000 0
BBX 3 6 0 0
BITMAP
A0
40
60
A0
C0
60
ENDCHAR
STARTCHAR imacron
ENCODING 299
SWIDTH 500 0
DWIDTH 4 0
SWIDTH1 1000 0
BBX 3 6 0 0
BITMAP
E0
00
40
40
40
40
ENDCHAR
STARTCHAR nacute
ENCODING 324
SWIDTH 500 0
DWIDTH 4 0
SWIDTH1 1000 0
BBX 3 6 0 0
BITMAP
40
80
00
C0
A0
A0
ENDCHAR
STARTCHAR ncaron
ENCODING 328
SWIDTH 500 0
DWIDTH 4 0
SWIDTH1 1000 0
BBX 3 6 0 0
BITMAP
A0
40
00
C0
A0
A0
ENDCHAR
STARTCHAR omacron
ENCODING 333
SWIDTH 500 0
DWIDTH 4 0
SWIDTH1 1000 0
BBX 3 6 0 0
BITMAP
E0
00
40
A0
A0
40
ENDCHAR
STARTCHAR OE
ENCODING 338
SWIDTH 500 0
DWIDTH 4 0
SWIDTH1 1000 0
BBX 4 6 0 0
BITMAP
70
A0
B0
A0
A0
70
ENDCHAR
STARTCHAR oe
ENCODING 339
SWIDTH 500 0
DWIDTH 4 0
SWIDTH1 1000 0
BBX 4 5 0 0
BITMAP
70
A0
B0
A0
70
ENDCHAR
STARTCHAR Scaron
ENCODING 352
SWIDTH 500 0
DWIDTH 4 0
SWIDTH1 1000 0
BBX 3 6 0 0
BITMAP
A0
40
60
80
40
E0
ENDCHAR
STARTCHAR scaron
ENCODING 353
SWIDTH 500 0
DWIDTH 4 0
SWIDTH1 1000 0
BBX 3 6 0 0
BITMAP
A0
40
E0
80
40
C0
ENDCHAR
STARTCHAR umacron
ENCODING 363
SWIDTH 500 0
DWIDTH 4 0
SWIDTH1 1000 0
BBX 3 5 0 0
BITMAP
E0
00
A0
A0
60
ENDCHAR
STARTCHAR Ydieresis
ENCODING 376
SWIDTH 500 0
DWIDTH 4 0
SWIDTH1 1000 0
BBX 3 6 0 0
BITMAP
A0
00
A0
40
40
40
ENDCHAR
STARTCHAR florin
ENCODING 402
SWIDTH 500 0
DWIDTH 4 0
SWIDTH1 1000 0
BBX 3 6 0 -1
BITMAP
60
40
E0
40
40
C0
ENDCHAR
STARTCHAR uni01CE
ENCODING 462
SWIDTH 500 0
DWIDTH 4 0
SWIDTH1 1000 0
BBX 3 6 0 0
BITMAP
A0
40
00
60
A0
60
ENDCHAR
STARTCHAR uni01D0
ENCODING 464
SWIDTH 500 0
DWIDTH 4 0
SWIDTH1 1000 0
BBX 3 6 0 0
BITMAP
A0
40
00
40
40
40
ENDCHAR
STARTCHAR uni01D2
ENCODING 466
SWIDTH 500 0
DWIDTH 4 0
SWIDTH1 1000 0
BBX 3 6 0 0
BITMAP
A0
40
00
E0
A0
E0
ENDCHAR
STARTCHAR uni01D4
ENCODING 468
SWIDTH 500 0
DWIDTH 4 0
SWIDTH1 1000 0
BBX 3 6 0 0
BITMAP
A0
40
00
A0
A0
60
ENDCHAR
STARTCHAR uni01D6
ENCODING 470
SWIDTH 500 0
DWIDTH 4 0
SWIDTH1 1000 0
BBX 3 6 0 0
BITMAP
E0
00
A0
00
A0
60
ENDCHAR
STARTCHAR uni01D8
ENCODING 472
SWIDTH 500 0
DWIDTH 4 0
SWIDTH1 1000 0
BBX 3 6 0 0
BITMAP
20
40
A0
00
A0
60
ENDCHAR
STARTCHAR uni01DA
ENCODING 474
SWIDTH 500 0
DWIDTH 4 0
SWIDTH1 1000 0
BBX 3 6 0 0
BITMAP
A0
40
A0
00
A0
60
ENDCHAR
STARTCHAR uni01DC
ENCODING 476
SWIDTH 500 0
DWIDTH 4 0
SWIDTH1 1000 0
BBX 3 6 0 0
BITMAP
80
40
A0
00
A0
E0
ENDCHAR
STARTCHAR uni01F9
ENCODING 505
SWIDTH 500 0
DWIDTH 4 0
SWIDTH1 1000 0
BBX 3 6 0 0
BITMAP
40
20
00
C0
A0
A0
ENDCHAR
STARTCHAR uni0251
ENCODING 593
SWIDTH 500 0
DWIDTH 4 0
SWIDTH1 1000 0
BBX 3 5 0 0
BITMAP
60
A0
A0
A0
60
ENDCHAR
STARTCHAR uni0261
ENCODING 609
SWIDTH 500 0
DWIDTH 4 0
SWIDTH1 1000 0
BBX 3 6 0 -1
BITMAP
60
A0
A0
E0
20
E0
ENDCHAR
STARTCHAR circumflex
ENCODING 710
SWIDTH 500 0
DWIDTH 4 0
SWIDTH1 1000 0
BBX 3 2 0 4
BITMAP
A0
40
ENDCHAR
STARTCHAR caron
ENCODING 711
SWIDTH 1000 0
SWIDTH1 1000 0
BBX 3 2 0 4
BITMAP
A0
40
ENDCHAR
STARTCHAR uni02C9
ENCODING 713
SWIDTH 1000 0
SWIDTH1 1000 0
BBX 3 1 0 4
BITMAP
E0
ENDCHAR
STARTCHAR uni02CA
ENCODING 714
SWIDTH 1000 0
SWIDTH1 1000 0
BBX 1 1 3 5
BITMAP
80
ENDCHAR
STARTCHAR uni02CB
ENCODING 715
SWIDTH 1000 0
SWIDTH1 1000 0
BBX 1 1 4 4
BITMAP
00
ENDCHAR
STARTCHAR dotaccent
ENCODING 729
SWIDTH 1000 0
SWIDTH1 1000 0
BBX 3 1 0 5
BITMAP
E0
ENDCHAR
STARTCHAR tilde
ENCODING 732
SWIDTH 500 0
DWIDTH 4 0
SWIDTH1 1000 0
BBX 7 7 0 -1
BITMAP
10
28
28
44
7C
82
82
ENDCHAR
STARTCHAR Alpha
ENCODING 913
SWIDTH 1000 0
SWIDTH1 1000 0
BBX 7 7 0 -1
BITMAP
10
28
28
44
7C
82
82
ENDCHAR
STARTCHAR Beta
ENCODING 914
SWIDTH 1000 0
SWIDTH1 1000 0
BBX 6 7 1 -1
BITMAP
F8
84
84
F8
84
84
F8
ENDCHAR
STARTCHAR Gamma
ENCODING 915
SWIDTH 1000 0
SWIDTH1 1000 0
BBX 6 7 1 -1
BITMAP
FC
80
80
80
80
80
80
ENDCHAR
STARTCHAR uni0394
ENCODING 916
SWIDTH 1000 0
SWIDTH1 1000 0
BBX 7 7 0 -1
BITMAP
10
28
28
44
44
82
FE
ENDCHAR
STARTCHAR Epsilon
ENCODING 917
SWIDTH 1000 0
SWIDTH1 1000 0
BBX 6 7 1 -1
BITMAP
FC
80
80
F8
80
80
FC
ENDCHAR
STARTCHAR Zeta
ENCODING 918
SWIDTH 1000 0
SWIDTH1 1000 0
BBX 6 7 1 -1
BITMAP
FC
04
08
10
20
40
FC
ENDCHAR
STARTCHAR Eta
ENCODING 919
SWIDTH 1000 0
SWIDTH1 1000 0
BBX 6 7 1 -1
BITMAP
84
84
84
FC
84
84
84
ENDCHAR
STARTCHAR Theta
ENCODING 920
SWIDTH 1000 0
SWIDTH1 1000 0
BBX 7 7 0 -1
BITMAP
38
44
82
BA
82
44
38
ENDCHAR
STARTCHAR Iota
ENCODING 921
SWIDTH 1000 0
SWIDTH1 1000 0
BBX 3 7 2 -1
BITMAP
E0
40
40
40
40
40
E0
ENDCHAR
STARTCHAR Kappa
ENCODING 922
SWIDTH 1000 0
SWIDTH1 1000 0
BBX 6 7 1 -1
BITMAP
84
88
90
A0
D0
88
84
ENDCHAR
STARTCHAR Lambda
ENCODING 923
SWIDTH 1000 0
SWIDTH1 1000 0
BBX 7 7 0 -1
BITMAP
10
28
28
44
44
82
82
ENDCHAR
STARTCHAR Mu
ENCODING 924
SWIDTH 1000 0
SWIDTH1 1000 0
BBX 7 7 0 -1
BITMAP
82
C6
AA
AA
92
92
82
ENDCHAR
STARTCHAR Nu
ENCODING 925
SWIDTH 1000 0
SWIDTH1 1000 0
BBX 6 7 1 -1
BITMAP
84
C4
A4
94
8C
84
84
ENDCHAR
STARTCHAR Xi
ENCODING 926
SWIDTH 1000 0
SWIDTH1 1000 0
BBX 6 7 1 -1
BITMAP
FC
00
00
78
00
00
FC
ENDCHAR
STARTCHAR Omicron
ENCODING 927
SWIDTH 1000 0
SWIDTH1 1000 0
BBX 6 7 1 -1
BITMAP
30
48
84
84
84
48
30
ENDCHAR
STARTCHAR Pi
ENCODING 928
SWIDTH 1000 0
SWIDTH1 1000 0
BBX 6 7 1 -1
BITMAP
FC
84
84
84
84
84
84
ENDCHAR
STARTCHAR Rho
ENCODING 929
SWIDTH 1000 0
SWIDTH1 1000 0
BBX 6 7 1 -1
BITMAP
F8
84
84
F8
80
80
80
ENDCHAR
STARTCHAR Sigma
ENCODING 931
SWIDTH 1000 0
SWIDTH1 1000 0
BBX 6 7 1 -1
BITMAP
FC
40
20
10
20
40
FC
ENDCHAR
STARTCHAR Tau
ENCODING 932
SWIDTH 1000 0
SWIDTH1 1000 0
BBX 7 7 0 -1
BITMAP
FE
10
10
10
10
10
10
ENDCHAR
STARTCHAR Upsilon
ENCODING 933
SWIDTH 1000 0
SWIDTH1 1000 0
BBX 7 7 0 -1
BITMAP
82
44
28
10
10
10
10
ENDCHAR
STARTCHAR Phi
ENCODING 934
SWIDTH 1000 0
SWIDTH1 1000 0
BBX 7 7 0 -1
BITMAP
10
7C
92
92
92
7C
10
ENDCHAR
STARTCHAR Chi
ENCODING 935
SWIDTH 1000 0
SWIDTH1 1000 0
BBX 7 7 0 -1
BITMAP
82
44
28
10
28
44
82
ENDCHAR
STARTCHAR Psi
ENCODING 936
SWIDTH 1000 0
SWIDTH1 1000 0
BBX 7 7 0 -1
BITMAP
92
54
54
38
10
10
10
ENDCHAR
STARTCHAR uni03A9
ENCODING 937
SWIDTH 1000 0
SWIDTH1 1000 0
BBX 7 7 0 -1
BITMAP
38
44
82
82
44
28
EE
ENDCHAR
STARTCHAR alpha
ENCODING 945
SWIDTH 1000 0
SWIDTH1 1000 0
BBX 5 5 1 -1
BITMAP
68
90
90
90
68
ENDCHAR
STARTCHAR beta
ENCODING 946
SWIDTH 1000 0
SWIDTH1 1000 0
BBX 5 7 1 -1
BITMAP
70
88
90
90
88
F0
80
ENDCHAR
STARTCHAR gamma
ENCODING 947
SWIDTH 1000 0
SWIDTH1 1000 0
BBX 5 5 1 -1
BITMAP
88
50
60
40
40
ENDCHAR
STARTCHAR delta
ENCODING 948
SWIDTH 1000 0
SWIDTH1 1000 0
BBX 4 7 2 -1
BITMAP
60
90
40
A0
90
90
60
ENDCHAR
STARTCHAR epsilon
ENCODING 949
SWIDTH 1000 0
SWIDTH1 1000 0
BBX 5 5 1 -1
BITMAP
70
88
E0
88
70
ENDCHAR
STARTCHAR zeta
ENCODING 950
SWIDTH 1000 0
SWIDTH1 1000 0
BBX 4 7 2 -1
BITMAP
F0
20
40
80
80
60
10
ENDCHAR
STARTCHAR eta
ENCODING 951
SWIDTH 1000 0
SWIDTH1 1000 0
BBX 5 5 1 -1
BITMAP
B0
48
48
48
08
ENDCHAR
STARTCHAR theta
ENCODING 952
SWIDTH 1000 0
SWIDTH1 1000 0
BBX 4 7 2 -1
BITMAP
60
90
90
F0
90
90
60
ENDCHAR
STARTCHAR iota
ENCODING 953
SWIDTH 1000 0
SWIDTH1 1000 0
BBX 3 5 2 -1
BITMAP
80
80
80
A0
40
ENDCHAR
STARTCHAR kappa
ENCODING 954
SWIDTH 1000 0
SWIDTH1 1000 0
BBX 4 5 2 -1
BITMAP
90
A0
C0
A0
90
ENDCHAR
STARTCHAR lambda
ENCODING 955
SWIDTH 1000 0
SWIDTH1 1000 0
BBX 5 7 1 -1
BITMAP
40
20
20
20
50
50
88
ENDCHAR
STARTCHAR uni03BC
ENCODING 956
SWIDTH 1000 0
SWIDTH1 1000 0
BBX 5 5 1 -1
BITMAP
90
90
90
E8
80
ENDCHAR
STARTCHAR nu
ENCODING 957
SWIDTH 1000 0
SWIDTH1 1000 0
BBX 5 5 1 -1
BITMAP
88
48
50
60
40
ENDCHAR
STARTCHAR xi
ENCODING 958
SWIDTH 1000 0
SWIDTH1 1000 0
BBX 4 7 2 -1
BITMAP
F0
40
40
30
40
40
20
ENDCHAR
STARTCHAR omicron
ENCODING 959
SWIDTH 1000 0
SWIDTH1 1000 0
BBX 4 5 2 -1
BITMAP
60
90
90
90
60
ENDCHAR
STARTCHAR pi
ENCODING 960
SWIDTH 1000 0
SWIDTH1 1000 0
BBX 6 5 1 -1
BITMAP
FC
28
28
48
8C
ENDCHAR
STARTCHAR rho
ENCODING 961
SWIDTH 1000 0
SWIDTH1 1000 0
BBX 4 5 2 -1
BITMAP
60
90
90
E0
80
ENDCHAR
STARTCHAR sigma
ENCODING 963
SWIDTH 1000 0
SWIDTH1 1000 0
BBX 5 5 2 -1
BITMAP
78
90
90
90
60
ENDCHAR
STARTCHAR tau
ENCODING 964
SWIDTH 1000 0
SWIDTH1 1000 0
BBX 5 5 1 -1
BITMAP
78
A0
20
28
10
ENDCHAR
STARTCHAR upsilon
ENCODING 965
SWIDTH 1000 0
SWIDTH1 1000 0
BBX 5 5 1 -1
BITMAP
C8
48
48
48
30
ENDCHAR
STARTCHAR phi
ENCODING 966
SWIDTH 1000 0
SWIDTH1 1000 0
BBX 5 6 1 -1
BITMAP
20
70
A8
A8
70
20
ENDCHAR
STARTCHAR chi
ENCODING 967
SWIDTH 1000 0
SWIDTH1 1000 0
BBX 5 5 1 -1
BITMAP
68
10
20
60
98
ENDCHAR
STARTCHAR psi
ENCODING 968
SWIDTH 1000 0
SWIDTH1 1000 0
BBX 7 7 0 -1
BITMAP
10
10
D6
54
54
38
10
ENDCHAR
STARTCHAR omega
ENCODING 969
SWIDTH 1000 0
SWIDTH1 1000 0
BBX 7 5 0 -1
BITMAP
44
92
92
92
6C
ENDCHAR
STARTCHAR uni0401
ENCODING 1025
SWIDTH 1000 0
SWIDTH1 1000 0
BBX 6 7 1 -1
BITMAP
48
FC
80
F8
80
80
FC
ENDCHAR
STARTCHAR uni0410
ENCODING 1040
SWIDTH 1000 0
SWIDTH1 1000 0
BBX 7 7 0 -1
BITMAP
10
28
28
44
7C
82
82
ENDCHAR
STARTCHAR uni0411
ENCODING 1041
SWIDTH 1000 0
SWIDTH1 1000 0
BBX 6 7 1 -1
BITMAP
FC
80
80
F8
84
84
F8
ENDCHAR
STARTCHAR uni0412
ENCODING 1042
SWIDTH 1000 0
SWIDTH1 1000 0
BBX 6 7 1 -1
BITMAP
F8
84
84
F8
84
84
F8
ENDCHAR
STARTCHAR uni0413
ENCODING 1043
SWIDTH 1000 0
SWIDTH1 1000 0
BBX 6 7 1 -1
BITMAP
FC
80
80
80
80
80
80
ENDCHAR
STARTCHAR uni0414
ENCODING 1044
SWIDTH 1000 0
SWIDTH1 1000 0
BBX 7 7 0 -1
BITMAP
3C
24
24
24
44
FE
82
ENDCHAR
STARTCHAR uni0415
ENCODING 1045
SWIDTH 1000 0
SWIDTH1 1000 0
BBX 6 7 1 -1
BITMAP
FC
80
80
F8
80
80
FC
ENDCHAR
STARTCHAR uni0416
ENCODING 1046
SWIDTH 1000 0
SWIDTH1 1000 0
BBX 7 7 0 -1
BITMAP
92
54
54
38
54
54
92
ENDCHAR
STARTCHAR uni0417
ENCODING 1047
SWIDTH 1000 0
SWIDTH1 1000 0
BBX 6 7 1 -1
BITMAP
78
84
04
38
04
84
78
ENDCHAR
STARTCHAR uni0418
ENCODING 1048
SWIDTH 1000 0
SWIDTH1 1000 0
BBX 6 7 1 -1
BITMAP
84
84
8C
94
A4
C4
84
ENDCHAR
STARTCHAR uni0419
ENCODING 1049
SWIDTH 1000 0
SWIDTH1 1000 0
BBX 6 7 1 -1
BITMAP
48
B4
8C
94
A4
C4
84
ENDCHAR
STARTCHAR uni041A
ENCODING 1050
SWIDTH 1000 0
SWIDTH1 1000 0
BBX 6 7 1 -1
BITMAP
8C
90
90
E0
90
88
84
ENDCHAR
STARTCHAR uni041B
ENCODING 1051
SWIDTH 1000 0
SWIDTH1 1000 0
BBX 7 7 0 -1
BITMAP
3E
22
22
22
22
22
C2
ENDCHAR
STARTCHAR uni041C
ENCODING 1052
SWIDTH 1000 0
SWIDTH1 1000 0
BBX 7 7 0 -1
BITMAP
44
44
44
AA
AA
92
92
ENDCHAR
STARTCHAR uni041D
ENCODING 1053
SWIDTH 1000 0
SWIDTH1 1000 0
BBX 6 7 1 -1
BITMAP
84
84
84
FC
84
84
84
ENDCHAR
STARTCHAR uni041E
ENCODING 1054
SWIDTH 1000 0
SWIDTH1 1000 0
BBX 6 7 1 -1
BITMAP
30
48
84
84
84
48
30
ENDCHAR
STARTCHAR uni041F
ENCODING 1055
SWIDTH 1000 0
SWIDTH1 1000 0
BBX 6 7 1 -1
BITMAP
FC
84
84
84
84
84
84
ENDCHAR
STARTCHAR uni0420
ENCODING 1056
SWIDTH 1000 0
SWIDTH1 1000 0
BBX 6 7 1 -1
BITMAP
F8
84
84
F8
80
80
80
ENDCHAR
STARTCHAR uni0421
ENCODING 1057
SWIDTH 1000 0
SWIDTH1 1000 0
BBX 6 7 1 -1
BITMAP
38
44
80
80
80
44
38
ENDCHAR
STARTCHAR uni0422
ENCODING 1058
SWIDTH 1000 0
SWIDTH1 1000 0
BBX 7 7 0 -1
BITMAP
FE
10
10
10
10
10
10
ENDCHAR
STARTCHAR uni0423
ENCODING 1059
SWIDTH 1000 0
SWIDTH1 1000 0
BBX 6 7 1 -1
BITMAP
84
48
48
30
10
20
C0
ENDCHAR
STARTCHAR uni0424
ENCODING 1060
SWIDTH 1000 0
SWIDTH1 1000 0
BBX 7 7 0 -1
BITMAP
10
7C
92
92
92
7C
10
ENDCHAR
STARTCHAR uni0425
ENCODING 1061
SWIDTH 1000 0
SWIDTH1 1000 0
BBX 7 7 0 -1
BITMAP
82
44
28
10
28
44
82
ENDCHAR
STARTCHAR uni0426
ENCODING 1062
SWIDTH 1000 0
SWIDTH1 1000 0
BBX 6 7 1 -1
BITMAP
88
88
88
88
88
FC
04
ENDCHAR
STARTCHAR uni0427
ENCODING 1063
SWIDTH 1000 0
SWIDTH1 1000 0
BBX 6 7 1 -1
BITMAP
84
84
84
84
7C
04
04
ENDCHAR
STARTCHAR uni0428
ENCODING 1064
SWIDTH 1000 0
SWIDTH1 1000 0
BBX 7 7 0 -1
BITMAP
92
92
92
92
92
92
FE
ENDCHAR
STARTCHAR uni0429
ENCODING 1065
SWIDTH 1000 0
SWIDTH1 1000 0
BBX 7 7 0 -1
BITMAP
92
92
92
92
92
FE
02
ENDCHAR
STARTCHAR uni042A
ENCODING 1066
SWIDTH 1000 0
SWIDTH1 1000 0
BBX 6 7 1 -1
BITMAP
C0
40
40
78
44
44
78
ENDCHAR
STARTCHAR uni042B
ENCODING 1067
SWIDTH 1000 0
SWIDTH1 1000 0
BBX 6 7 1 -1
BITMAP
84
84
84
E4
94
94
E4
ENDCHAR
STARTCHAR uni042C
ENCODING 1068
SWIDTH 1000 0
SWIDTH1 1000 0
BBX 5 7 2 -1
BITMAP
80
80
80
F0
88
88
F0
ENDCHAR
STARTCHAR uni042D
ENCODING 1069
SWIDTH 1000 0
SWIDTH1 1000 0
BBX 6 7 1 -1
BITMAP
70
88
04
7C
04
88
70
ENDCHAR
STARTCHAR uni042E
ENCODING 1070
SWIDTH 1000 0
SWIDTH1 1000 0
BBX 7 7 0 -1
BITMAP
9C
A2
A2
E2
A2
A2
9C
ENDCHAR
STARTCHAR uni042F
ENCODING 1071
SWIDTH 1000 0
SWIDTH1 1000 0
BBX 6 7 1 -1
BITMAP
7C
84
84
7C
44
44
84
ENDCHAR
STARTCHAR uni0430
ENCODING 1072
SWIDTH 1000 0
SWIDTH1 1000 0
BBX 5 5 1 -1
BITMAP
70
08
78
88
78
ENDCHAR
STARTCHAR uni0431
ENCODING 1073
SWIDTH 1000 0
SWIDTH1 1000 0
BBX 5 7 1 -1
BITMAP
38
40
F0
88
88
88
70
ENDCHAR
STARTCHAR uni0432
ENCODING 1074
SWIDTH 1000 0
SWIDTH1 1000 0
BBX 5 5 1 -1
BITMAP
F0
88
F0
88
F0
ENDCHAR
STARTCHAR uni0433
ENCODING 1075
SWIDTH 1000 0
SWIDTH1 1000 0
BBX 5 5 1 -1
BITMAP
F8
80
80
80
80
ENDCHAR
STARTCHAR uni0434
ENCODING 1076
SWIDTH 1000 0
SWIDTH1 1000 0
BBX 5 5 1 -1
BITMAP
70
50
50
F8
88
ENDCHAR
STARTCHAR uni0435
ENCODING 1077
SWIDTH 1000 0
SWIDTH1 1000 0
BBX 5 5 1 -1
BITMAP
70
88
F8
80
70
ENDCHAR
STARTCHAR uni0436
ENCODING 1078
SWIDTH 1000 0
SWIDTH1 1000 0
BBX 7 5 0 -1
BITMAP
92
54
38
54
92
ENDCHAR
STARTCHAR uni0437
ENCODING 1079
SWIDTH 1000 0
SWIDTH1 1000 0
BBX 5 5 1 -1
BITMAP
70
88
30
88
70
ENDCHAR
STARTCHAR uni0438
ENCODING 1080
SWIDTH 1000 0
SWIDTH1 1000 0
BBX 5 5 1 -1
BITMAP
88
98
A8
C8
88
ENDCHAR
STARTCHAR uni0439
ENCODING 1081
SWIDTH 1000 0
SWIDTH1 1000 0
BBX 5 7 1 -1
BITMAP
50
20
88
98
A8
C8
88
ENDCHAR
STARTCHAR uni043A
ENCODING 1082
SWIDTH 1000 0
SWIDTH1 1000 0
BBX 5 5 1 -1
BITMAP
98
A0
E0
90
88
ENDCHAR
STARTCHAR uni043B
ENCODING 1083
SWIDTH 1000 0
SWIDTH1 1000 0
BBX 6 5 0 -1
BITMAP
3C
24
24
24
C4
ENDCHAR
STARTCHAR uni043C
ENCODING 1084
SWIDTH 1000 0
SWIDTH1 1000 0
BBX 5 5 1 -1
BITMAP
88
D8
A8
A8
88
ENDCHAR
STARTCHAR uni043D
ENCODING 1085
SWIDTH 1000 0
SWIDTH1 1000 0
BBX 5 5 1 -1
BITMAP
88
88
F8
88
88
ENDCHAR
STARTCHAR uni043E
ENCODING 1086
SWIDTH 1000 0
SWIDTH1 1000 0
BBX 5 5 1 -1
BITMAP
70
88
88
88
70
ENDCHAR
STARTCHAR uni043F
ENCODING 1087
SWIDTH 1000 0
SWIDTH1 1000 0
BBX 5 5 1 -1
BITMAP
F8
88
88
88
88
ENDCHAR
STARTCHAR uni0440
ENCODING 1088
SWIDTH 1000 0
SWIDTH1 1000 0
BBX 5 5 1 -1
BITMAP
F0
88
F0
80
80
ENDCHAR
STARTCHAR uni0441
ENCODING 1089
SWIDTH 1000 0
SWIDTH1 1000 0
BBX 5 5 1 -1
BITMAP
70
88
80
88
70
ENDCHAR
STARTCHAR uni0442
ENCODING 1090
SWIDTH 1000 0
SWIDTH1 1000 0
BBX 5 5 1 -1
BITMAP
F8
20
20
20
20
ENDCHAR
STARTCHAR uni0443
ENCODING 1091
SWIDTH 1000 0
SWIDTH1 1000 0
BBX 5 5 1 -1
BITMAP
88
50
50
20
C0
ENDCHAR
STARTCHAR uni0444
ENCODING 1092
SWIDTH 1000 0
SWIDTH1 1000 0
BBX 5 7 1 -1
BITMAP
20
20
70
A8
A8
70
20
ENDCHAR
STARTCHAR uni0445
ENCODING 1093
SWIDTH 1000 0
SWIDTH1 1000 0
BBX 5 5 1 -1
BITMAP
88
50
20
50
88
ENDCHAR
STARTCHAR uni0446
ENCODING 1094
SWIDTH 1000 0
SWIDTH1 1000 0
BBX 5 5 1 -1
BITMAP
90
90
90
F8
08
ENDCHAR
STARTCHAR uni0447
ENCODING 1095
SWIDTH 1000 0
SWIDTH1 1000 0
BBX 5 5 1 -1
BITMAP
88
88
88
78
08
ENDCHAR
STARTCHAR uni0448
ENCODING 1096
SWIDTH 1000 0
SWIDTH1 1000 0
BBX 5 5 1 -1
BITMAP
A8
A8
A8
A8
F8
ENDCHAR
STARTCHAR uni0449
ENCODING 1097
SWIDTH 1000 0
SWIDTH1 1000 0
BBX 6 5 1 -1
BITMAP
A8
A8
A8
FC
04
ENDCHAR
STARTCHAR uni044A
ENCODING 1098
SWIDTH 1000 0
SWIDTH1 1000 0
BBX 6 5 1 -1
BITMAP
C0
40
78
44
78
ENDCHAR
STARTCHAR uni044B
ENCODING 1099
SWIDTH 1000 0
SWIDTH1 1000 0
BBX 5 5 1 -1
BITMAP
88
88
E8
98
E8
ENDCHAR
STARTCHAR uni044C
ENCODING 1100
SWIDTH 1000 0
SWIDTH1 1000 0
BBX 5 5 1 -1
BITMAP
80
80
F0
88
F0
ENDCHAR
STARTCHAR uni044D
ENCODING 1101
SWIDTH 1000 0
SWIDTH1 1000 0
BBX 5 5 1 -1
BITMAP
70
88
38
88
70
ENDCHAR
STARTCHAR uni044E
ENCODING 1102
SWIDTH 1000 0
SWIDTH1 1000 0
BBX 6 5 1 -1
BITMAP
98
A4
E4
A4
98
ENDCHAR
STARTCHAR uni044F
ENCODING 1103
SWIDTH 1000 0
SWIDTH1 1000 0
BBX 5 5 1 -1
BITMAP
78
88
78
48
88
ENDCHAR
STARTCHAR uni0451
ENCODING 1105
SWIDTH 1000 0
SWIDTH1 1000 0
BBX 5 7 1 -1
BITMAP
50
00
70
88
F8
80
70
ENDCHAR
STARTCHAR uni1E3F
ENCODING 7743
SWIDTH 500 0
DWIDTH 4 0
SWIDTH1 1000 0
BBX 3 6 0 0
BITMAP
20
40
00
E0
E0
A0
ENDCHAR
STARTCHAR uni2010
ENCODING 8208
SWIDTH 1000 0
SWIDTH1 1000 0
BBX 3 1 2 2
BITMAP
E0
ENDCHAR
STARTCHAR endash
ENCODING 8211
SWIDTH 1000 0
SWIDTH1 1000 0
BBX 3 1 2 2
BITMAP
E0
ENDCHAR
STARTCHAR emdash
ENCODING 8212
SWIDTH 1000 0
SWIDTH1 1000 0
BBX 8 1 0 2
BITMAP
FF
ENDCHAR
STARTCHAR uni2015
ENCODING 8213
SWIDTH 1000 0
SWIDTH1 1000 0
BBX 8 1 0 2
BITMAP
FF
ENDCHAR
STARTCHAR uni2016
ENCODING 8214
SWIDTH 1000 0
SWIDTH1 1000 0
BBX 3 7 2 -1
BITMAP
A0
A0
A0
A0
A0
A0
A0
ENDCHAR
STARTCHAR quoteleft
ENCODING 8216
SWIDTH 1000 0
SWIDTH1 1000 0
BBX 2 3 5 3
BITMAP
40
80
C0
ENDCHAR
STARTCHAR quoteright
ENCODING 8217
SWIDTH 1000 0
SWIDTH1 1000 0
BBX 2 3 0 3
BITMAP
C0
40
80
ENDCHAR
STARTCHAR quotesinglbase
ENCODING 8218
SWIDTH 500 0
DWIDTH 4 0
SWIDTH1 1000 0
BBX 2 3 0 -1
BITMAP
40
40
80
ENDCHAR
STARTCHAR quotedblleft
ENCODING 8220
SWIDTH 1000 0
SWIDTH1 1000 0
BBX 5 3 2 3
BITMAP
48
90
D8
ENDCHAR
STARTCHAR quotedblright
ENCODING 8221
SWIDTH 1000 0
SWIDTH1 1000 0
BBX 5 3 0 3
BITMAP
D8
48
90
ENDCHAR
STARTCHAR quotedblbase
ENCODING 8222
SWIDTH 500 0
DWIDTH 4 0
SWIDTH1 1000 0
BBX 4 3 0 -1
BITMAP
50
50
A0
ENDCHAR
STARTCHAR dagger
ENCODING 8224
SWIDTH 500 0
DWIDTH 4 0
SWIDTH1 1000 0
BBX 3 7 2 -1
BITMAP
40
40
E0
40
40
40
40
ENDCHAR
STARTCHAR daggerdbl
ENCODING 8225
SWIDTH 500 0
DWIDTH 4 0
SWIDTH1 1000 0
BBX 3 7 2 -1
BITMAP
40
E0
40
40
40
E0
40
ENDCHAR
STARTCHAR bullet
ENCODING 8226
SWIDTH 500 0
DWIDTH 4 0
SWIDTH1 1000 0
BBX 2 2 1 2
BITMAP
C0
C0
ENDCHAR
STARTCHAR twodotenleader
ENCODING 8229
SWIDTH 1000 0
SWIDTH1 1000 0
BBX 5 1 1 2
BITMAP
88
ENDCHAR
STARTCHAR ellipsis
ENCODING 8230
SWIDTH 1000 0
SWIDTH1 1000 0
BBX 7 1 0 2
BITMAP
92
ENDCHAR
STARTCHAR perthousand
ENCODING 8240
SWIDTH 1000 0
SWIDTH1 1000 0
BBX 7 7 0 -1
BITMAP
44
A8
50
20
54
AA
14
ENDCHAR
STARTCHAR minute
ENCODING 8242
SWIDTH 1000 0
SWIDTH1 1000 0
BBX 3 3 0 3
BITMAP
60
C0
80
ENDCHAR
STARTCHAR second
ENCODING 8243
SWIDTH 1000 0
SWIDTH1 1000 0
BBX 6 3 0 3
BITMAP
6C
D8
90
ENDCHAR
STARTCHAR uni2035
ENCODING 8245
SWIDTH 1000 0
SWIDTH1 1000 0
BBX 2 3 2 3
BITMAP
C0
40
40
ENDCHAR
STARTCHAR guilsinglleft
ENCODING 8249
SWIDTH 500 0
DWIDTH 4 0
SWIDTH1 1000 0
BBX 2 4 1 1
BITMAP
40
80
80
40
ENDCHAR
STARTCHAR guilsinglright
ENCODING 8250
SWIDTH 500 0
DWIDTH 4 0
SWIDTH1 1000 0
BBX 2 4 1 1
BITMAP
80
40
40
80
ENDCHAR
STARTCHAR uni203B
ENCODING 8251
SWIDTH 1000 0
SWIDTH1 1000 0
BBX 7 7 0 -1
BITMAP
92
44
28
92
28
44
92
ENDCHAR
STARTCHAR Euro
ENCODING 8364
SWIDTH 1000 0
SWIDTH1 1000 0
BBX 6 7 0 -1
BITMAP
3C
44
F8
40
F8
40
3C
ENDCHAR
STARTCHAR uni2103
ENCODING 8451
SWIDTH 1000 0
SWIDTH1 1000 0
BBX 7 7 0 -1
BITMAP
40
AC
52
10
10
12
0C
ENDCHAR
STARTCHAR uni2105
ENCODING 8453
SWIDTH 1000 0
SWIDTH1 1000 0
BBX 7 7 0 -1
BITMAP
62
84
68
10
24
4A
84
ENDCHAR
STARTCHAR uni2109
ENCODING 8457
SWIDTH 1000 0
SWIDTH1 1000 0
BBX 7 7 0 -1
BITMAP
4E
A8
48
0E
08
08
08
ENDCHAR
STARTCHAR uni2116
ENCODING 8470
SWIDTH 1000 0
SWIDTH1 1000 0
BBX 7 6 0 0
BITMAP
E0
A4
AA
AA
A4
AE
ENDCHAR
STARTCHAR uni2121
ENCODING 8481
SWIDTH 1000 0
SWIDTH1 1000 0
BBX 7 3 0 3
BITMAP
FC
54
5E
ENDCHAR
STARTCHAR trademark
ENCODING 8482
SWIDTH 500 0
DWIDTH 4 0
SWIDTH1 1000 0
BBX 6 3 0 3
BITMAP
F4
5C
54
ENDCHAR
STARTCHAR uni2160
ENCODING 8544
SWIDTH 1000 0
SWIDTH1 1000 0
BBX 5 7 1 -1
BITMAP
F8
20
20
20
20
20
F8
ENDCHAR
STARTCHAR uni2161
ENCODING 8545
SWIDTH 1000 0
SWIDTH1 1000 0
BBX 7 7 0 -1
BITMAP
FE
28
28
28
28
28
FE
ENDCHAR
STARTCHAR uni2162
ENCODING 8546
SWIDTH 1000 0
SWIDTH1 1000 0
BBX 7 7 0 -1
BITMAP
FE
54
54
54
54
54
FE
ENDCHAR
STARTCHAR uni2163
ENCODING 8547
SWIDTH 1000 0
SWIDTH1 1000 0
BBX 7 7 0 -1
BITMAP
FE
54
54
54
48
48
E8
ENDCHAR
STARTCHAR uni2164
ENCODING 8548
SWIDTH 1000 0
SWIDTH1 1000 0
BBX 5 7 1 -1
BITMAP
88
88
50
50
50
20
20
ENDCHAR
STARTCHAR uni2165
ENCODING 8549
SWIDTH 1000 0
SWIDTH1 1000 0
BBX 7 7 0 -1
BITMAP
AE
A4
A4
A4
44
44
4E
ENDCHAR
STARTCHAR uni2166
ENCODING 8550
SWIDTH 1000 0
SWIDTH1 1000 0
BBX 7 7 0 -1
BITMAP
BE
B4
B4
B4
54
54
7E
ENDCHAR
STARTCHAR uni2167
ENCODING 8551
SWIDTH 1000 0
SWIDTH1 1000 0
BBX 7 7 0 -1
BITMAP
BE
BC
BC
BC
5C
5C
7E
ENDCHAR
STARTCHAR uni2168
ENCODING 8552
SWIDTH 1000 0
SWIDTH1 1000 0
BBX 7 7 0 -1
BITMAP
EA
4A
4A
44
4A
4A
EA
ENDCHAR
STARTCHAR uni2169
ENCODING 8553
SWIDTH 1000 0
SWIDTH1 1000 0
BBX 7 7 0 -1
BITMAP
EE
44
28
10
28
44
EE
ENDCHAR
STARTCHAR uni216A
ENCODING 8554
SWIDTH 1000 0
SWIDTH1 1000 0
BBX 7 7 0 -1
BITMAP
DE
54
24
24
24
54
DE
ENDCHAR
STARTCHAR uni216B
ENCODING 8555
SWIDTH 1000 0
SWIDTH1 1000 0
BBX 7 7 0 -1
BITMAP
AA
AA
4A
4A
4A
AA
AA
ENDCHAR
STARTCHAR uni2170
ENCODING 8560
SWIDTH 1000 0
SWIDTH1 1000 0
BBX 1 7 3 -1
BITMAP
80
00
80
80
80
80
80
ENDCHAR
STARTCHAR uni2171
ENCODING 8561
SWIDTH 1000 0
SWIDTH1 1000 0
BBX 4 7 2 -1
BITMAP
90
00
90
90
90
90
90
ENDCHAR
STARTCHAR uni2172
ENCODING 8562
SWIDTH 1000 0
SWIDTH1 1000 0
BBX 5 7 1 -1
BITMAP
A8
00
A8
A8
A8
A8
A8
ENDCHAR
STARTCHAR uni2173
ENCODING 8563
SWIDTH 1000 0
SWIDTH1 1000 0
BBX 5 7 1 -1
BITMAP
80
00
A8
A8
A8
90
90
ENDCHAR
STARTCHAR uni2174
ENCODING 8564
SWIDTH 1000 0
SWIDTH1 1000 0
BBX 5 5 1 -1
BITMAP
88
88
50
50
20
ENDCHAR
STARTCHAR uni2175
ENCODING 8565
SWIDTH 1000 0
SWIDTH1 1000 0
BBX 5 7 1 -1
BITMAP
08
00
A8
A8
A8
48
48
ENDCHAR
STARTCHAR uni2176
ENCODING 8566
SWIDTH 1000 0
SWIDTH1 1000 0
BBX 7 7 0 -1
BITMAP
0A
00
AA
AA
AA
4A
4A
ENDCHAR
STARTCHAR uni2177
ENCODING 8567
SWIDTH 1000 0
SWIDTH1 1000 0
BBX 7 7 0 -1
BITMAP
2A
00
AA
AA
AA
4A
4A
ENDCHAR
STARTCHAR uni2178
ENCODING 8568
SWIDTH 1000 0
SWIDTH1 1000 0
BBX 5 7 1 -1
BITMAP
80
00
A8
A8
90
A8
A8
ENDCHAR
STARTCHAR uni2179
ENCODING 8569
SWIDTH 1000 0
SWIDTH1 1000 0
BBX 5 5 1 -1
BITMAP
88
50
20
50
88
ENDCHAR
STARTCHAR arrowleft
ENCODING 8592
SWIDTH 1000 0
SWIDTH1 1000 0
BBX 7 5 0 0
BITMAP
20
40
FE
40
20
ENDCHAR
STARTCHAR arrowup
ENCODING 8593
SWIDTH 1000 0
SWIDTH1 1000 0
BBX 5 7 1 -1
BITMAP
20
70
A8
20
20
20
20
ENDCHAR
STARTCHAR arrowright
ENCODING 8594
SWIDTH 1000 0
SWIDTH1 1000 0
BBX 7 5 0 0
BITMAP
08
04
FE
04
08
ENDCHAR
STARTCHAR arrowdown
ENCODING 8595
SWIDTH 1000 0
SWIDTH1 1000 0
BBX 5 7 1 -1
BITMAP
20
20
20
20
A8
70
20
ENDCHAR
STARTCHAR uni2196
ENCODING 8598
SWIDTH 1000 0
SWIDTH1 1000 0
BBX 5 5 1 1
BITMAP
E0
C0
A0
10
08
ENDCHAR
STARTCHAR uni2197
ENCODING 8599
SWIDTH 1000 0
SWIDTH1 1000 0
BBX 5 5 1 1
BITMAP
38
18
28
40
80
ENDCHAR
STARTCHAR uni2198
ENCODING 8600
SWIDTH 1000 0
SWIDTH1 1000 0
BBX 5 5 2 0
BITMAP
80
40
28
18
38
ENDCHAR
STARTCHAR uni2199
ENCODING 8601
SWIDTH 1000 0
SWIDTH1 1000 0
BBX 5 5 1 0
BITMAP
08
10
A0
C0
E0
ENDCHAR
STARTCHAR element
ENCODING 8712
SWIDTH 1000 0
SWIDTH1 1000 0
BBX 6 5 1 0
BITMAP
7C
80
FC
80
7C
ENDCHAR
STARTCHAR product
ENCODING 8719
SWIDTH 1000 0
SWIDTH1 1000 0
BBX 7 7 0 -1
BITMAP
FE
44
44
44
44
44
EE
ENDCHAR
STARTCHAR summation
ENCODING 8721
SWIDTH 1000 0
SWIDTH1 1000 0
BBX 6 7 0 -1
BITMAP
FC
44
20
10
20
44
FC
ENDCHAR
STARTCHAR uni2215
ENCODING 8725
SWIDTH 1000 0
SWIDTH1 1000 0
BBX 4 7 2 -1
BITMAP
10
10
20
20
40
40
80
ENDCHAR
STARTCHAR radical
ENCODING 8730
SWIDTH 1000 0
SWIDTH1 1000 0
BBX 7 7 0 -1
BITMAP
1E
10
20
20
E0
40
40
ENDCHAR
STARTCHAR proportional
ENCODING 8733
SWIDTH 1000 0
SWIDTH1 1000 0
BBX 7 5 0 0
BITMAP
6C
92
90
92
6C
ENDCHAR
STARTCHAR infinity
ENCODING 8734
SWIDTH 1000 0
SWIDTH1 1000 0
BBX 7 5 0 0
BITMAP
6C
92
92
92
6C
ENDCHAR
STARTCHAR orthogonal
ENCODING 8735
SWIDTH 1000 0
SWIDTH1 1000 0
BBX 6 6 1 0
BITMAP
80
80
80
80
80
FC
ENDCHAR
STARTCHAR angle
ENCODING 8736
SWIDTH 1000 0
SWIDTH1 1000 0
BBX 6 6 1 -1
BITMAP
04
08
10
20
40
FC
ENDCHAR
STARTCHAR uni2223
ENCODING 8739
SWIDTH 1000 0
SWIDTH1 1000 0
BBX 1 7 3 -1
BITMAP
80
80
80
80
80
80
80
ENDCHAR
STARTCHAR uni2225
ENCODING 8741
SWIDTH 1000 0
SWIDTH1 1000 0
BBX 4 7 1 -1
BITMAP
50
50
50
A0
A0
A0
A0
ENDCHAR
STARTCHAR logicaland
ENCODING 8743
SWIDTH 1000 0
SWIDTH1 1000 0
BBX 7 7 0 -1
BITMAP
10
10
28
28
44
44
82
ENDCHAR
STARTCHAR logicalor
ENCODING 8744
SWIDTH 1000 0
SWIDTH1 1000 0
BBX 7 7 0 -1
BITMAP
82
44
44
28
28
10
10
ENDCHAR
STARTCHAR intersection
ENCODING 8745
SWIDTH 1000 0
SWIDTH1 1000 0
BBX 6 6 1 -1
BITMAP
78
84
84
84
84
84
ENDCHAR
STARTCHAR union
ENCODING 8746
SWIDTH 1000 0
SWIDTH1 1000 0
BBX 6 6 1 0
BITMAP
84
84
84
84
84
78
ENDCHAR
STARTCHAR integral
ENCODING 8747
SWIDTH 1000 0
SWIDTH1 1000 0
BBX 3 7 2 -1
BITMAP
60
80
80
40
20
20
C0
ENDCHAR
STARTCHAR uni222C
ENCODING 8748
SWIDTH 3906 0
SWIDTH1 3906 0
BBX 6 7 1 -1
BITMAP
6C
90
90
48
24
24
D8
ENDCHAR
STARTCHAR uni222E
ENCODING 8750
SWIDTH 1000 0
SWIDTH1 1000 0
BBX 5 7 1 -1
BITMAP
18
20
70
50
70
20
C0
ENDCHAR
STARTCHAR therefore
ENCODING 8756
SWIDTH 1000 0
SWIDTH1 1000 0
BBX 5 5 1 0
BITMAP
20
00
00
00
88
ENDCHAR
STARTCHAR uni2235
ENCODING 8757
SWIDTH 1000 0
SWIDTH1 1000 0
BBX 5 5 1 0
BITMAP
88
00
00
00
20
ENDCHAR
STARTCHAR uni2236
ENCODING 8758
SWIDTH 1000 0
SWIDTH1 1000 0
BBX 1 5 3 0
BITMAP
80
00
00
00
80
ENDCHAR
STARTCHAR uni2237
ENCODING 8759
SWIDTH 1000 0
SWIDTH1 1000 0
BBX 4 4 1 1
BITMAP
90
00
00
90
ENDCHAR
STARTCHAR uni223D
ENCODING 8765
SWIDTH 1000 0
SWIDTH1 1000 0
BBX 7 5 0 0
BITMAP
4C
92
92
92
64
ENDCHAR
STARTCHAR approxequal
ENCODING 8776
SWIDTH 1000 0
SWIDTH1 1000 0
BBX 6 5 0 0
BITMAP
98
64
00
98
64
ENDCHAR
STARTCHAR uni224C
ENCODING 8780
SWIDTH 1000 0
SWIDTH1 1000 0
BBX 7 7 0 -1
BITMAP
4C
92
64
00
FE
00
FE
ENDCHAR
STARTCHAR uni2252
ENCODING 8786
SWIDTH 1000 0
SWIDTH1 1000 0
BBX 7 7 0 -1
BITMAP
40
00
FE
00
FE
00
04
ENDCHAR
STARTCHAR notequal
ENCODING 8800
SWIDTH 1000 0
SWIDTH1 1000 0
BBX 7 5 0 0
BITMAP
04
FE
10
FE
40
ENDCHAR
STARTCHAR equivalence
ENCODING 8801
SWIDTH 1000 0
SWIDTH1 1000 0
BBX 6 5 1 0
BITMAP
FC
00
FC
00
FC
ENDCHAR
STARTCHAR lessequal
ENCODING 8804
SWIDTH 1000 0
SWIDTH1 1000 0
BBX 6 7 0 -1
BITMAP
0C
30
C0
30
CC
30
0C
ENDCHAR
STARTCHAR greaterequal
ENCODING 8805
SWIDTH 1000 0
SWIDTH1 1000 0
BBX 6 7 0 -1
BITMAP
C0
30
0C
30
CC
30
C0
ENDCHAR
STARTCHAR uni2266
ENCODING 8806
SWIDTH 1000 0
SWIDTH1 1000 0
BBX 7 7 0 -1
BITMAP
1E
E0
1E
00
FE
00
FE
ENDCHAR
STARTCHAR uni2267
ENCODING 8807
SWIDTH 1000 0
SWIDTH1 1000 0
BBX 7 7 0 -1
BITMAP
F0
0E
F0
00
FE
00
FE
ENDCHAR
STARTCHAR uni226A
ENCODING 8810
SWIDTH 3906 0
SWIDTH1 3906 0
BBX 7 7 0 -1
BITMAP
12
24
48
90
48
24
12
ENDCHAR
STARTCHAR uni226B
ENCODING 8811
SWIDTH 3906 0
SWIDTH1 3906 0
BBX 7 7 0 -1
BITMAP
90
48
24
12
24
48
90
ENDCHAR
STARTCHAR uni226E
ENCODING 8814
SWIDTH 1000 0
SWIDTH1 1000 0
BBX 7 7 0 -1
BITMAP
08
0E
38
C8
38
0E
08
ENDCHAR
STARTCHAR uni226F
ENCODING 8815
SWIDTH 1000 0
SWIDTH1 1000 0
BBX 7 7 0 -1
BITMAP
20
E0
38
26
38
E0
20
ENDCHAR
STARTCHAR circleplus
ENCODING 8853
SWIDTH 1000 0
SWIDTH1 1000 0
BBX 7 7 0 -1
BITMAP
38
54
92
FE
92
54
38
ENDCHAR
STARTCHAR uni2299
ENCODING 8857
SWIDTH 1000 0
SWIDTH1 1000 0
BBX 7 7 0 -1
BITMAP
38
44
82
92
82
44
38
ENDCHAR
STARTCHAR perpendicular
ENCODING 8869
SWIDTH 1000 0
SWIDTH1 1000 0
BBX 7 6 0 -1
BITMAP
10
10
10
10
10
FE
ENDCHAR
STARTCHAR uni22BF
ENCODING 8895
SWIDTH 1000 0
SWIDTH1 1000 0
BBX 6 6 0 0
BITMAP
04
0C
14
24
44
FC
ENDCHAR
STARTCHAR uni2312
ENCODING 8978
SWIDTH 1000 0
SWIDTH1 1000 0
BBX 6 2 1 4
BITMAP
78
84
ENDCHAR
STARTCHAR uni2460
ENCODING 9312
SWIDTH 1000 0
SWIDTH1 1000 0
BBX 7 7 0 -1
BITMAP
7C
EE
EE
EE
EE
EE
7C
ENDCHAR
STARTCHAR uni2461
ENCODING 9313
SWIDTH 1000 0
SWIDTH1 1000 0
BBX 7 7 0 -1
BITMAP
7C
C6
F6
C6
DE
C6
7C
ENDCHAR
STARTCHAR uni2462
ENCODING 9314
SWIDTH 1000 0
SWIDTH1 1000 0
BBX 7 7 0 -1
BITMAP
7C
C6
F6
C6
F6
C6
7C
ENDCHAR
STARTCHAR uni2463
ENCODING 9315
SWIDTH 1000 0
SWIDTH1 1000 0
BBX 7 7 0 -1
BITMAP
7C
D6
D6
C6
F6
F6
7C
ENDCHAR
STARTCHAR uni2464
ENCODING 9316
SWIDTH 1000 0
SWIDTH1 1000 0
BBX 7 7 0 -1
BITMAP
7C
C6
DE
C6
F6
C6
7C
ENDCHAR
STARTCHAR uni2465
ENCODING 9317
SWIDTH 1000 0
SWIDTH1 1000 0
BBX 7 7 0 -1
BITMAP
7C
C6
DE
C6
D6
C6
7C
ENDCHAR
STARTCHAR uni2466
ENCODING 9318
SWIDTH 1000 0
SWIDTH1 1000 0
BBX 7 7 0 -1
BITMAP
7C
C6
F6
F6
F6
F6
7C
ENDCHAR
STARTCHAR uni2467
ENCODING 9319
SWIDTH 1000 0
SWIDTH1 1000 0
BBX 7 7 0 -1
BITMAP
7C
C6
D6
C6
D6
C6
7C
ENDCHAR
STARTCHAR uni2468
ENCODING 9320
SWIDTH 1000 0
SWIDTH1 1000 0
BBX 7 7 0 -1
BITMAP
7C
C6
D6
C6
F6
C6
7C
ENDCHAR
STARTCHAR uni2469
ENCODING 9321
SWIDTH 1000 0
SWIDTH1 1000 0
BBX 7 7 0 -1
BITMAP
7C
A2
AA
AA
AA
A2
7C
ENDCHAR
STARTCHAR uni2474
ENCODING 9332
SWIDTH 1000 0
SWIDTH1 1000 0
BBX 7 7 0 -1
BITMAP
44
92
92
92
92
92
44
ENDCHAR
STARTCHAR uni2475
ENCODING 9333
SWIDTH 1000 0
SWIDTH1 1000 0
BBX 7 7 0 -1
BITMAP
44
BA
8A
92
A2
BA
44
ENDCHAR
STARTCHAR uni2476
ENCODING 9334
SWIDTH 1000 0
SWIDTH1 1000 0
BBX 7 7 0 -1
BITMAP
44
B2
8A
92
8A
B2
44
ENDCHAR
STARTCHAR uni2477
ENCODING 9335
SWIDTH 1000 0
SWIDTH1 1000 0
BBX 7 7 0 -1
BITMAP
44
9A
AA
AA
BA
8A
44
ENDCHAR
STARTCHAR uni2478
ENCODING 9336
SWIDTH 1000 0
SWIDTH1 1000 0
BBX 7 7 0 -1
BITMAP
44
BA
A2
BA
8A
B2
44
ENDCHAR
STARTCHAR uni2479
ENCODING 9337
SWIDTH 1000 0
SWIDTH1 1000 0
BBX 7 7 0 -1
BITMAP
44
9A
A2
BA
AA
BA
44
ENDCHAR
STARTCHAR uni247A
ENCODING 9338
SWIDTH 1000 0
SWIDTH1 1000 0
BBX 7 7 0 -1
BITMAP
44
BA
8A
92
92
92
44
ENDCHAR
STARTCHAR uni247B
ENCODING 9339
SWIDTH 1000 0
SWIDTH1 1000 0
BBX 7 7 0 -1
BITMAP
44
BA
AA
92
AA
BA
44
ENDCHAR
STARTCHAR uni247C
ENCODING 9340
SWIDTH 1000 0
SWIDTH1 1000 0
BBX 7 7 0 -1
BITMAP
44
BA
AA
BA
8A
B2
44
ENDCHAR
STARTCHAR uni247D
ENCODING 9341
SWIDTH 1000 0
SWIDTH1 1000 0
BBX 7 7 0 -1
BITMAP
44
82
DE
D6
DE
82
44
ENDCHAR
STARTCHAR uni247E
ENCODING 9342
SWIDTH 1000 0
SWIDTH1 1000 0
BBX 7 7 0 -1
BITMAP
44
82
AA
AA
AA
82
44
ENDCHAR
STARTCHAR uni247F
ENCODING 9343
SWIDTH 1000 0
SWIDTH1 1000 0
BBX 7 7 0 -1
BITMAP
44
9A
C6
CA
DE
82
44
ENDCHAR
STARTCHAR uni2480
ENCODING 9344
SWIDTH 1000 0
SWIDTH1 1000 0
BBX 7 7 0 -1
BITMAP
44
92
CA
D2
CA
92
44
ENDCHAR
STARTCHAR uni2481
ENCODING 9345
SWIDTH 1000 0
SWIDTH1 1000 0
BBX 7 7 0 -1
BITMAP
44
92
DA
DE
CA
82
44
ENDCHAR
STARTCHAR uni2482
ENCODING 9346
SWIDTH 1000 0
SWIDTH1 1000 0
BBX 7 7 0 -1
BITMAP
44
9A
D2
CA
DA
82
44
ENDCHAR
STARTCHAR uni2483
ENCODING 9347
SWIDTH 1000 0
SWIDTH1 1000 0
BBX 7 7 0 -1
BITMAP
44
9A
D2
DA
DA
82
44
ENDCHAR
STARTCHAR uni2484
ENCODING 9348
SWIDTH 1000 0
SWIDTH1 1000 0
BBX 7 7 0 -1
BITMAP
44
82
DA
CA
CA
82
44
ENDCHAR
STARTCHAR uni2485
ENCODING 9349
SWIDTH 1000 0
SWIDTH1 1000 0
BBX 7 7 0 -1
BITMAP
44
8A
D6
CA
D6
8A
44
ENDCHAR
STARTCHAR uni2486
ENCODING 9350
SWIDTH 1000 0
SWIDTH1 1000 0
BBX 7 7 0 -1
BITMAP
44
9A
DA
CA
DA
82
44
ENDCHAR
STARTCHAR uni2487
ENCODING 9351
SWIDTH 1000 0
SWIDTH1 1000 0
BBX 7 7 0 -1
BITMAP
44
E2
96
AA
F6
82
44
ENDCHAR
STARTCHAR uni2488
ENCODING 9352
SWIDTH 1000 0
SWIDTH1 1000 0
BBX 4 6 1 0
BITMAP
40
C0
40
40
40
50
ENDCHAR
STARTCHAR uni2489
ENCODING 9353
SWIDTH 1000 0
SWIDTH1 1000 0
BBX 5 6 1 0
BITMAP
C0
20
20
40
80
E8
ENDCHAR
STARTCHAR uni248A
ENCODING 9354
SWIDTH 1000 0
SWIDTH1 1000 0
BBX 6 6 1 0
BITMAP
60
90
20
10
90
64
ENDCHAR
STARTCHAR uni248B
ENCODING 9355
SWIDTH 1000 0
SWIDTH1 1000 0
BBX 6 6 1 0
BITMAP
20
60
A0
A0
F0
24
ENDCHAR
STARTCHAR uni248C
ENCODING 9356
SWIDTH 1000 0
SWIDTH1 1000 0
BBX 5 6 1 0
BITMAP
E0
80
C0
20
20
C8
ENDCHAR
STARTCHAR uni248D
ENCODING 9357
SWIDTH 1000 0
SWIDTH1 1000 0
BBX 6 6 1 0
BITMAP
60
80
E0
90
90
64
ENDCHAR
STARTCHAR uni248E
ENCODING 9358
SWIDTH 1000 0
SWIDTH1 1000 0
BBX 5 6 1 0
BITMAP
F0
10
10
20
20
48
ENDCHAR
STARTCHAR uni248F
ENCODING 9359
SWIDTH 1000 0
SWIDTH1 1000 0
BBX 6 6 1 0
BITMAP
60
90
60
90
90
64
ENDCHAR
STARTCHAR uni2490
ENCODING 9360
SWIDTH 1000 0
SWIDTH1 1000 0
BBX 6 6 1 0
BITMAP
60
90
90
70
90
64
ENDCHAR
STARTCHAR uni2491
ENCODING 9361
SWIDTH 1000 0
SWIDTH1 1000 0
BBX 7 6 0 0
BITMAP
48
D4
54
54
54
4A
ENDCHAR
STARTCHAR uni2492
ENCODING 9362
SWIDTH 1000 0
SWIDTH1 1000 0
BBX 7 6 0 0
BITMAP
48
D8
48
48
48
4A
ENDCHAR
STARTCHAR uni2493
ENCODING 9363
SWIDTH 1000 0
SWIDTH1 1000 0
BBX 7 6 0 0
BITMAP
90
A8
88
90
A0
BA
ENDCHAR
STARTCHAR uni2494
ENCODING 9364
SWIDTH 1000 0
SWIDTH1 1000 0
BBX 7 6 0 0
BITMAP
B0
88
90
88
88
B2
ENDCHAR
STARTCHAR uni2495
ENCODING 9365
SWIDTH 1000 0
SWIDTH1 1000 0
BBX 7 6 0 0
BITMAP
A8
A8
A8
BC
88
8A
ENDCHAR
STARTCHAR uni2496
ENCODING 9366
SWIDTH 1000 0
SWIDTH1 1000 0
BBX 7 6 0 0
BITMAP
B8
A0
B0
88
88
B2
ENDCHAR
STARTCHAR uni2497
ENCODING 9367
SWIDTH 1000 0
SWIDTH1 1000 0
BBX 7 6 0 0
BITMAP
98
A0
B8
A4
A4
9A
ENDCHAR
STARTCHAR uni2498
ENCODING 9368
SWIDTH 1000 0
SWIDTH1 1000 0
BBX 7 6 0 0
BITMAP
BC
84
88
88
90
92
ENDCHAR
STARTCHAR uni2499
ENCODING 9369
SWIDTH 1000 0
SWIDTH1 1000 0
BBX 7 6 0 0
BITMAP
98
A4
98
A4
A4
9A
ENDCHAR
STARTCHAR uni249A
ENCODING 9370
SWIDTH 1000 0
SWIDTH1 1000 0
BBX 7 6 0 0
BITMAP
98
A4
A4
9C
84
9A
ENDCHAR
STARTCHAR uni249B
ENCODING 9371
SWIDTH 1000 0
SWIDTH1 1000 0
BBX 7 6 0 0
BITMAP
48
B4
34
34
54
EA
ENDCHAR
STARTCHAR SF100000
ENCODING 9472
SWIDTH 1000 0
SWIDTH1 1000 0
BBX 8 1 0 2
BITMAP
FF
ENDCHAR
STARTCHAR uni2501
ENCODING 9473
SWIDTH 1000 0
SWIDTH1 1000 0
BBX 8 2 0 1
BITMAP
FF
FF
ENDCHAR
STARTCHAR SF110000
ENCODING 9474
SWIDTH 1000 0
SWIDTH1 1000 0
BBX 1 8 3 -2
BITMAP
80
80
80
80
80
80
80
80
ENDCHAR
STARTCHAR uni2503
ENCODING 9475
SWIDTH 1000 0
SWIDTH1 1000 0
BBX 2 8 3 -2
BITMAP
C0
C0
C0
C0
C0
C0
C0
C0
ENDCHAR
STARTCHAR uni2504
ENCODING 9476
SWIDTH 1000 0
SWIDTH1 1000 0
BBX 8 1 0 2
BITMAP
DB
ENDCHAR
STARTCHAR uni2505
ENCODING 9477
SWIDTH 1000 0
SWIDTH1 1000 0
BBX 8 2 0 2
BITMAP
DB
DB
ENDCHAR
STARTCHAR uni2506
ENCODING 9478
SWIDTH 1000 0
SWIDTH1 1000 0
BBX 1 8 3 -2
BITMAP
80
80
00
80
80
00
80
80
ENDCHAR
STARTCHAR uni2507
ENCODING 9479
SWIDTH 1000 0
SWIDTH1 1000 0
BBX 2 8 3 -2
BITMAP
C0
C0
00
C0
C0
00
C0
C0
ENDCHAR
STARTCHAR uni2508
ENCODING 9480
SWIDTH 1000 0
SWIDTH1 1000 0
BBX 7 1 0 2
BITMAP
AA
ENDCHAR
STARTCHAR uni2509
ENCODING 9481
SWIDTH 1000 0
SWIDTH1 1000 0
BBX 7 2 0 2
BITMAP
AA
AA
ENDCHAR
STARTCHAR uni250A
ENCODING 9482
SWIDTH 1000 0
SWIDTH1 1000 0
BBX 1 7 3 -1
BITMAP
80
00
80
00
80
00
80
ENDCHAR
STARTCHAR uni250B
ENCODING 9483
SWIDTH 1000 0
SWIDTH1 1000 0
BBX 2 7 3 -1
BITMAP
C0
00
C0
00
C0
00
C0
ENDCHAR
STARTCHAR SF010000
ENCODING 9484
SWIDTH 1000 0
SWIDTH1 1000 0
BBX 5 5 3 -2
BITMAP
F8
80
80
80
80
ENDCHAR
STARTCHAR uni250D
ENCODING 9485
SWIDTH 1000 0
SWIDTH1 1000 0
BBX 5 5 3 -2
BITMAP
F8
F8
80
80
80
ENDCHAR
STARTCHAR uni250E
ENCODING 9486
SWIDTH 1000 0
SWIDTH1 1000 0
BBX 5 5 3 -2
BITMAP
F8
C0
C0
C0
C0
ENDCHAR
STARTCHAR uni250F
ENCODING 9487
SWIDTH 1000 0
SWIDTH1 1000 0
BBX 5 5 3 -2
BITMAP
F8
F8
C0
C0
C0
ENDCHAR
STARTCHAR SF030000
ENCODING 9488
SWIDTH 1000 0
SWIDTH1 1000 0
BBX 4 5 0 -2
BITMAP
F0
10
10
10
10
ENDCHAR
STARTCHAR uni2511
ENCODING 9489
SWIDTH 1000 0
SWIDTH1 1000 0
BBX 4 5 0 -2
BITMAP
F0
F0
10
10
10
ENDCHAR
STARTCHAR uni2512
ENCODING 9490
SWIDTH 1000 0
SWIDTH1 1000 0
BBX 5 5 0 -2
BITMAP
F8
18
18
18
18
ENDCHAR
STARTCHAR uni2513
ENCODING 9491
SWIDTH 1000 0
SWIDTH1 1000 0
BBX 5 5 0 -2
BITMAP
F8
F8
18
18
18
ENDCHAR
STARTCHAR SF020000
ENCODING 9492
SWIDTH 1000 0
SWIDTH1 1000 0
BBX 5 4 3 2
BITMAP
80
80
80
F8
ENDCHAR
STARTCHAR uni2515
ENCODING 9493
SWIDTH 1000 0
SWIDTH1 1000 0
BBX 5 5 3 1
BITMAP
80
80
80
F8
F8
ENDCHAR
STARTCHAR uni2516
ENCODING 9494
SWIDTH 1000 0
SWIDTH1 1000 0
BBX 5 4 3 2
BITMAP
C0
C0
C0
F8
ENDCHAR
STARTCHAR uni2517
ENCODING 9495
SWIDTH 1000 0
SWIDTH1 1000 0
BBX 5 5 3 1
BITMAP
C0
C0
C0
F8
F8
ENDCHAR
STARTCHAR SF040000
ENCODING 9496
SWIDTH 1000 0
SWIDTH1 1000 0
BBX 4 4 0 2
BITMAP
10
10
10
F0
ENDCHAR
STARTCHAR uni2519
ENCODING 9497
SWIDTH 1000 0
SWIDTH1 1000 0
BBX 4 5 0 1
BITMAP
10
10
10
F0
F0
ENDCHAR
STARTCHAR uni251A
ENCODING 9498
SWIDTH 1000 0
SWIDTH1 1000 0
BBX 5 4 0 2
BITMAP
18
18
18
F8
ENDCHAR
STARTCHAR uni251B
ENCODING 9499
SWIDTH 1000 0
SWIDTH1 1000 0
BBX 5 5 0 1
BITMAP
18
18
18
F8
F8
ENDCHAR
STARTCHAR SF080000
ENCODING 9500
SWIDTH 1000 0
SWIDTH1 1000 0
BBX 5 8 3 -2
BITMAP
80
80
80
F8
80
80
80
80
ENDCHAR
STARTCHAR uni251D
ENCODING 9501
SWIDTH 1000 0
SWIDTH1 1000 0
BBX 5 8 3 -2
BITMAP
80
80
80
F8
F8
80
80
80
ENDCHAR
STARTCHAR uni251E
ENCODING 9502
SWIDTH 1000 0
SWIDTH1 1000 0
BBX 5 8 3 -2
BITMAP
C0
C0
C0
F8
80
80
80
80
ENDCHAR
STARTCHAR uni251F
ENCODING 9503
SWIDTH 1000 0
SWIDTH1 1000 0
BBX 5 8 3 -2
BITMAP
80
80
80
F8
C0
C0
C0
C0
ENDCHAR
STARTCHAR uni2520
ENCODING 9504
SWIDTH 1000 0
SWIDTH1 1000 0
BBX 5 8 3 -2
BITMAP
C0
C0
C0
F8
C0
C0
C0
C0
ENDCHAR
STARTCHAR uni2521
ENCODING 9505
SWIDTH 1000 0
SWIDTH1 1000 0
BBX 5 8 3 -2
BITMAP
C0
C0
C0
F8
F8
80
80
80
ENDCHAR
STARTCHAR uni2522
ENCODING 9506
SWIDTH 1000 0
SWIDTH1 1000 0
BBX 5 8 3 -2
BITMAP
80
80
80
F8
F8
C0
C0
C0
ENDCHAR
STARTCHAR uni2523
ENCODING 9507
SWIDTH 1000 0
SWIDTH1 1000 0
BBX 5 8 3 -2
BITMAP
C0
C0
C0
F8
F8
C0
C0
C0
ENDCHAR
STARTCHAR SF090000
ENCODING 9508
SWIDTH 1000 0
SWIDTH1 1000 0
BBX 4 8 0 -2
BITMAP
10
10
10
F0
10
10
10
10
ENDCHAR
STARTCHAR uni2525
ENCODING 9509
SWIDTH 1000 0
SWIDTH1 1000 0
BBX 4 8 0 -2
BITMAP
10
10
10
F0
F0
10
10
10
ENDCHAR
STARTCHAR uni2526
ENCODING 9510
SWIDTH 1000 0
SWIDTH1 1000 0
BBX 5 8 0 -2
BITMAP
18
18
18
F8
10
10
10
10
ENDCHAR
STARTCHAR uni2527
ENCODING 9511
SWIDTH 1000 0
SWIDTH1 1000 0
BBX 5 8 0 -2
BITMAP
10
10
10
F8
18
18
18
18
ENDCHAR
STARTCHAR uni2528
ENCODING 9512
SWIDTH 1000 0
SWIDTH1 1000 0
BBX 5 8 0 -2
BITMAP
18
18
18
F8
18
18
18
18
ENDCHAR
STARTCHAR uni2529
ENCODING 9513
SWIDTH 1000 0
SWIDTH1 1000 0
BBX 4 8 0 -2
BITMAP
30
30
30
F0
10
10
10
10
ENDCHAR
STARTCHAR uni252A
ENCODING 9514
SWIDTH 1000 0
SWIDTH1 1000 0
BBX 5 8 0 -2
BITMAP
10
10
10
F8
18
18
18
18
ENDCHAR
STARTCHAR uni252B
ENCODING 9515
SWIDTH 1000 0
SWIDTH1 1000 0
BBX 5 8 0 -2
BITMAP
18
18
18
F8
F8
18
18
18
ENDCHAR
STARTCHAR SF060000
ENCODING 9516
SWIDTH 1000 0
SWIDTH1 1000 0
BBX 8 5 0 -2
BITMAP
FF
10
10
10
10
ENDCHAR
STARTCHAR uni252D
ENCODING 9517
SWIDTH 1000 0
SWIDTH1 1000 0
BBX 8 5 0 -2
BITMAP
FF
F0
10
10
10
ENDCHAR
STARTCHAR uni252E
ENCODING 9518
SWIDTH 1000 0
SWIDTH1 1000 0
BBX 8 5 0 -2
BITMAP
FF
1F
10
10
10
ENDCHAR
STARTCHAR uni252F
ENCODING 9519
SWIDTH 1000 0
SWIDTH1 1000 0
BBX 8 5 0 -2
BITMAP
FF
FF
10
10
10
ENDCHAR
STARTCHAR uni2530
ENCODING 9520
SWIDTH 1000 0
SWIDTH1 1000 0
BBX 8 5 0 -2
BITMAP
FF
18
18
18
18
ENDCHAR
STARTCHAR uni2531
ENCODING 9521
SWIDTH 1000 0
SWIDTH1 1000 0
BBX 8 5 0 -2
BITMAP
FF
F0
10
10
10
ENDCHAR
STARTCHAR uni2532
ENCODING 9522
SWIDTH 1000 0
SWIDTH1 1000 0
BBX 8 5 0 -2
BITMAP
FF
1F
10
10
10
ENDCHAR
STARTCHAR uni2533
ENCODING 9523
SWIDTH 1000 0
SWIDTH1 1000 0
BBX 8 5 0 -2
BITMAP
FF
FF
18
18
18
ENDCHAR
STARTCHAR SF070000
ENCODING 9524
SWIDTH 1000 0
SWIDTH1 1000 0
BBX 8 4 0 2
BITMAP
10
10
10
FF
ENDCHAR
STARTCHAR uni2535
ENCODING 9525
SWIDTH 1000 0
SWIDTH1 1000 0
BBX 8 5 0 1
BITMAP
10
10
10
FF
F0
ENDCHAR
STARTCHAR uni2536
ENCODING 9526
SWIDTH 1000 0
SWIDTH1 1000 0
BBX 8 5 0 1
BITMAP
10
10
10
FF
1F
ENDCHAR
STARTCHAR uni2537
ENCODING 9527
SWIDTH 1000 0
SWIDTH1 1000 0
BBX 8 5 0 1
BITMAP
10
10
10
FF
FF
ENDCHAR
STARTCHAR uni2538
ENCODING 9528
SWIDTH 1000 0
SWIDTH1 1000 0
BBX 8 4 0 2
BITMAP
18
18
18
FF
ENDCHAR
STARTCHAR uni2539
ENCODING 9529
SWIDTH 1000 0
SWIDTH1 1000 0
BBX 8 5 0 1
BITMAP
18
18
18
FF
F8
ENDCHAR
STARTCHAR uni253A
ENCODING 9530
SWIDTH 1000 0
SWIDTH1 1000 0
BBX 8 5 0 1
BITMAP
18
18
18
FF
1F
ENDCHAR
STARTCHAR uni253B
ENCODING 9531
SWIDTH 1000 0
SWIDTH1 1000 0
BBX 8 5 0 1
BITMAP
18
18
18
FF
FF
ENDCHAR
STARTCHAR SF050000
ENCODING 9532
SWIDTH 1000 0
SWIDTH1 1000 0
BBX 8 8 0 -2
BITMAP
10
10
10
FF
10
10
10
10
ENDCHAR
STARTCHAR uni253D
ENCODING 9533
SWIDTH 1000 0
SWIDTH1 1000 0
BBX 8 8 0 -2
BITMAP
10
10
10
FF
F0
10
10
10
ENDCHAR
STARTCHAR uni253E
ENCODING 9534
SWIDTH 1000 0
SWIDTH1 1000 0
BBX 8 8 0 -2
BITMAP
10
10
10
FF
1F
10
10
10
ENDCHAR
STARTCHAR uni253F
ENCODING 9535
SWIDTH 1000 0
SWIDTH1 1000 0
BBX 8 8 0 -2
BITMAP
10
10
10
FF
FF
10
10
10
ENDCHAR
STARTCHAR uni2540
ENCODING 9536
SWIDTH 1000 0
SWIDTH1 1000 0
BBX 8 8 0 -2
BITMAP
18
18
18
FF
10
10
10
10
ENDCHAR
STARTCHAR uni2541
ENCODING 9537
SWIDTH 1000 0
SWIDTH1 1000 0
BBX 8 8 0 -2
BITMAP
10
10
10
FF
18
18
18
18
ENDCHAR
STARTCHAR uni2542
ENCODING 9538
SWIDTH 1000 0
SWIDTH1 1000 0
BBX 8 8 0 -2
BITMAP
18
18
18
FF
18
18
18
18
ENDCHAR
STARTCHAR uni2543
ENCODING 9539
SWIDTH 1000 0
SWIDTH1 1000 0
BBX 8 8 0 -2
BITMAP
18
18
18
FF
10
10
10
10
ENDCHAR
STARTCHAR uni2544
ENCODING 9540
SWIDTH 1000 0
SWIDTH1 1000 0
BBX 8 8 0 -2
BITMAP
18
18
18
FF
1F
10
10
10
ENDCHAR
STARTCHAR uni2545
ENCODING 9541
SWIDTH 1000 0
SWIDTH1 1000 0
BBX 8 8 0 -2
BITMAP
10
10
10
FF
F8
18
18
18
ENDCHAR
STARTCHAR uni2546
ENCODING 9542
SWIDTH 1000 0
SWIDTH1 1000 0
BBX 8 8 0 -2
BITMAP
10
10
10
FF
1F
18
18
18
ENDCHAR
STARTCHAR uni2547
ENCODING 9543
SWIDTH 1000 0
SWIDTH1 1000 0
BBX 8 8 0 -2
BITMAP
18
18
18
FF
FF
10
10
10
ENDCHAR
STARTCHAR uni2548
ENCODING 9544
SWIDTH 1000 0
SWIDTH1 1000 0
BBX 8 8 0 -2
BITMAP
10
10
10
FF
FF
18
18
18
ENDCHAR
STARTCHAR uni2549
ENCODING 9545
SWIDTH 1000 0
SWIDTH1 1000 0
BBX 8 8 0 -2
BITMAP
18
18
18
FF
F8
18
18
18
ENDCHAR
STARTCHAR uni254A
ENCODING 9546
SWIDTH 1000 0
SWIDTH1 1000 0
BBX 8 8 0 -2
BITMAP
18
18
18
FF
1F
18
18
18
ENDCHAR
STARTCHAR uni254B
ENCODING 9547
SWIDTH 1000 0
SWIDTH1 1000 0
BBX 8 8 0 -2
BITMAP
18
18
18
FF
FF
18
18
18
ENDCHAR
STARTCHAR SF430000
ENCODING 9552
SWIDTH 1000 0
SWIDTH1 1000 0
BBX 8 3 0 1
BITMAP
FF
00
FF
ENDCHAR
STARTCHAR SF240000
ENCODING 9553
SWIDTH 1000 0
SWIDTH1 1000 0
BBX 3 8 2 -2
BITMAP
A0
A0
A0
A0
A0
A0
A0
A0
ENDCHAR
STARTCHAR SF510000
ENCODING 9554
SWIDTH 1000 0
SWIDTH1 1000 0
BBX 5 6 3 -2
BITMAP
F8
80
F8
80
80
80
ENDCHAR
STARTCHAR SF520000
ENCODING 9555
SWIDTH 1000 0
SWIDTH1 1000 0
BBX 5 5 3 -2
BITMAP
F8
A0
A0
A0
A0
ENDCHAR
STARTCHAR SF390000
ENCODING 9556
SWIDTH 1000 0
SWIDTH1 1000 0
BBX 6 6 2 -2
BITMAP
FC
80
BC
A0
A0
A0
ENDCHAR
STARTCHAR SF220000
ENCODING 9557
SWIDTH 1000 0
SWIDTH1 1000 0
BBX 4 6 0 -2
BITMAP
F0
10
F0
10
10
10
ENDCHAR
STARTCHAR SF210000
ENCODING 9558
SWIDTH 1000 0
SWIDTH1 1000 0
BBX 5 5 0 -2
BITMAP
F8
28
28
28
28
ENDCHAR
STARTCHAR SF250000
ENCODING 9559
SWIDTH 1000 0
SWIDTH1 1000 0
BBX 5 6 0 -2
BITMAP
F8
08
E8
28
28
28
ENDCHAR
STARTCHAR SF500000
ENCODING 9560
SWIDTH 1000 0
SWIDTH1 1000 0
BBX 5 5 3 1
BITMAP
80
80
F8
80
F8
ENDCHAR
STARTCHAR SF490000
ENCODING 9561
SWIDTH 1000 0
SWIDTH1 1000 0
BBX 6 4 2 2
BITMAP
A0
A0
A0
FC
ENDCHAR
STARTCHAR SF380000
ENCODING 9562
SWIDTH 1000 0
SWIDTH1 1000 0
BBX 6 5 2 1
BITMAP
A0
A0
BC
80
FC
ENDCHAR
STARTCHAR SF280000
ENCODING 9563
SWIDTH 1000 0
SWIDTH1 1000 0
BBX 4 5 0 1
BITMAP
10
10
F0
10
F0
ENDCHAR
STARTCHAR SF270000
ENCODING 9564
SWIDTH 1000 0
SWIDTH1 1000 0
BBX 5 4 0 2
BITMAP
28
28
28
F8
ENDCHAR
STARTCHAR SF260000
ENCODING 9565
SWIDTH 1000 0
SWIDTH1 1000 0
BBX 5 5 0 1
BITMAP
28
28
E8
08
F8
ENDCHAR
STARTCHAR SF360000
ENCODING 9566
SWIDTH 1000 0
SWIDTH1 1000 0
BBX 5 8 3 -2
BITMAP
80
80
F8
80
F8
80
80
80
ENDCHAR
STARTCHAR SF370000
ENCODING 9567
SWIDTH 1000 0
SWIDTH1 1000 0
BBX 6 8 2 -2
BITMAP
A0
A0
A0
BC
A0
A0
A0
A0
ENDCHAR
STARTCHAR SF420000
ENCODING 9568
SWIDTH 1000 0
SWIDTH1 1000 0
BBX 6 8 2 -2
BITMAP
A0
A0
BC
80
BC
A0
A0
A0
ENDCHAR
STARTCHAR SF190000
ENCODING 9569
SWIDTH 1000 0
SWIDTH1 1000 0
BBX 4 8 0 -2
BITMAP
10
10
F0
10
F0
10
10
10
ENDCHAR
STARTCHAR SF200000
ENCODING 9570
SWIDTH 1000 0
SWIDTH1 1000 0
BBX 5 8 0 -2
BITMAP
28
28
28
E8
28
28
28
28
ENDCHAR
STARTCHAR SF230000
ENCODING 9571
SWIDTH 1000 0
SWIDTH1 1000 0
BBX 5 8 0 -2
BITMAP
28
28
E8
08
E8
28
28
28
ENDCHAR
STARTCHAR SF470000
ENCODING 9572
SWIDTH 1000 0
SWIDTH1 1000 0
BBX 8 6 0 -2
BITMAP
FF
00
FF
10
10
10
ENDCHAR
STARTCHAR SF480000
ENCODING 9573
SWIDTH 1000 0
SWIDTH1 1000 0
BBX 8 5 0 -2
BITMAP
FF
28
28
28
28
ENDCHAR
STARTCHAR SF410000
ENCODING 9574
SWIDTH 1000 0
SWIDTH1 1000 0
BBX 8 6 0 -2
BITMAP
FF
00
EF
28
28
28
ENDCHAR
STARTCHAR SF450000
ENCODING 9575
SWIDTH 1000 0
SWIDTH1 1000 0
BBX 8 5 0 1
BITMAP
10
10
FF
00
FF
ENDCHAR
STARTCHAR SF460000
ENCODING 9576
SWIDTH 1000 0
SWIDTH1 1000 0
BBX 8 4 0 2
BITMAP
28
28
28
FF
ENDCHAR
STARTCHAR SF400000
ENCODING 9577
SWIDTH 1000 0
SWIDTH1 1000 0
BBX 8 5 0 1
BITMAP
28
28
EF
00
FF
ENDCHAR
STARTCHAR SF540000
ENCODING 9578
SWIDTH 1000 0
SWIDTH1 1000 0
BBX 8 8 0 -2
BITMAP
10
10
FF
10
FF
10
10
10
ENDCHAR
STARTCHAR SF530000
ENCODING 9579
SWIDTH 1000 0
SWIDTH1 1000 0
BBX 8 8 0 -2
BITMAP
28
28
28
FF
28
28
28
28
ENDCHAR
STARTCHAR SF440000
ENCODING 9580
SWIDTH 1000 0
SWIDTH1 1000 0
BBX 8 8 0 -2
BITMAP
28
28
EF
00
EF
28
28
28
ENDCHAR
STARTCHAR uni256D
ENCODING 9581
SWIDTH 1000 0
SWIDTH1 1000 0
BBX 5 5 3 -2
BITMAP
38
40
80
80
80
ENDCHAR
STARTCHAR uni256E
ENCODING 9582
SWIDTH 1000 0
SWIDTH1 1000 0
BBX 4 5 0 -2
BITMAP
C0
20
10
10
10
ENDCHAR
STARTCHAR uni256F
ENCODING 9583
SWIDTH 1000 0
SWIDTH1 1000 0
BBX 4 4 0 2
BITMAP
10
10
20
C0
ENDCHAR
STARTCHAR uni2570
ENCODING 9584
SWIDTH 1000 0
SWIDTH1 1000 0
BBX 5 4 3 2
BITMAP
80
80
40
38
ENDCHAR
STARTCHAR uni2571
ENCODING 9585
SWIDTH 1000 0
SWIDTH1 1000 0
BBX 8 8 0 -2
BITMAP
01
02
04
08
10
20
40
80
ENDCHAR
STARTCHAR uni2572
ENCODING 9586
SWIDTH 1000 0
SWIDTH1 1000 0
BBX 8 8 0 -2
BITMAP
80
40
20
10
08
04
02
01
ENDCHAR
STARTCHAR uni2573
ENCODING 9587
SWIDTH 1000 0
SWIDTH1 1000 0
BBX 8 8 0 -2
BITMAP
81
42
24
18
18
24
42
81
ENDCHAR
STARTCHAR uni2581
ENCODING 9601
SWIDTH 1000 0
SWIDTH1 1000 0
BBX 8 1 0 -2
BITMAP
FF
ENDCHAR
STARTCHAR uni2582
ENCODING 9602
SWIDTH 1000 0
SWIDTH1 1000 0
BBX 8 2 0 -2
BITMAP
FF
FF
ENDCHAR
STARTCHAR uni2583
ENCODING 9603
SWIDTH 1000 0
SWIDTH1 1000 0
BBX 8 3 0 -2
BITMAP
FF
FF
FF
ENDCHAR
STARTCHAR dnblock
ENCODING 9604
SWIDTH 1000 0
SWIDTH1 1000 0
BBX 8 4 0 -2
BITMAP
FF
FF
FF
FF
ENDCHAR
STARTCHAR uni2585
ENCODING 9605
SWIDTH 1000 0
SWIDTH1 1000 0
BBX 8 5 0 -2
BITMAP
FF
FF
FF
FF
FF
ENDCHAR
STARTCHAR uni2586
ENCODING 9606
SWIDTH 1000 0
SWIDTH1 1000 0
BBX 8 6 0 -2
BITMAP
FF
FF
FF
FF
FF
FF
ENDCHAR
STARTCHAR uni2587
ENCODING 9607
SWIDTH 1000 0
SWIDTH1 1000 0
BBX 8 7 0 -2
BITMAP
FF
FF
FF
FF
FF
FF
FF
ENDCHAR
STARTCHAR block
ENCODING 9608
SWIDTH 1000 0
SWIDTH1 1000 0
BBX 8 8 0 -2
BITMAP
FF
FF
FF
FF
FF
FF
FF
FF
ENDCHAR
STARTCHAR uni2589
ENCODING 9609
SWIDTH 1000 0
SWIDTH1 1000 0
BBX 7 8 0 -2
BITMAP
FE
FE
FE
FE
FE
FE
FE
FE
ENDCHAR
STARTCHAR uni258A
ENCODING 9610
SWIDTH 1000 0
SWIDTH1 1000 0
BBX 6 8 0 -2
BITMAP
FC
FC
FC
FC
FC
FC
FC
FC
ENDCHAR
STARTCHAR uni258B
ENCODING 9611
SWIDTH 1000 0
SWIDTH1 1000 0
BBX 5 8 0 -2
BITMAP
F8
F8
F8
F8
F8
F8
F8
F8
ENDCHAR
STARTCHAR lfblock
ENCODING 9612
SWIDTH 1000 0
SWIDTH1 1000 0
BBX 4 8 0 -2
BITMAP
F0
F0
F0
F0
F0
F0
F0
F0
ENDCHAR
STARTCHAR uni258D
ENCODING 9613
SWIDTH 1000 0
SWIDTH1 1000 0
BBX 3 8 0 -2
BITMAP
E0
E0
E0
E0
E0
E0
E0
E0
ENDCHAR
STARTCHAR uni258E
ENCODING 9614
SWIDTH 1000 0
SWIDTH1 1000 0
BBX 2 8 0 -2
BITMAP
C0
C0
C0
C0
C0
C0
C0
C0
ENDCHAR
STARTCHAR uni258F
ENCODING 9615
SWIDTH 1000 0
SWIDTH1 1000 0
BBX 1 8 0 -2
BITMAP
80
80
80
80
80
80
80
80
ENDCHAR
STARTCHAR dkshade
ENCODING 9619
SWIDTH 1000 0
SWIDTH1 1000 0
BBX 7 7 0 -1
BITMAP
54
FE
54
FE
54
FE
54
ENDCHAR
STARTCHAR uni2594
ENCODING 9620
SWIDTH 1000 0
SWIDTH1 1000 0
BBX 8 1 0 5
BITMAP
FF
ENDCHAR
STARTCHAR uni2595
ENCODING 9621
SWIDTH 1000 0
SWIDTH1 1000 0
BBX 1 8 7 -2
BITMAP
80
80
80
80
80
80
80
80
ENDCHAR
STARTCHAR filledbox
ENCODING 9632
SWIDTH 1000 0
SWIDTH1 1000 0
BBX 7 7 0 -1
BITMAP
FE
FE
FE
FE
FE
FE
FE
ENDCHAR
STARTCHAR H22073
ENCODING 9633
SWIDTH 1000 0
SWIDTH1 1000 0
BBX 7 7 0 -1
BITMAP
FE
82
82
82
82
82
FE
ENDCHAR
STARTCHAR triagup
ENCODING 9650
SWIDTH 1000 0
SWIDTH1 1000 0
BBX 7 7 0 -1
BITMAP
10
10
38
38
7C
7C
FE
ENDCHAR
STARTCHAR uni25B3
ENCODING 9651
SWIDTH 1000 0
SWIDTH1 1000 0
BBX 7 7 0 -1
BITMAP
10
10
28
28
44
44
FE
ENDCHAR
STARTCHAR triagdn
ENCODING 9660
SWIDTH 1000 0
SWIDTH1 1000 0
BBX 7 7 0 -1
BITMAP
FE
7C
7C
38
38
10
10
ENDCHAR
STARTCHAR uni25BD
ENCODING 9661
SWIDTH 1000 0
SWIDTH1 1000 0
BBX 7 7 0 -1
BITMAP
FE
44
44
28
28
10
10
ENDCHAR
STARTCHAR uni25C6
ENCODING 9670
SWIDTH 1000 0
SWIDTH1 1000 0
BBX 7 7 0 -1
BITMAP
10
38
7C
FE
7C
38
10
ENDCHAR
STARTCHAR uni25C7
ENCODING 9671
SWIDTH 1000 0
SWIDTH1 1000 0
BBX 7 7 0 -1
BITMAP
10
28
44
82
44
28
10
ENDCHAR
STARTCHAR circle
ENCODING 9675
SWIDTH 1000 0
SWIDTH1 1000 0
BBX 7 7 0 -1
BITMAP
38
44
82
82
82
44
38
ENDCHAR
STARTCHAR uni25CE
ENCODING 9678
SWIDTH 1000 0
SWIDTH1 1000 0
BBX 7 7 0 -1
BITMAP
38
44
BA
AA
BA
44
38
ENDCHAR
STARTCHAR H18533
ENCODING 9679
SWIDTH 1000 0
SWIDTH1 1000 0
BBX 7 7 0 -1
BITMAP
38
7C
FE
FE
FE
7C
38
ENDCHAR
STARTCHAR uni25E2
ENCODING 9698
SWIDTH 1000 0
SWIDTH1 1000 0
BBX 8 8 0 -2
BITMAP
01
03
07
0F
1F
3F
7F
FF
ENDCHAR
STARTCHAR uni25E3
ENCODING 9699
SWIDTH 1000 0
SWIDTH1 1000 0
BBX 8 8 0 -2
BITMAP
80
C0
E0
F0
F8
FC
FE
FF
ENDCHAR
STARTCHAR uni25E4
ENCODING 9700
SWIDTH 1000 0
SWIDTH1 1000 0
BBX 8 8 0 -2
BITMAP
FF
FE
FC
F8
F0
E0
C0
80
ENDCHAR
STARTCHAR uni25E5
ENCODING 9701
SWIDTH 1000 0
SWIDTH1 1000 0
BBX 8 8 0 -2
BITMAP
FF
7F
3F
1F
0F
07
03
01
ENDCHAR
STARTCHAR uni25EF
ENCODING 9711
SWIDTH 2089 0
DWIDTH 4 0
SWIDTH1 3906 0
BBX 7 7 0 -1
BITMAP
38
44
82
82
82
44
38
ENDCHAR
STARTCHAR uni2605
ENCODING 9733
SWIDTH 1000 0
SWIDTH1 1000 0
BBX 7 7 0 -1
BITMAP
10
10
FE
7C
38
6C
44
ENDCHAR
STARTCHAR uni2606
ENCODING 9734
SWIDTH 1000 0
SWIDTH1 1000 0
BBX 7 7 0 -1
BITMAP
10
10
EE
44
28
54
6C
ENDCHAR
STARTCHAR uni2609
ENCODING 9737
SWIDTH 1000 0
SWIDTH1 1000 0
BBX 5 5 1 0
BITMAP
70
88
A8
88
70
ENDCHAR
STARTCHAR female
ENCODING 9792
SWIDTH 1000 0
SWIDTH1 1000 0
BBX 5 7 1 -1
BITMAP
70
88
88
70
20
F8
20
ENDCHAR
STARTCHAR male
ENCODING 9794
SWIDTH 1000 0
SWIDTH1 1000 0
BBX 7 7 0 -1
BITMAP
1E
06
0A
72
90
90
60
ENDCHAR
STARTCHAR musicalnote
ENCODING 9834
SWIDTH 2089 0
DWIDTH 4 0
SWIDTH1 3906 0
BBX 5 7 1 -1
BITMAP
20
30
28
28
60
E0
C0
ENDCHAR
STARTCHAR uni266D
ENCODING 9837
SWIDTH 2089 0
DWIDTH 4 0
SWIDTH1 3906 0
BBX 4 7 2 -1
BITMAP
80
80
A0
D0
90
A0
C0
ENDCHAR
STARTCHAR uni266F
ENCODING 9839
SWIDTH 2089 0
DWIDTH 4 0
SWIDTH1 3906 0
BBX 6 7 1 -1
BITMAP
08
4C
78
CC
78
C8
40
ENDCHAR
STARTCHAR uni2E81
ENCODING 11905
SWIDTH 1000 0
SWIDTH1 1000 0
BBX 7 7 0 -1
BITMAP
7E
40
40
40
40
40
80
ENDCHAR
STARTCHAR uni2E84
ENCODING 11908
SWIDTH 1000 0
SWIDTH1 1000 0
BBX 7 7 0 -1
BITMAP
F8
08
08
08
08
0A
04
ENDCHAR
STARTCHAR uni2E88
ENCODING 11912
SWIDTH 1000 0
SWIDTH1 1000 0
BBX 6 3 0 3
BITMAP
20
7C
88
ENDCHAR
STARTCHAR uni2E8B
ENCODING 11915
SWIDTH 1000 0
SWIDTH1 1000 0
BBX 7 5 0 -1
BITMAP
F8
88
9A
82
FE
ENDCHAR
STARTCHAR uni2E8C
ENCODING 11916
SWIDTH 1000 0
SWIDTH1 1000 0
BBX 7 3 0 3
BITMAP
10
92
54
ENDCHAR
STARTCHAR uni2E97
ENCODING 11927
SWIDTH 1000 0
SWIDTH1 1000 0
BBX 7 5 0 -1
BITMAP
20
20
AA
AA
60
ENDCHAR
STARTCHAR uni2EA7
ENCODING 11943
SWIDTH 1000 0
SWIDTH1 1000 0
BBX 7 5 0 1
BITMAP
50
7E
90
10
FE
ENDCHAR
STARTCHAR uni2EAA
ENCODING 11946
SWIDTH 1000 0
SWIDTH1 1000 0
BBX 4 7 0 -1
BITMAP
F0
10
A0
B0
A0
A0
F0
ENDCHAR
STARTCHAR uni2EAE
ENCODING 11950
SWIDTH 1000 0
SWIDTH1 1000 0
BBX 7 3 0 3
BITMAP
48
6E
B4
ENDCHAR
STARTCHAR uni2EB3
ENCODING 11955
SWIDTH 1000 0
SWIDTH1 1000 0
BBX 7 4 0 2
BITMAP
FE
AA
28
CE
ENDCHAR
STARTCHAR uni2EB6
ENCODING 11958
SWIDTH 1000 0
SWIDTH1 1000 0
BBX 7 7 0 -1
BITMAP
44
FE
10
FE
20
FE
40
ENDCHAR
STARTCHAR uni2EB7
ENCODING 11959
SWIDTH 1000 0
SWIDTH1 1000 0
BBX 7 6 0 0
BITMAP
28
FE
10
FE
10
FE
ENDCHAR
STARTCHAR uni2EBB
ENCODING 11963
SWIDTH 1000 0
SWIDTH1 1000 0
BBX 7 6 0 0
BITMAP
10
7C
16
7C
10
FE
ENDCHAR
STARTCHAR uni2ECA
ENCODING 11978
SWIDTH 1000 0
SWIDTH1 1000 0
BBX 4 7 0 -1
BITMAP
F0
90
F0
20
B0
A0
F0
ENDCHAR
STARTCHAR uni2FF0
ENCODING 12272
SWIDTH 1000 0
SWIDTH1 1000 0
BBX 7 7 0 -1
BITMAP
AA
10
82
10
82
10
AA
ENDCHAR
STARTCHAR uni2FF1
ENCODING 12273
SWIDTH 1000 0
SWIDTH1 1000 0
BBX 7 7 0 -1
BITMAP
AA
00
82
54
82
00
AA
ENDCHAR
STARTCHAR uni2FF2
ENCODING 12274
SWIDTH 1000 0
SWIDTH1 1000 0
BBX 7 7 0 -1
BITMAP
AA
28
82
28
82
28
AA
ENDCHAR
STARTCHAR uni2FF3
ENCODING 12275
SWIDTH 1000 0
SWIDTH1 1000 0
BBX 7 7 0 -1
BITMAP
AA
00
D6
00
D6
00
AA
ENDCHAR
STARTCHAR uni2FF4
ENCODING 12276
SWIDTH 1000 0
SWIDTH1 1000 0
BBX 7 7 0 -1
BITMAP
AA
00
BA
28
BA
00
AA
ENDCHAR
STARTCHAR uni2FF5
ENCODING 12277
SWIDTH 1000 0
SWIDTH1 1000 0
BBX 7 7 0 -1
BITMAP
AA
00
BA
28
82
28
AA
ENDCHAR
STARTCHAR uni2FF6
ENCODING 12278
SWIDTH 1000 0
SWIDTH1 1000 0
BBX 7 7 0 -1
BITMAP
AA
00
AA
38
82
00
AA
ENDCHAR
STARTCHAR uni2FF7
ENCODING 12279
SWIDTH 1000 0
SWIDTH1 1000 0
BBX 7 7 0 -1
BITMAP
AA
00
9A
10
9A
00
AA
ENDCHAR
STARTCHAR uni2FF8
ENCODING 12280
SWIDTH 1000 0
SWIDTH1 1000 0
BBX 7 7 0 -1
BITMAP
AA
00
B6
20
82
20
AA
ENDCHAR
STARTCHAR uni2FF9
ENCODING 12281
SWIDTH 1000 0
SWIDTH1 1000 0
BBX 7 7 0 -1
BITMAP
AA
00
DA
08
82
08
AA
ENDCHAR
STARTCHAR uni2FFA
ENCODING 12282
SWIDTH 1000 0
SWIDTH1 1000 0
BBX 7 7 0 -1
BITMAP
AA
20
82
20
B6
00
AA
ENDCHAR
STARTCHAR uni2FFB
ENCODING 12283
SWIDTH 1000 0
SWIDTH1 1000 0
BBX 7 7 0 -1
BITMAP
A8
00
AA
00
AA
00
2A
ENDCHAR
STARTCHAR uni3001
ENCODING 12289
SWIDTH 1000 0
SWIDTH1 1000 0
BBX 2 2 0 -1
BITMAP
80
40
ENDCHAR
STARTCHAR uni3002
ENCODING 12290
SWIDTH 1000 0
SWIDTH1 1000 0
BBX 3 3 0 -1
BITMAP
40
A0
40
ENDCHAR
STARTCHAR uni3003
ENCODING 12291
SWIDTH 1000 0
SWIDTH1 1000 0
BBX 5 4 1 0
BITMAP
48
48
48
90
ENDCHAR
STARTCHAR uni3005
ENCODING 12293
SWIDTH 1000 0
SWIDTH1 1000 0
BBX 6 6 1 -1
BITMAP
20
3C
44
A8
10
08
ENDCHAR
STARTCHAR uni3006
ENCODING 12294
SWIDTH 1000 0
SWIDTH1 1000 0
BBX 7 7 0 -1
BITMAP
02
04
28
50
A8
C0
80
ENDCHAR
STARTCHAR uni3007
ENCODING 12295
SWIDTH 1000 0
SWIDTH1 1000 0
BBX 7 6 0 -1
BITMAP
38
44
82
82
44
38
ENDCHAR
STARTCHAR uni3008
ENCODING 12296
SWIDTH 1000 0
SWIDTH1 1000 0
BBX 4 7 3 -1
BITMAP
10
20
40
80
40
20
10
ENDCHAR
STARTCHAR uni3009
ENCODING 12297
SWIDTH 1000 0
SWIDTH1 1000 0
BBX 4 7 0 -1
BITMAP
80
40
20
10
20
40
80
ENDCHAR
STARTCHAR uni300A
ENCODING 12298
SWIDTH 1000 0
SWIDTH1 1000 0
BBX 6 7 1 -1
BITMAP
14
28
50
A0
50
28
14
ENDCHAR
STARTCHAR uni300B
ENCODING 12299
SWIDTH 1000 0
SWIDTH1 1000 0
BBX 6 7 0 -1
BITMAP
A0
50
28
14
28
50
A0
ENDCHAR
STARTCHAR uni300C
ENCODING 12300
SWIDTH 1000 0
SWIDTH1 1000 0
BBX 4 6 3 0
BITMAP
F0
80
80
80
80
80
ENDCHAR
STARTCHAR uni300D
ENCODING 12301
SWIDTH 1000 0
SWIDTH1 1000 0
BBX 4 6 0 -1
BITMAP
10
10
10
10
10
F0
ENDCHAR
STARTCHAR uni300E
ENCODING 12302
SWIDTH 1000 0
SWIDTH1 1000 0
BBX 5 7 2 -1
BITMAP
F8
88
B8
A0
A0
A0
E0
ENDCHAR
STARTCHAR uni300F
ENCODING 12303
SWIDTH 1000 0
SWIDTH1 1000 0
BBX 5 7 0 -1
BITMAP
38
28
28
28
E8
88
F8
ENDCHAR
STARTCHAR uni3010
ENCODING 12304
SWIDTH 1000 0
SWIDTH1 1000 0
BBX 3 7 4 -1
BITMAP
E0
C0
80
80
80
C0
E0
ENDCHAR
STARTCHAR uni3011
ENCODING 12305
SWIDTH 1000 0
SWIDTH1 1000 0
BBX 3 7 0 -1
BITMAP
E0
60
20
20
20
60
E0
ENDCHAR
STARTCHAR uni3012
ENCODING 12306
SWIDTH 1000 0
SWIDTH1 1000 0
BBX 7 7 0 -1
BITMAP
FE
00
FE
10
10
10
10
ENDCHAR
STARTCHAR uni3013
ENCODING 12307
SWIDTH 1000 0
SWIDTH1 1000 0
BBX 7 5 0 0
BITMAP
FE
FE
00
FE
FE
ENDCHAR
STARTCHAR uni3014
ENCODING 12308
SWIDTH 1000 0
SWIDTH1 1000 0
BBX 4 7 3 -1
BITMAP
30
C0
80
80
80
C0
30
ENDCHAR
STARTCHAR uni3015
ENCODING 12309
SWIDTH 1000 0
SWIDTH1 1000 0
BBX 4 7 0 -1
BITMAP
C0
30
10
10
10
30
C0
ENDCHAR
STARTCHAR uni3016
ENCODING 12310
SWIDTH 1000 0
SWIDTH1 1000 0
BBX 4 7 2 -1
BITMAP
F0
90
A0
A0
A0
90
F0
ENDCHAR
STARTCHAR uni3017
ENCODING 12311
SWIDTH 1000 0
SWIDTH1 1000 0
BBX 4 7 1 -1
BITMAP
F0
90
50
50
50
90
F0
ENDCHAR
STARTCHAR uni301D
ENCODING 12317
SWIDTH 1000 0
SWIDTH1 1000 0
BBX 4 2 3 4
BITMAP
A0
50
ENDCHAR
STARTCHAR uni301E
ENCODING 12318
SWIDTH 1000 0
SWIDTH1 1000 0
BBX 4 2 0 4
BITMAP
50
A0
ENDCHAR
STARTCHAR uni3021
ENCODING 12321
SWIDTH 1000 0
SWIDTH1 1000 0
BBX 2 7 3 -1
BITMAP
C0
80
80
80
80
80
80
ENDCHAR
STARTCHAR uni3022
ENCODING 12322
SWIDTH 1000 0
SWIDTH1 1000 0
BBX 6 7 1 -1
BITMAP
0C
C8
88
88
88
88
08
ENDCHAR
STARTCHAR uni3023
ENCODING 12323
SWIDTH 1000 0
SWIDTH1 1000 0
BBX 7 7 0 -1
BITMAP
C6
94
94
94
94
94
84
ENDCHAR
STARTCHAR uni3024
ENCODING 12324
SWIDTH 1000 0
SWIDTH1 1000 0
BBX 6 7 1 -1
BITMAP
04
04
44
28
10
28
C8
ENDCHAR
STARTCHAR uni3025
ENCODING 12325
SWIDTH 1000 0
SWIDTH1 1000 0
BBX 6 7 1 -1
BITMAP
44
88
90
70
88
88
70
ENDCHAR
STARTCHAR uni3026
ENCODING 12326
SWIDTH 1000 0
SWIDTH1 1000 0
BBX 7 3 0 3
BITMAP
18
10
FE
ENDCHAR
STARTCHAR uni3027
ENCODING 12327
SWIDTH 1000 0
SWIDTH1 1000 0
BBX 7 5 0 1
BITMAP
18
10
FE
00
FE
ENDCHAR
STARTCHAR uni3028
ENCODING 12328
SWIDTH 1000 0
SWIDTH1 1000 0
BBX 7 7 0 -1
BITMAP
18
10
FE
00
FE
00
FE
ENDCHAR
STARTCHAR uni3029
ENCODING 12329
SWIDTH 1000 0
SWIDTH1 1000 0
BBX 5 7 1 -1
BITMAP
20
40
78
88
50
20
D0
ENDCHAR
STARTCHAR uni303E
ENCODING 12350
SWIDTH 1000 0
SWIDTH1 1000 0
BBX 7 7 0 -1
BITMAP
AA
00
BA
10
BA
00
AA
ENDCHAR
STARTCHAR uni3041
ENCODING 12353
SWIDTH 1000 0
SWIDTH1 1000 0
BBX 6 6 1 -1
BITMAP
20
78
20
78
B4
64
ENDCHAR
STARTCHAR uni3042
ENCODING 12354
SWIDTH 1000 0
SWIDTH1 1000 0
BBX 7 7 0 -1
BITMAP
20
7C
20
3C
6A
B2
64
ENDCHAR
STARTCHAR uni3043
ENCODING 12355
SWIDTH 1000 0
SWIDTH1 1000 0
BBX 5 5 1 -1
BITMAP
90
88
88
A0
40
ENDCHAR
STARTCHAR uni3044
ENCODING 12356
SWIDTH 1000 0
SWIDTH1 1000 0
BBX 7 6 0 -1
BITMAP
88
84
82
82
50
20
ENDCHAR
STARTCHAR uni3045
ENCODING 12357
SWIDTH 1000 0
SWIDTH1 1000 0
BBX 5 6 1 -1
BITMAP
70
00
70
88
10
60
ENDCHAR
STARTCHAR uni3046
ENCODING 12358
SWIDTH 1000 0
SWIDTH1 1000 0
BBX 6 7 1 -1
BITMAP
78
00
78
84
04
08
70
ENDCHAR
STARTCHAR uni3047
ENCODING 12359
SWIDTH 1000 0
SWIDTH1 1000 0
BBX 5 6 1 -1
BITMAP
70
00
F0
20
60
98
ENDCHAR
STARTCHAR uni3048
ENCODING 12360
SWIDTH 1000 0
SWIDTH1 1000 0
BBX 6 7 1 -1
BITMAP
78
00
F8
10
30
50
8C
ENDCHAR
STARTCHAR uni3049
ENCODING 12361
SWIDTH 1000 0
SWIDTH1 1000 0
BBX 5 6 1 -1
BITMAP
40
E8
40
70
C8
50
ENDCHAR
STARTCHAR uni304A
ENCODING 12362
SWIDTH 1000 0
SWIDTH1 1000 0
BBX 7 7 0 -1
BITMAP
20
F4
22
3C
62
A2
6C
ENDCHAR
STARTCHAR uni304B
ENCODING 12363
SWIDTH 1000 0
SWIDTH1 1000 0
BBX 7 7 0 -1
BITMAP
20
20
F4
2A
4A
48
B0
ENDCHAR
STARTCHAR uni304C
ENCODING 12364
SWIDTH 1000 0
SWIDTH1 1000 0
BBX 7 7 0 -1
BITMAP
2A
20
F4
2A
4A
48
B0
ENDCHAR
STARTCHAR uni304D
ENCODING 12365
SWIDTH 1000 0
SWIDTH1 1000 0
BBX 6 7 1 -1
BITMAP
20
F8
10
FC
48
80
78
ENDCHAR
STARTCHAR uni304E
ENCODING 12366
SWIDTH 1000 0
SWIDTH1 1000 0
BBX 6 7 1 -1
BITMAP
28
F8
10
FC
48
80
78
ENDCHAR
STARTCHAR uni304F
ENCODING 12367
SWIDTH 1000 0
SWIDTH1 1000 0
BBX 5 7 1 -1
BITMAP
08
10
60
80
60
10
08
ENDCHAR
STARTCHAR uni3050
ENCODING 12368
SWIDTH 1000 0
SWIDTH1 1000 0
BBX 6 7 1 -1
BITMAP
08
10
6C
80
60
10
08
ENDCHAR
STARTCHAR uni3051
ENCODING 12369
SWIDTH 1000 0
SWIDTH1 1000 0
BBX 7 7 0 -1
BITMAP
88
88
BE
88
88
88
10
ENDCHAR
STARTCHAR uni3052
ENCODING 12370
SWIDTH 1000 0
SWIDTH1 1000 0
BBX 7 7 0 -1
BITMAP
8A
88
BE
88
88
88
10
ENDCHAR
STARTCHAR uni3053
ENCODING 12371
SWIDTH 1000 0
SWIDTH1 1000 0
BBX 6 6 1 -1
BITMAP
78
00
00
40
80
7C
ENDCHAR
STARTCHAR uni3054
ENCODING 12372
SWIDTH 1000 0
SWIDTH1 1000 0
BBX 6 7 1 -1
BITMAP
14
78
00
00
40
80
7C
ENDCHAR
STARTCHAR uni3055
ENCODING 12373
SWIDTH 1000 0
SWIDTH1 1000 0
BBX 6 7 1 -1
BITMAP
10
10
FC
08
48
80
78
ENDCHAR
STARTCHAR uni3056
ENCODING 12374
SWIDTH 1000 0
SWIDTH1 1000 0
BBX 6 7 1 -1
BITMAP
14
10
FC
08
48
80
78
ENDCHAR
STARTCHAR uni3057
ENCODING 12375
SWIDTH 1000 0
SWIDTH1 1000 0
BBX 5 7 2 -1
BITMAP
80
80
80
80
80
88
70
ENDCHAR
STARTCHAR uni3058
ENCODING 12376
SWIDTH 1000 0
SWIDTH1 1000 0
BBX 5 7 2 -1
BITMAP
A8
80
80
80
80
88
70
ENDCHAR
STARTCHAR uni3059
ENCODING 12377
SWIDTH 1000 0
SWIDTH1 1000 0
BBX 7 7 0 -1
BITMAP
08
FE
18
28
18
08
10
ENDCHAR
STARTCHAR uni305A
ENCODING 12378
SWIDTH 1000 0
SWIDTH1 1000 0
BBX 7 7 0 -1
BITMAP
0A
FE
18
28
18
08
10
ENDCHAR
STARTCHAR uni305B
ENCODING 12379
SWIDTH 1000 0
SWIDTH1 1000 0
BBX 7 7 0 -1
BITMAP
24
24
FE
24
2C
20
1E
ENDCHAR
STARTCHAR uni305C
ENCODING 12380
SWIDTH 1000 0
SWIDTH1 1000 0
BBX 7 7 0 -1
BITMAP
26
24
FE
24
2C
20
1E
ENDCHAR
STARTCHAR uni305D
ENCODING 12381
SWIDTH 1000 0
SWIDTH1 1000 0
BBX 6 7 1 -1
BITMAP
78
10
20
FC
20
20
18
ENDCHAR
STARTCHAR uni305E
ENCODING 12382
SWIDTH 1000 0
SWIDTH1 1000 0
BBX 6 7 1 -1
BITMAP
78
14
20
FC
20
20
18
ENDCHAR
STARTCHAR uni305F
ENCODING 12383
SWIDTH 1000 0
SWIDTH1 1000 0
BBX 7 7 0 -1
BITMAP
20
F0
2E
40
48
50
8E
ENDCHAR
STARTCHAR uni3060
ENCODING 12384
SWIDTH 1000 0
SWIDTH1 1000 0
BBX 7 7 0 -1
BITMAP
2A
F0
2E
40
48
50
8E
ENDCHAR
STARTCHAR uni3061
ENCODING 12385
SWIDTH 1000 0
SWIDTH1 1000 0
BBX 6 7 1 -1
BITMAP
10
FC
20
38
44
04
38
ENDCHAR
STARTCHAR uni3062
ENCODING 12386
SWIDTH 1000 0
SWIDTH1 1000 0
BBX 6 7 1 -1
BITMAP
14
FC
20
38
44
04
38
ENDCHAR
STARTCHAR uni3063
ENCODING 12387
SWIDTH 1000 0
SWIDTH1 1000 0
BBX 5 4 1 -1
BITMAP
30
C8
08
30
ENDCHAR
STARTCHAR uni3064
ENCODING 12388
SWIDTH 1000 0
SWIDTH1 1000 0
BBX 7 5 0 0
BITMAP
3C
C2
02
02
1C
ENDCHAR
STARTCHAR uni3065
ENCODING 12389
SWIDTH 1000 0
SWIDTH1 1000 0
BBX 7 6 0 0
BITMAP
0A
3C
C2
02
02
1C
ENDCHAR
STARTCHAR uni3066
ENCODING 12390
SWIDTH 1000 0
SWIDTH1 1000 0
BBX 6 7 1 -1
BITMAP
1C
E8
10
20
20
10
0C
ENDCHAR
STARTCHAR uni3067
ENCODING 12391
SWIDTH 1000 0
SWIDTH1 1000 0
BBX 6 7 1 -1
BITMAP
1C
E8
14
20
20
10
0C
ENDCHAR
STARTCHAR uni3068
ENCODING 12392
SWIDTH 1000 0
SWIDTH1 1000 0
BBX 6 7 1 -1
BITMAP
40
40
4C
30
40
80
7C
ENDCHAR
STARTCHAR uni3069
ENCODING 12393
SWIDTH 1000 0
SWIDTH1 1000 0
BBX 6 7 1 -1
BITMAP
54
40
4C
30
40
80
7C
ENDCHAR
STARTCHAR uni306A
ENCODING 12394
SWIDTH 1000 0
SWIDTH1 1000 0
BBX 7 7 0 -1
BITMAP
20
F4
22
44
9C
26
18
ENDCHAR
STARTCHAR uni306B
ENCODING 12395
SWIDTH 1000 0
SWIDTH1 1000 0
BBX 7 7 0 -1
BITMAP
80
9C
80
80
90
A0
9E
ENDCHAR
STARTCHAR uni306C
ENCODING 12396
SWIDTH 1000 0
SWIDTH1 1000 0
BBX 7 7 0 -1
BITMAP
08
48
5C
6A
B2
A6
56
ENDCHAR
STARTCHAR uni306D
ENCODING 12397
SWIDTH 1000 0
SWIDTH1 1000 0
BBX 7 7 0 -1
BITMAP
20
2C
F2
22
66
AA
24
ENDCHAR
STARTCHAR uni306E
ENCODING 12398
SWIDTH 1000 0
SWIDTH1 1000 0
BBX 7 6 0 -1
BITMAP
38
54
92
A2
44
18
ENDCHAR
STARTCHAR uni306F
ENCODING 12399
SWIDTH 1000 0
SWIDTH1 1000 0
BBX 7 7 0 -1
BITMAP
84
84
BE
84
9C
A4
9A
ENDCHAR
STARTCHAR uni3070
ENCODING 12400
SWIDTH 1000 0
SWIDTH1 1000 0
BBX 7 7 0 -1
BITMAP
86
84
BE
84
9C
A4
9A
ENDCHAR
STARTCHAR uni3071
ENCODING 12401
SWIDTH 1000 0
SWIDTH1 1000 0
BBX 7 7 0 -1
BITMAP
84
8A
BE
84
9C
A4
9A
ENDCHAR
STARTCHAR uni3072
ENCODING 12402
SWIDTH 1000 0
SWIDTH1 1000 0
BBX 7 7 0 -1
BITMAP
28
E4
26
44
44
44
38
ENDCHAR
STARTCHAR uni3073
ENCODING 12403
SWIDTH 1000 0
SWIDTH1 1000 0
BBX 7 7 0 -1
BITMAP
2A
E4
26
44
44
44
38
ENDCHAR
STARTCHAR uni3074
ENCODING 12404
SWIDTH 1000 0
SWIDTH1 1000 0
BBX 7 7 0 -1
BITMAP
2C
EA
26
44
44
44
38
ENDCHAR
STARTCHAR uni3075
ENCODING 12405
SWIDTH 1000 0
SWIDTH1 1000 0
BBX 7 7 0 -1
BITMAP
10
08
10
10
4C
4A
B2
ENDCHAR
STARTCHAR uni3076
ENCODING 12406
SWIDTH 1000 0
SWIDTH1 1000 0
BBX 7 7 0 -1
BITMAP
16
08
10
10
4C
4A
B2
ENDCHAR
STARTCHAR uni3077
ENCODING 12407
SWIDTH 1000 0
SWIDTH1 1000 0
BBX 7 7 0 -1
BITMAP
14
0A
14
10
4C
4A
B2
ENDCHAR
STARTCHAR uni3078
ENCODING 12408
SWIDTH 1000 0
SWIDTH1 1000 0
BBX 7 4 0 1
BITMAP
20
50
88
06
ENDCHAR
STARTCHAR uni3079
ENCODING 12409
SWIDTH 1000 0
SWIDTH1 1000 0
BBX 7 5 0 1
BITMAP
0A
20
50
88
06
ENDCHAR
STARTCHAR uni307A
ENCODING 12410
SWIDTH 1000 0
SWIDTH1 1000 0
BBX 7 5 0 1
BITMAP
04
2A
54
88
06
ENDCHAR
STARTCHAR uni307B
ENCODING 12411
SWIDTH 1000 0
SWIDTH1 1000 0
BBX 7 7 0 -1
BITMAP
BE
88
BE
88
9C
AA
9A
ENDCHAR
STARTCHAR uni307C
ENCODING 12412
SWIDTH 1000 0
SWIDTH1 1000 0
BBX 7 7 0 -1
BITMAP
8A
BE
88
BE
88
BC
BA
ENDCHAR
STARTCHAR uni307D
ENCODING 12413
SWIDTH 1000 0
SWIDTH1 1000 0
BBX 7 7 0 -1
BITMAP
84
BA
8C
BE
88
BC
BA
ENDCHAR
STARTCHAR uni307E
ENCODING 12414
SWIDTH 1000 0
SWIDTH1 1000 0
BBX 6 7 1 -1
BITMAP
10
FC
10
FC
10
F8
F4
ENDCHAR
STARTCHAR uni307F
ENCODING 12415
SWIDTH 1000 0
SWIDTH1 1000 0
BBX 7 7 0 -1
BITMAP
70
10
24
7C
A6
C4
18
ENDCHAR
STARTCHAR uni3080
ENCODING 12416
SWIDTH 1000 0
SWIDTH1 1000 0
BBX 7 7 0 -1
BITMAP
20
F4
22
60
A0
62
3C
ENDCHAR
STARTCHAR uni3081
ENCODING 12417
SWIDTH 1000 0
SWIDTH1 1000 0
BBX 7 7 0 -1
BITMAP
08
48
5C
6A
B2
A2
54
ENDCHAR
STARTCHAR uni3082
ENCODING 12418
SWIDTH 1000 0
SWIDTH1 1000 0
BBX 6 7 1 -1
BITMAP
20
F8
40
F8
44
44
38
ENDCHAR
STARTCHAR uni3083
ENCODING 12419
SWIDTH 1000 0
SWIDTH1 1000 0
BBX 6 6 1 -1
BITMAP
10
58
E4
28
20
10
ENDCHAR
STARTCHAR uni3084
ENCODING 12420
SWIDTH 1000 0
SWIDTH1 1000 0
BBX 7 7 0 -1
BITMAP
48
5C
E2
24
20
10
10
ENDCHAR
STARTCHAR uni3085
ENCODING 12421
SWIDTH 1000 0
SWIDTH1 1000 0
BBX 5 6 1 -1
BITMAP
20
B0
E8
A8
30
40
ENDCHAR
STARTCHAR uni3086
ENCODING 12422
SWIDTH 1000 0
SWIDTH1 1000 0
BBX 7 7 0 -1
BITMAP
10
BC
D2
92
BC
10
20
ENDCHAR
STARTCHAR uni3087
ENCODING 12423
SWIDTH 1000 0
SWIDTH1 1000 0
BBX 5 6 1 -1
BITMAP
10
10
18
70
90
68
ENDCHAR
STARTCHAR uni3088
ENCODING 12424
SWIDTH 1000 0
SWIDTH1 1000 0
BBX 6 7 1 -1
BITMAP
10
10
1C
10
70
98
64
ENDCHAR
STARTCHAR uni3089
ENCODING 12425
SWIDTH 1000 0
SWIDTH1 1000 0
BBX 6 7 1 -1
BITMAP
60
10
80
B8
C4
04
78
ENDCHAR
STARTCHAR uni308A
ENCODING 12426
SWIDTH 1000 0
SWIDTH1 1000 0
BBX 5 7 1 -1
BITMAP
B0
C8
88
88
08
10
60
ENDCHAR
STARTCHAR uni308B
ENCODING 12427
SWIDTH 1000 0
SWIDTH1 1000 0
BBX 6 7 1 -1
BITMAP
78
10
20
78
84
64
78
ENDCHAR
STARTCHAR uni308C
ENCODING 12428
SWIDTH 1000 0
SWIDTH1 1000 0
BBX 7 7 0 -1
BITMAP
20
2C
F4
24
64
A4
22
ENDCHAR
STARTCHAR uni308D
ENCODING 12429
SWIDTH 1000 0
SWIDTH1 1000 0
BBX 6 7 1 -1
BITMAP
78
10
20
78
84
04
78
ENDCHAR
STARTCHAR uni308E
ENCODING 12430
SWIDTH 1000 0
SWIDTH1 1000 0
BBX 6 6 1 -1
BITMAP
20
28
F4
64
A4
28
ENDCHAR
STARTCHAR uni308F
ENCODING 12431
SWIDTH 1000 0
SWIDTH1 1000 0
BBX 7 7 0 -1
BITMAP
20
2C
F2
22
62
A2
2C
ENDCHAR
STARTCHAR uni3090
ENCODING 12432
SWIDTH 1000 0
SWIDTH1 1000 0
BBX 7 7 0 -1
BITMAP
70
10
3C
52
96
AA
44
ENDCHAR
STARTCHAR uni3091
ENCODING 12433
SWIDTH 1000 0
SWIDTH1 1000 0
BBX 7 7 0 -1
BITMAP
38
10
38
44
18
6C
92
ENDCHAR
STARTCHAR uni3092
ENCODING 12434
SWIDTH 1000 0
SWIDTH1 1000 0
BBX 7 7 0 -1
BITMAP
10
7C
20
76
98
28
1E
ENDCHAR
STARTCHAR uni3093
ENCODING 12435
SWIDTH 1000 0
SWIDTH1 1000 0
BBX 7 7 0 -1
BITMAP
10
10
20
20
50
52
8C
ENDCHAR
STARTCHAR uni309B
ENCODING 12443
SWIDTH 1000 0
SWIDTH1 1000 0
BBX 4 2 0 4
BITMAP
A0
50
ENDCHAR
STARTCHAR uni309C
ENCODING 12444
SWIDTH 1000 0
SWIDTH1 1000 0
BBX 3 3 1 3
BITMAP
40
A0
40
ENDCHAR
STARTCHAR uni309D
ENCODING 12445
SWIDTH 1000 0
SWIDTH1 1000 0
BBX 4 5 2 0
BITMAP
80
40
20
30
40
ENDCHAR
STARTCHAR uni309E
ENCODING 12446
SWIDTH 1000 0
SWIDTH1 1000 0
BBX 5 6 2 0
BITMAP
28
80
40
20
30
40
ENDCHAR
STARTCHAR uni30A1
ENCODING 12449
SWIDTH 1000 0
SWIDTH1 1000 0
BBX 5 5 1 -1
BITMAP
F8
28
30
20
40
ENDCHAR
STARTCHAR uni30A2
ENCODING 12450
SWIDTH 1000 0
SWIDTH1 1000 0
BBX 6 7 1 -1
BITMAP
FC
04
28
30
20
20
40
ENDCHAR
STARTCHAR uni30A3
ENCODING 12451
SWIDTH 1000 0
SWIDTH1 1000 0
BBX 5 5 1 -1
BITMAP
08
10
30
D0
10
ENDCHAR
STARTCHAR uni30A4
ENCODING 12452
SWIDTH 1000 0
SWIDTH1 1000 0
BBX 6 7 1 -1
BITMAP
04
08
10
30
D0
10
10
ENDCHAR
STARTCHAR uni30A5
ENCODING 12453
SWIDTH 1000 0
SWIDTH1 1000 0
BBX 5 5 1 -1
BITMAP
20
F8
88
10
60
ENDCHAR
STARTCHAR uni30A6
ENCODING 12454
SWIDTH 1000 0
SWIDTH1 1000 0
BBX 6 7 1 -1
BITMAP
20
FC
84
04
08
10
60
ENDCHAR
STARTCHAR uni30A7
ENCODING 12455
SWIDTH 1000 0
SWIDTH1 1000 0
BBX 5 4 1 -1
BITMAP
70
20
20
F8
ENDCHAR
STARTCHAR uni30A8
ENCODING 12456
SWIDTH 1000 0
SWIDTH1 1000 0
BBX 7 5 0 0
BITMAP
7C
10
10
10
FE
ENDCHAR
STARTCHAR uni30A9
ENCODING 12457
SWIDTH 1000 0
SWIDTH1 1000 0
BBX 5 5 1 -1
BITMAP
10
F8
30
D0
30
ENDCHAR
STARTCHAR uni30AA
ENCODING 12458
SWIDTH 1000 0
SWIDTH1 1000 0
BBX 7 7 0 -1
BITMAP
08
FE
08
18
28
C8
18
ENDCHAR
STARTCHAR uni30AB
ENCODING 12459
SWIDTH 1000 0
SWIDTH1 1000 0
BBX 6 7 1 -1
BITMAP
20
FC
24
24
24
44
8C
ENDCHAR
STARTCHAR uni30AC
ENCODING 12460
SWIDTH 1000 0
SWIDTH1 1000 0
BBX 6 7 1 -1
BITMAP
24
FC
24
24
24
44
8C
ENDCHAR
STARTCHAR uni30AD
ENCODING 12461
SWIDTH 1000 0
SWIDTH1 1000 0
BBX 6 7 1 -1
BITMAP
20
F8
20
20
FC
10
10
ENDCHAR
STARTCHAR uni30AE
ENCODING 12462
SWIDTH 1000 0
SWIDTH1 1000 0
BBX 6 7 1 -1
BITMAP
28
F8
20
20
FC
10
10
ENDCHAR
STARTCHAR uni30AF
ENCODING 12463
SWIDTH 1000 0
SWIDTH1 1000 0
BBX 6 7 1 -1
BITMAP
20
3C
44
84
08
10
60
ENDCHAR
STARTCHAR uni30B0
ENCODING 12464
SWIDTH 1000 0
SWIDTH1 1000 0
BBX 6 7 1 -1
BITMAP
24
3C
44
84
08
10
60
ENDCHAR
STARTCHAR uni30B1
ENCODING 12465
SWIDTH 1000 0
SWIDTH1 1000 0
BBX 7 7 0 -1
BITMAP
40
7E
48
88
08
10
20
ENDCHAR
STARTCHAR uni30B2
ENCODING 12466
SWIDTH 1000 0
SWIDTH1 1000 0
BBX 7 7 0 -1
BITMAP
4A
7E
48
88
08
10
20
ENDCHAR
STARTCHAR uni30B3
ENCODING 12467
SWIDTH 1000 0
SWIDTH1 1000 0
BBX 6 6 1 -1
BITMAP
FC
04
04
04
04
FC
ENDCHAR
STARTCHAR uni30B4
ENCODING 12468
SWIDTH 1000 0
SWIDTH1 1000 0
BBX 6 7 1 -1
BITMAP
14
FC
04
04
04
04
FC
ENDCHAR
STARTCHAR uni30B5
ENCODING 12469
SWIDTH 1000 0
SWIDTH1 1000 0
BBX 7 7 0 -1
BITMAP
24
FE
24
24
04
08
30
ENDCHAR
STARTCHAR uni30B6
ENCODING 12470
SWIDTH 1000 0
SWIDTH1 1000 0
BBX 7 7 0 -1
BITMAP
2A
FE
24
24
04
08
30
ENDCHAR
STARTCHAR uni30B7
ENCODING 12471
SWIDTH 1000 0
SWIDTH1 1000 0
BBX 6 7 1 -1
BITMAP
80
40
84
44
08
10
E0
ENDCHAR
STARTCHAR uni30B8
ENCODING 12472
SWIDTH 1000 0
SWIDTH1 1000 0
BBX 6 7 1 -1
BITMAP
94
40
84
44
08
10
E0
ENDCHAR
STARTCHAR uni30B9
ENCODING 12473
SWIDTH 1000 0
SWIDTH1 1000 0
BBX 7 6 0 -1
BITMAP
7C
04
08
08
34
C2
ENDCHAR
STARTCHAR uni30BA
ENCODING 12474
SWIDTH 1000 0
SWIDTH1 1000 0
BBX 7 7 0 -1
BITMAP
0A
7C
04
08
08
34
C2
ENDCHAR
STARTCHAR uni30BB
ENCODING 12475
SWIDTH 1000 0
SWIDTH1 1000 0
BBX 7 7 0 -1
BITMAP
20
20
FE
22
24
20
1E
ENDCHAR
STARTCHAR uni30BC
ENCODING 12476
SWIDTH 1000 0
SWIDTH1 1000 0
BBX 7 7 0 -1
BITMAP
2A
20
FE
22
24
20
1E
ENDCHAR
STARTCHAR uni30BD
ENCODING 12477
SWIDTH 1000 0
SWIDTH1 1000 0
BBX 6 7 1 -1
BITMAP
84
44
44
04
08
10
60
ENDCHAR
STARTCHAR uni30BE
ENCODING 12478
SWIDTH 1000 0
SWIDTH1 1000 0
BBX 6 7 1 -1
BITMAP
8C
44
44
04
08
10
60
ENDCHAR
STARTCHAR uni30BF
ENCODING 12479
SWIDTH 1000 0
SWIDTH1 1000 0
BBX 6 7 1 -1
BITMAP
20
3C
44
B4
08
10
60
ENDCHAR
STARTCHAR uni30C0
ENCODING 12480
SWIDTH 1000 0
SWIDTH1 1000 0
BBX 6 7 1 -1
BITMAP
24
3C
44
B4
08
10
60
ENDCHAR
STARTCHAR uni30C1
ENCODING 12481
SWIDTH 1000 0
SWIDTH1 1000 0
BBX 7 7 0 -1
BITMAP
0C
70
10
FE
10
10
20
ENDCHAR
STARTCHAR uni30C2
ENCODING 12482
SWIDTH 1000 0
SWIDTH1 1000 0
BBX 7 7 0 -1
BITMAP
0A
70
10
FE
10
10
20
ENDCHAR
STARTCHAR uni30C3
ENCODING 12483
SWIDTH 1000 0
SWIDTH1 1000 0
BBX 5 4 1 -1
BITMAP
A8
A8
10
60
ENDCHAR
STARTCHAR uni30C4
ENCODING 12484
SWIDTH 1000 0
SWIDTH1 1000 0
BBX 7 6 0 -1
BITMAP
A2
52
52
04
08
30
ENDCHAR
STARTCHAR uni30C5
ENCODING 12485
SWIDTH 1000 0
SWIDTH1 1000 0
BBX 7 7 0 -1
BITMAP
0A
A0
52
52
04
08
30
ENDCHAR
STARTCHAR uni30C6
ENCODING 12486
SWIDTH 1000 0
SWIDTH1 1000 0
BBX 7 7 0 -1
BITMAP
7C
00
FE
10
10
10
20
ENDCHAR
STARTCHAR uni30C7
ENCODING 12487
SWIDTH 1000 0
SWIDTH1 1000 0
BBX 7 7 0 -1
BITMAP
7A
00
FE
10
10
10
20
ENDCHAR
STARTCHAR uni30C8
ENCODING 12488
SWIDTH 1000 0
SWIDTH1 1000 0
BBX 4 7 2 -1
BITMAP
80
80
80
E0
90
80
80
ENDCHAR
STARTCHAR uni30C9
ENCODING 12489
SWIDTH 1000 0
SWIDTH1 1000 0
BBX 5 7 2 -1
BITMAP
A8
80
80
E0
90
80
80
ENDCHAR
STARTCHAR uni30CA
ENCODING 12490
SWIDTH 1000 0
SWIDTH1 1000 0
BBX 7 7 0 -1
BITMAP
10
10
FE
10
10
20
40
ENDCHAR
STARTCHAR uni30CB
ENCODING 12491
SWIDTH 1000 0
SWIDTH1 1000 0
BBX 7 5 0 0
BITMAP
7C
00
00
00
FE
ENDCHAR
STARTCHAR uni30CC
ENCODING 12492
SWIDTH 1000 0
SWIDTH1 1000 0
BBX 6 7 0 -1
BITMAP
7C
04
34
08
18
24
C0
ENDCHAR
STARTCHAR uni30CD
ENCODING 12493
SWIDTH 1000 0
SWIDTH1 1000 0
BBX 7 7 0 -1
BITMAP
10
7C
08
10
34
D2
10
ENDCHAR
STARTCHAR uni30CE
ENCODING 12494
SWIDTH 1000 0
SWIDTH1 1000 0
BBX 6 7 0 -1
BITMAP
04
04
04
08
10
20
C0
ENDCHAR
STARTCHAR uni30CF
ENCODING 12495
SWIDTH 1000 0
SWIDTH1 1000 0
BBX 7 6 0 -1
BITMAP
28
24
24
42
42
82
ENDCHAR
STARTCHAR uni30D0
ENCODING 12496
SWIDTH 1000 0
SWIDTH1 1000 0
BBX 7 7 0 -1
BITMAP
06
28
24
24
42
42
82
ENDCHAR
STARTCHAR uni30D1
ENCODING 12497
SWIDTH 1000 0
SWIDTH1 1000 0
BBX 7 7 0 -1
BITMAP
04
2A
24
24
42
42
82
ENDCHAR
STARTCHAR uni30D2
ENCODING 12498
SWIDTH 1000 0
SWIDTH1 1000 0
BBX 6 7 1 -1
BITMAP
80
80
8C
F0
80
80
7C
ENDCHAR
STARTCHAR uni30D3
ENCODING 12499
SWIDTH 1000 0
SWIDTH1 1000 0
BBX 6 7 1 -1
BITMAP
94
80
8C
F0
80
80
7C
ENDCHAR
STARTCHAR uni30D4
ENCODING 12500
SWIDTH 1000 0
SWIDTH1 1000 0
BBX 6 7 1 -1
BITMAP
88
94
8C
F0
80
80
7C
ENDCHAR
STARTCHAR uni30D5
ENCODING 12501
SWIDTH 1000 0
SWIDTH1 1000 0
BBX 6 6 1 -1
BITMAP
FC
04
04
08
10
60
ENDCHAR
STARTCHAR uni30D6
ENCODING 12502
SWIDTH 1000 0
SWIDTH1 1000 0
BBX 6 7 1 -1
BITMAP
14
FC
04
04
08
10
60
ENDCHAR
STARTCHAR uni30D7
ENCODING 12503
SWIDTH 1000 0
SWIDTH1 1000 0
BBX 6 7 1 -1
BITMAP
08
F4
0C
04
08
10
60
ENDCHAR
STARTCHAR uni30D8
ENCODING 12504
SWIDTH 1000 0
SWIDTH1 1000 0
BBX 7 5 0 0
BITMAP
20
50
88
04
02
ENDCHAR
STARTCHAR uni30D9
ENCODING 12505
SWIDTH 1000 0
SWIDTH1 1000 0
BBX 7 6 0 0
BITMAP
0A
20
50
88
04
02
ENDCHAR
STARTCHAR uni30DA
ENCODING 12506
SWIDTH 1000 0
SWIDTH1 1000 0
BBX 7 6 0 0
BITMAP
04
2A
54
88
04
02
ENDCHAR
STARTCHAR uni30DB
ENCODING 12507
SWIDTH 1000 0
SWIDTH1 1000 0
BBX 7 7 0 -1
BITMAP
10
10
FE
10
54
92
30
ENDCHAR
STARTCHAR uni30DC
ENCODING 12508
SWIDTH 1000 0
SWIDTH1 1000 0
BBX 7 7 0 -1
BITMAP
1A
10
FE
10
54
92
30
ENDCHAR
STARTCHAR uni30DD
ENCODING 12509
SWIDTH 1000 0
SWIDTH1 1000 0
BBX 7 7 0 -1
BITMAP
14
1A
FC
10
54
92
30
ENDCHAR
STARTCHAR uni30DE
ENCODING 12510
SWIDTH 1000 0
SWIDTH1 1000 0
BBX 7 6 0 -1
BITMAP
FE
02
04
28
10
08
ENDCHAR
STARTCHAR uni30DF
ENCODING 12511
SWIDTH 1000 0
SWIDTH1 1000 0
BBX 5 7 1 -1
BITMAP
E0
18
40
30
00
E0
18
ENDCHAR
STARTCHAR uni30E0
ENCODING 12512
SWIDTH 1000 0
SWIDTH1 1000 0
BBX 7 7 0 -1
BITMAP
10
10
20
20
48
44
FA
ENDCHAR
STARTCHAR uni30E1
ENCODING 12513
SWIDTH 1000 0
SWIDTH1 1000 0
BBX 6 7 0 -1
BITMAP
04
04
74
08
14
24
C0
ENDCHAR
STARTCHAR uni30E2
ENCODING 12514
SWIDTH 1000 0
SWIDTH1 1000 0
BBX 6 7 1 -1
BITMAP
78
20
20
FC
20
20
1C
ENDCHAR
STARTCHAR uni30E3
ENCODING 12515
SWIDTH 1000 0
SWIDTH1 1000 0
BBX 5 5 1 -1
BITMAP
40
78
C8
20
20
ENDCHAR
STARTCHAR uni30E4
ENCODING 12516
SWIDTH 1000 0
SWIDTH1 1000 0
BBX 7 7 0 -1
BITMAP
20
2E
F2
24
10
10
10
ENDCHAR
STARTCHAR uni30E5
ENCODING 12517
SWIDTH 1000 0
SWIDTH1 1000 0
BBX 5 4 1 -1
BITMAP
70
10
10
F8
ENDCHAR
STARTCHAR uni30E6
ENCODING 12518
SWIDTH 1000 0
SWIDTH1 1000 0
BBX 7 5 0 0
BITMAP
78
08
08
08
FE
ENDCHAR
STARTCHAR uni30E7
ENCODING 12519
SWIDTH 1000 0
SWIDTH1 1000 0
BBX 4 5 2 -1
BITMAP
F0
10
70
10
F0
ENDCHAR
STARTCHAR uni30E8
ENCODING 12520
SWIDTH 1000 0
SWIDTH1 1000 0
BBX 6 6 1 -1
BITMAP
FC
04
7C
04
04
FC
ENDCHAR
STARTCHAR uni30E9
ENCODING 12521
SWIDTH 1000 0
SWIDTH1 1000 0
BBX 6 7 1 -1
BITMAP
78
00
FC
04
08
10
60
ENDCHAR
STARTCHAR uni30EA
ENCODING 12522
SWIDTH 1000 0
SWIDTH1 1000 0
BBX 5 7 1 -1
BITMAP
88
88
88
88
08
10
60
ENDCHAR
STARTCHAR uni30EB
ENCODING 12523
SWIDTH 1000 0
SWIDTH1 1000 0
BBX 7 7 0 -1
BITMAP
08
28
28
28
2A
4C
88
ENDCHAR
STARTCHAR uni30EC
ENCODING 12524
SWIDTH 1000 0
SWIDTH1 1000 0
BBX 5 7 2 -1
BITMAP
80
80
80
88
90
A0
C0
ENDCHAR
STARTCHAR uni30ED
ENCODING 12525
SWIDTH 1000 0
SWIDTH1 1000 0
BBX 6 6 1 -1
BITMAP
FC
84
84
84
84
FC
ENDCHAR
STARTCHAR uni30EE
ENCODING 12526
SWIDTH 1000 0
SWIDTH1 1000 0
BBX 5 5 1 -1
BITMAP
F8
88
08
10
60
ENDCHAR
STARTCHAR uni30EF
ENCODING 12527
SWIDTH 1000 0
SWIDTH1 1000 0
BBX 6 6 1 -1
BITMAP
FC
84
04
08
10
60
ENDCHAR
STARTCHAR uni30F0
ENCODING 12528
SWIDTH 1000 0
SWIDTH1 1000 0
BBX 7 7 0 -1
BITMAP
04
7E
24
24
FE
04
04
ENDCHAR
STARTCHAR uni30F1
ENCODING 12529
SWIDTH 1000 0
SWIDTH1 1000 0
BBX 7 5 0 0
BITMAP
7C
08
10
10
FE
ENDCHAR
STARTCHAR uni30F2
ENCODING 12530
SWIDTH 1000 0
SWIDTH1 1000 0
BBX 6 7 1 -1
BITMAP
FC
04
7C
04
08
10
60
ENDCHAR
STARTCHAR uni30F3
ENCODING 12531
SWIDTH 1000 0
SWIDTH1 1000 0
BBX 6 7 1 -1
BITMAP
80
40
04
04
08
10
E0
ENDCHAR
STARTCHAR uni30F4
ENCODING 12532
SWIDTH 1000 0
SWIDTH1 1000 0
BBX 6 7 1 -1
BITMAP
24
FC
84
04
08
10
60
ENDCHAR
STARTCHAR uni30F5
ENCODING 12533
SWIDTH 1000 0
SWIDTH1 1000 0
BBX 5 5 1 -1
BITMAP
20
F8
28
48
98
ENDCHAR
STARTCHAR uni30F6
ENCODING 12534
SWIDTH 1000 0
SWIDTH1 1000 0
BBX 5 5 1 -1
BITMAP
40
78
90
10
20
ENDCHAR
STARTCHAR uni30FB
ENCODING 12539
SWIDTH 1000 0
SWIDTH1 1000 0
BBX 2 2 2 1
BITMAP
C0
C0
ENDCHAR
STARTCHAR uni30FC
ENCODING 12540
SWIDTH 1000 0
SWIDTH1 1000 0
BBX 7 2 0 2
BITMAP
80
7E
ENDCHAR
STARTCHAR uni30FD
ENCODING 12541
SWIDTH 1000 0
SWIDTH1 1000 0
BBX 3 4 2 0
BITMAP
80
40
20
20
ENDCHAR
STARTCHAR uni30FE
ENCODING 12542
SWIDTH 1000 0
SWIDTH1 1000 0
BBX 5 6 2 0
BITMAP
28
00
80
40
20
20
ENDCHAR
STARTCHAR uni3105
ENCODING 12549
SWIDTH 1000 0
SWIDTH1 1000 0
BBX 6 7 0 -1
BITMAP
20
40
FC
04
04
04
18
ENDCHAR
STARTCHAR uni3106
ENCODING 12550
SWIDTH 1000 0
SWIDTH1 1000 0
BBX 7 7 0 -1
BITMAP
20
7E
02
04
24
18
E4
ENDCHAR
STARTCHAR uni3107
ENCODING 12551
SWIDTH 1000 0
SWIDTH1 1000 0
BBX 7 6 0 -1
BITMAP
FE
82
82
82
82
82
ENDCHAR
STARTCHAR uni3108
ENCODING 12552
SWIDTH 1000 0
SWIDTH1 1000 0
BBX 6 7 1 -1
BITMAP
FC
80
80
80
80
80
7C
ENDCHAR
STARTCHAR uni3109
ENCODING 12553
SWIDTH 1000 0
SWIDTH1 1000 0
BBX 6 7 1 -1
BITMAP
20
40
FC
24
24
44
8C
ENDCHAR
STARTCHAR uni310A
ENCODING 12554
SWIDTH 1000 0
SWIDTH1 1000 0
BBX 7 7 0 -1
BITMAP
10
10
FE
10
20
44
FA
ENDCHAR
STARTCHAR uni310B
ENCODING 12555
SWIDTH 1000 0
SWIDTH1 1000 0
BBX 5 7 1 -1
BITMAP
F0
20
40
78
08
08
30
ENDCHAR
STARTCHAR uni310C
ENCODING 12556
SWIDTH 1000 0
SWIDTH1 1000 0
BBX 6 7 1 -1
BITMAP
90
90
FC
24
24
44
98
ENDCHAR
STARTCHAR uni310D
ENCODING 12557
SWIDTH 1000 0
SWIDTH1 1000 0
BBX 6 7 0 -1
BITMAP
24
24
48
90
48
24
24
ENDCHAR
STARTCHAR uni310E
ENCODING 12558
SWIDTH 1000 0
SWIDTH1 1000 0
BBX 7 7 0 -1
BITMAP
FE
10
10
3C
04
04
18
ENDCHAR
STARTCHAR uni310F
ENCODING 12559
SWIDTH 1000 0
SWIDTH1 1000 0
BBX 7 7 0 -1
BITMAP
7E
40
40
40
40
40
80
ENDCHAR
STARTCHAR uni3110
ENCODING 12560
SWIDTH 1000 0
SWIDTH1 1000 0
BBX 4 7 2 -1
BITMAP
10
90
90
90
B0
D0
10
ENDCHAR
STARTCHAR uni3111
ENCODING 12561
SWIDTH 1000 0
SWIDTH1 1000 0
BBX 3 7 2 -1
BITMAP
20
40
40
80
40
20
20
ENDCHAR
STARTCHAR uni3112
ENCODING 12562
SWIDTH 1000 0
SWIDTH1 1000 0
BBX 7 6 0 -1
BITMAP
FE
10
10
10
10
10
ENDCHAR
STARTCHAR uni3113
ENCODING 12563
SWIDTH 1000 0
SWIDTH1 1000 0
BBX 7 7 0 -1
BITMAP
10
92
92
FE
10
10
FE
ENDCHAR
STARTCHAR uni3114
ENCODING 12564
SWIDTH 1000 0
SWIDTH1 1000 0
BBX 5 7 1 -1
BITMAP
10
20
C8
10
30
D0
10
ENDCHAR
STARTCHAR uni3115
ENCODING 12565
SWIDTH 1000 0
SWIDTH1 1000 0
BBX 7 7 0 -1
BITMAP
7E
02
7E
40
40
40
80
ENDCHAR
STARTCHAR uni3116
ENCODING 12566
SWIDTH 1000 0
SWIDTH1 1000 0
BBX 6 7 1 -1
BITMAP
FC
84
A4
94
84
FC
84
ENDCHAR
STARTCHAR uni3117
ENCODING 12567
SWIDTH 1000 0
SWIDTH1 1000 0
BBX 6 7 1 -1
BITMAP
FC
24
24
24
28
20
20
ENDCHAR
STARTCHAR uni3118
ENCODING 12568
SWIDTH 1000 0
SWIDTH1 1000 0
BBX 7 7 0 -1
BITMAP
10
10
FE
20
3C
04
08
ENDCHAR
STARTCHAR uni3119
ENCODING 12569
SWIDTH 1000 0
SWIDTH1 1000 0
BBX 6 7 0 -1
BITMAP
20
20
20
20
48
48
F4
ENDCHAR
STARTCHAR uni311A
ENCODING 12570
SWIDTH 1000 0
SWIDTH1 1000 0
BBX 7 7 0 -1
BITMAP
82
44
08
10
10
10
10
ENDCHAR
STARTCHAR uni311B
ENCODING 12571
SWIDTH 1000 0
SWIDTH1 1000 0
BBX 6 7 1 -1
BITMAP
FC
10
10
70
80
80
78
ENDCHAR
STARTCHAR uni311C
ENCODING 12572
SWIDTH 1000 0
SWIDTH1 1000 0
BBX 7 7 0 -1
BITMAP
10
FE
10
30
40
40
38
ENDCHAR
STARTCHAR uni311D
ENCODING 12573
SWIDTH 1000 0
SWIDTH1 1000 0
BBX 6 7 0 -1
BITMAP
48
48
FC
48
48
40
7C
ENDCHAR
STARTCHAR uni311E
ENCODING 12574
SWIDTH 1000 0
SWIDTH1 1000 0
BBX 7 7 0 -1
BITMAP
FE
10
90
FE
12
22
C4
ENDCHAR
STARTCHAR uni311F
ENCODING 12575
SWIDTH 1000 0
SWIDTH1 1000 0
BBX 6 7 0 -1
BITMAP
F0
10
10
10
10
08
04
ENDCHAR
STARTCHAR uni3120
ENCODING 12576
SWIDTH 1000 0
SWIDTH1 1000 0
BBX 6 7 1 -1
BITMAP
20
20
48
F0
20
48
F4
ENDCHAR
STARTCHAR uni3121
ENCODING 12577
SWIDTH 1000 0
SWIDTH1 1000 0
BBX 6 7 1 -1
BITMAP
7C
04
44
28
10
28
C4
ENDCHAR
STARTCHAR uni3122
ENCODING 12578
SWIDTH 1000 0
SWIDTH1 1000 0
BBX 6 7 1 -1
BITMAP
F8
48
48
7C
04
04
08
ENDCHAR
STARTCHAR uni3123
ENCODING 12579
SWIDTH 1000 0
SWIDTH1 1000 0
BBX 5 7 1 -1
BITMAP
80
80
F8
08
08
10
10
ENDCHAR
STARTCHAR uni3124
ENCODING 12580
SWIDTH 1000 0
SWIDTH1 1000 0
BBX 7 7 0 -1
BITMAP
20
FE
20
28
28
48
8E
ENDCHAR
STARTCHAR uni3125
ENCODING 12581
SWIDTH 1000 0
SWIDTH1 1000 0
BBX 6 7 1 -1
BITMAP
20
20
20
40
40
80
FC
ENDCHAR
STARTCHAR uni3126
ENCODING 12582
SWIDTH 1000 0
SWIDTH1 1000 0
BBX 7 7 0 -1
BITMAP
28
28
28
28
28
4A
8E
ENDCHAR
STARTCHAR uni3127
ENCODING 12583
SWIDTH 1000 0
SWIDTH1 1000 0
BBX 7 3 0 0
BITMAP
04
FE
40
ENDCHAR
STARTCHAR uni3128
ENCODING 12584
SWIDTH 1000 0
SWIDTH1 1000 0
BBX 6 7 0 -1
BITMAP
04
04
48
28
10
28
C4
ENDCHAR
STARTCHAR uni3129
ENCODING 12585
SWIDTH 1000 0
SWIDTH1 1000 0
BBX 6 7 1 -1
BITMAP
84
84
84
84
84
FC
04
ENDCHAR
STARTCHAR uni3220
ENCODING 12832
SWIDTH 1000 0
SWIDTH1 1000 0
BBX 7 7 0 -1
BITMAP
44
82
82
BA
82
82
44
ENDCHAR
STARTCHAR uni3221
ENCODING 12833
SWIDTH 1000 0
SWIDTH1 1000 0
BBX 7 7 0 -1
BITMAP
44
82
BA
82
FE
82
44
ENDCHAR
STARTCHAR uni3222
ENCODING 12834
SWIDTH 1000 0
SWIDTH1 1000 0
BBX 7 7 0 -1
BITMAP
44
BA
82
BA
82
BA
44
ENDCHAR
STARTCHAR uni3223
ENCODING 12835
SWIDTH 1000 0
SWIDTH1 1000 0
BBX 7 7 0 -1
BITMAP
44
82
FE
AA
FE
82
44
ENDCHAR
STARTCHAR uni3224
ENCODING 12836
SWIDTH 1000 0
SWIDTH1 1000 0
BBX 8 7 0 -1
BITMAP
42
BD
91
BD
95
BD
42
ENDCHAR
STARTCHAR uni3225
ENCODING 12837
SWIDTH 1000 0
SWIDTH1 1000 0
BBX 7 7 0 -1
BITMAP
44
92
82
FE
82
AA
44
ENDCHAR
STARTCHAR uni3226
ENCODING 12838
SWIDTH 1000 0
SWIDTH1 1000 0
BBX 7 7 0 -1
BITMAP
44
92
9E
F2
92
9A
44
ENDCHAR
STARTCHAR uni3227
ENCODING 12839
SWIDTH 1000 0
SWIDTH1 1000 0
BBX 7 7 0 -1
BITMAP
44
82
AA
AA
C6
82
44
ENDCHAR
STARTCHAR uni3228
ENCODING 12840
SWIDTH 1000 0
SWIDTH1 1000 0
BBX 7 7 0 -1
BITMAP
44
92
FA
AA
CE
82
44
ENDCHAR
STARTCHAR uni3229
ENCODING 12841
SWIDTH 1000 0
SWIDTH1 1000 0
BBX 7 7 0 -1
BITMAP
44
92
92
FE
92
92
44
ENDCHAR
STARTCHAR uni3231
ENCODING 12849
SWIDTH 1000 0
SWIDTH1 1000 0
BBX 7 7 0 -1
BITMAP
7C
AE
82
B6
A2
96
7C
ENDCHAR
STARTCHAR uni32A3
ENCODING 12963
SWIDTH 1000 0
SWIDTH1 1000 0
BBX 7 7 0 -1
BITMAP
7C
82
EE
A2
AE
82
7C
ENDCHAR
STARTCHAR uni338E
ENCODING 13198
SWIDTH 1000 0
SWIDTH1 1000 0
DWIDTH1 0 0
BBX 7 5 0 -1
BITMAP
C6
EA
E6
E2
AC
ENDCHAR
STARTCHAR uni338F
ENCODING 13199
SWIDTH 1000 0
SWIDTH1 1000 0
DWIDTH1 0 0
BBX 7 7 0 -1
BITMAP
80
80
A6
AA
C6
A2
AC
ENDCHAR
STARTCHAR uni339C
ENCODING 13212
SWIDTH 1000 0
SWIDTH1 1000 0
DWIDTH1 0 0
BBX 7 5 0 -1
BITMAP
CC
EE
EE
EE
AA
ENDCHAR
STARTCHAR uni339D
ENCODING 13213
SWIDTH 1000 0
SWIDTH1 1000 0
DWIDTH1 0 0
BBX 7 5 0 -1
BITMAP
6C
8E
8E
8E
6A
ENDCHAR
STARTCHAR uni339E
ENCODING 13214
SWIDTH 1000 0
SWIDTH1 1000 0
DWIDTH1 0 0
BBX 7 7 0 -1
BITMAP
80
80
AC
AE
CE
AE
AA
ENDCHAR
STARTCHAR uni33A1
ENCODING 13217
SWIDTH 1000 0
SWIDTH1 1000 0
DWIDTH1 0 0
BBX 7 7 0 -1
BITMAP
06
02
D4
AE
A8
A8
A8
ENDCHAR
STARTCHAR uni33C4
ENCODING 13252
SWIDTH 1000 0
SWIDTH1 1000 0
DWIDTH1 0 0
BBX 7 5 0 -1
BITMAP
66
88
88
88
66
ENDCHAR
STARTCHAR uni33CE
ENCODING 13262
SWIDTH 1000 0
SWIDTH1 1000 0
BBX 7 6 0 0
BITMAP
AA
AE
CE
AA
AA
AA
ENDCHAR
STARTCHAR uni33D1
ENCODING 13265
SWIDTH 1000 0
SWIDTH1 1000 0
BBX 5 6 1 0
BITMAP
80
B0
A8
A8
A8
A8
ENDCHAR
STARTCHAR uni33D2
ENCODING 13266
SWIDTH 1000 0
SWIDTH1 1000 0
BBX 7 7 0 -1
BITMAP
80
A6
DA
DA
D6
A2
0C
ENDCHAR
STARTCHAR uni33D5
ENCODING 13269
SWIDTH 1000 0
SWIDTH1 1000 0
BBX 7 6 0 0
BITMAP
0A
A2
EA
EA
AA
AA
ENDCHAR
STARTCHAR uni4E00
ENCODING 19968
SWIDTH 1000 0
SWIDTH1 1000 0
BBX 7 2 0 2
BITMAP
04
FE
ENDCHAR
STARTCHAR uni4E01
ENCODING 19969
SWIDTH 1000 0
SWIDTH1 1000 0
BBX 7 7 0 -1
BITMAP
FE
10
10
10
10
10
30
ENDCHAR
STARTCHAR uni4E02
ENCODING 19970
SWIDTH 1000 0
SWIDTH1 1000 0
DWIDTH1 0 0
BBX 7 7 0 -1
BITMAP
FE
20
20
3C
04
04
0C
ENDCHAR
STARTCHAR uni4E03
ENCODING 19971
SWIDTH 1000 0
SWIDTH1 1000 0
BBX 7 7 0 -1
BITMAP
20
20
2E
F0
20
22
1E
ENDCHAR
STARTCHAR uni4E04
ENCODING 19972
SWIDTH 1000 0
SWIDTH1 1000 0
DWIDTH1 0 0
BBX 7 7 0 -1
BITMAP
10
10
10
10
10
10
FE
ENDCHAR
STARTCHAR uni4E05
ENCODING 19973
SWIDTH 1000 0
SWIDTH1 1000 0
DWIDTH1 0 0
BBX 7 7 0 -1
BITMAP
FE
10
10
10
10
10
10
ENDCHAR
STARTCHAR uni4E06
ENCODING 19974
SWIDTH 1000 0
SWIDTH1 1000 0
DWIDTH1 0 0
BBX 7 5 0 1
BITMAP
FE
10
10
20
C0
ENDCHAR
STARTCHAR uni4E07
ENCODING 19975
SWIDTH 1000 0
SWIDTH1 1000 0
BBX 7 7 0 -1
BITMAP
FE
20
3C
24
24
44
8C
ENDCHAR
STARTCHAR uni4E08
ENCODING 19976
SWIDTH 1000 0
SWIDTH1 1000 0
BBX 7 7 0 -1
BITMAP
10
FE
10
30
10
28
C6
ENDCHAR
STARTCHAR uni4E09
ENCODING 19977
SWIDTH 1000 0
SWIDTH1 1000 0
BBX 7 7 0 -1
BITMAP
FE
00
00
7C
00
00
FE
ENDCHAR
STARTCHAR uni4E0A
ENCODING 19978
SWIDTH 1000 0
SWIDTH1 1000 0
BBX 7 7 0 -1
BITMAP
10
10
1C
10
10
10
FE
ENDCHAR
STARTCHAR uni4E0B
ENCODING 19979
SWIDTH 1000 0
SWIDTH1 1000 0
BBX 7 7 0 -1
BITMAP
FE
10
10
14
12
10
10
ENDCHAR
STARTCHAR uni4E0C
ENCODING 19980
SWIDTH 1000 0
SWIDTH1 1000 0
DWIDTH1 0 0
BBX 7 7 0 -1
BITMAP
FE
28
28
28
28
28
48
ENDCHAR
STARTCHAR uni4E0D
ENCODING 19981
SWIDTH 1000 0
SWIDTH1 1000 0
BBX 7 7 0 -1
BITMAP
FE
10
10
34
D2
10
10
ENDCHAR
STARTCHAR uni4E0E
ENCODING 19982
SWIDTH 1000 0
SWIDTH1 1000 0
BBX 7 7 0 -1
BITMAP
40
7E
40
7C
04
F4
0C
ENDCHAR
STARTCHAR uni4E0F
ENCODING 19983
SWIDTH 1000 0
SWIDTH1 1000 0
BBX 7 7 0 -1
BITMAP
FE
10
5C
54
7C
04
0C
ENDCHAR
STARTCHAR uni4E10
ENCODING 19984
SWIDTH 1000 0
SWIDTH1 1000 0
BBX 7 7 0 -1
BITMAP
FE
10
9E
90
FE
02
06
ENDCHAR
STARTCHAR uni4E11
ENCODING 19985
SWIDTH 1000 0
SWIDTH1 1000 0
BBX 7 7 0 -1
BITMAP
FC
24
24
7C
24
24
FE
ENDCHAR
STARTCHAR uni4E12
ENCODING 19986
SWIDTH 1000 0
SWIDTH1 1000 0
BBX 7 7 0 -1
BITMAP
FE
12
52
22
56
00
FE
ENDCHAR
STARTCHAR uni4E13
ENCODING 19987
SWIDTH 1000 0
SWIDTH1 1000 0
DWIDTH1 0 0
BBX 7 7 0 -1
BITMAP
10
7C
10
FE
20
3C
04
ENDCHAR
STARTCHAR uni4E14
ENCODING 19988
SWIDTH 1000 0
SWIDTH1 1000 0
BBX 7 7 0 -1
BITMAP
7C
44
7C
44
7C
44
FE
ENDCHAR
STARTCHAR uni4E15
ENCODING 19989
SWIDTH 1000 0
SWIDTH1 1000 0
BBX 7 7 0 -1
BITMAP
FE
10
34
D2
10
10
FE
ENDCHAR
STARTCHAR uni4E16
ENCODING 19990
SWIDTH 1000 0
SWIDTH1 1000 0
BBX 7 7 0 -1
BITMAP
54
54
FE
54
5C
40
7E
ENDCHAR
STARTCHAR uni4E17
ENCODING 19991
SWIDTH 1000 0
SWIDTH1 1000 0
BBX 7 7 0 -1
BITMAP
54
54
FE
54
54
54
7C
ENDCHAR
STARTCHAR uni4E18
ENCODING 19992
SWIDTH 1000 0
SWIDTH1 1000 0
BBX 7 7 0 -1
BITMAP
0C
70
40
7C
48
48
FE
ENDCHAR
STARTCHAR uni4E19
ENCODING 19993
SWIDTH 1000 0
SWIDTH1 1000 0
BBX 7 7 0 -1
BITMAP
FE
10
FE
92
AA
C2
86
ENDCHAR
STARTCHAR uni4E1A
ENCODING 19994
SWIDTH 1000 0
SWIDTH1 1000 0
DWIDTH1 0 0
BBX 7 7 0 -1
BITMAP
28
28
AA
6C
28
28
FE
ENDCHAR
STARTCHAR uni4E1B
ENCODING 19995
SWIDTH 1000 0
SWIDTH1 1000 0
DWIDTH1 0 0
BBX 7 7 0 -1
BITMAP
44
44
44
AA
AA
00
FE
ENDCHAR
STARTCHAR uni4E1C
ENCODING 19996
SWIDTH 1000 0
SWIDTH1 1000 0
DWIDTH1 0 0
BBX 6 7 0 -1
BITMAP
20
FC
50
FC
50
94
30
ENDCHAR
STARTCHAR uni4E1D
ENCODING 19997
SWIDTH 1000 0
SWIDTH1 1000 0
DWIDTH1 0 0
BBX 7 7 0 -1
BITMAP
44
AA
44
AA
EE
00
FE
ENDCHAR
STARTCHAR uni4E1E
ENCODING 19998
SWIDTH 1000 0
SWIDTH1 1000 0
BBX 7 7 0 -1
BITMAP
7C
08
D2
54
92
30
FE
ENDCHAR
STARTCHAR uni4E1F
ENCODING 19999
SWIDTH 1000 0
SWIDTH1 1000 0
DWIDTH1 0 0
BBX 7 7 0 -1
BITMAP
FE
10
7C
10
FE
24
7C
ENDCHAR
STARTCHAR uni4E20
ENCODING 20000
SWIDTH 1000 0
SWIDTH1 1000 0
DWIDTH1 0 0
BBX 7 7 0 -1
BITMAP
28
EE
28
EA
2E
00
FE
ENDCHAR
STARTCHAR uni4E21
ENCODING 20001
SWIDTH 1000 0
SWIDTH1 1000 0
BBX 7 7 0 -1
BITMAP
FE
10
FE
92
D6
FE
82
ENDCHAR
STARTCHAR uni4E22
ENCODING 20002
SWIDTH 1000 0
SWIDTH1 1000 0
DWIDTH1 0 0
BBX 7 7 0 -1
BITMAP
FE
10
7C
10
FE
24
7E
ENDCHAR
STARTCHAR uni4E23
ENCODING 20003
SWIDTH 1000 0
SWIDTH1 1000 0
DWIDTH1 0 0
BBX 7 7 0 -1
BITMAP
FE
28
EE
AA
EE
28
48
ENDCHAR
STARTCHAR uni4E24
ENCODING 20004
SWIDTH 1000 0
SWIDTH1 1000 0
DWIDTH1 0 0
BBX 7 7 0 -1
BITMAP
FE
28
FE
AA
D6
82
86
ENDCHAR
STARTCHAR uni4E25
ENCODING 20005
SWIDTH 1000 0
SWIDTH1 1000 0
DWIDTH1 0 0
BBX 7 7 0 -1
BITMAP
FE
28
AA
28
FE
80
80
ENDCHAR
STARTCHAR uni4E26
ENCODING 20006
SWIDTH 1000 0
SWIDTH1 1000 0
BBX 7 7 0 -1
BITMAP
44
FE
28
AA
6C
28
FE
ENDCHAR
STARTCHAR uni4E27
ENCODING 20007
SWIDTH 1000 0
SWIDTH1 1000 0
DWIDTH1 0 0
BBX 7 7 0 -1
BITMAP
10
FE
54
FE
54
48
76
ENDCHAR
STARTCHAR uni4E28
ENCODING 20008
SWIDTH 1000 0
SWIDTH1 1000 0
DWIDTH1 0 0
BBX 1 7 3 -1
BITMAP
80
80
80
80
80
80
80
ENDCHAR
STARTCHAR uni4E29
ENCODING 20009
SWIDTH 1000 0
SWIDTH1 1000 0
DWIDTH1 0 0
BBX 4 7 2 -1
BITMAP
10
90
90
90
F0
10
10
ENDCHAR
STARTCHAR uni4E2A
ENCODING 20010
SWIDTH 1000 0
SWIDTH1 1000 0
BBX 7 7 0 -1
BITMAP
10
28
D6
10
10
10
10
ENDCHAR
STARTCHAR uni4E2B
ENCODING 20011
SWIDTH 1000 0
SWIDTH1 1000 0
BBX 7 7 0 -1
BITMAP
82
44
28
10
10
10
10
ENDCHAR
STARTCHAR uni4E2C
ENCODING 20012
SWIDTH 1000 0
SWIDTH1 1000 0
BBX 3 7 0 -1
BITMAP
20
A0
60
20
60
A0
20
ENDCHAR
STARTCHAR uni4E2D
ENCODING 20013
SWIDTH 1000 0
SWIDTH1 1000 0
BBX 7 7 0 -1
BITMAP
10
FE
92
92
FE
10
10
ENDCHAR
STARTCHAR uni4E2E
ENCODING 20014
SWIDTH 1000 0
SWIDTH1 1000 0
DWIDTH1 0 0
BBX 7 7 0 -1
BITMAP
FC
24
FC
24
FC
24
22
ENDCHAR
STARTCHAR uni4E2F
ENCODING 20015
SWIDTH 1000 0
SWIDTH1 1000 0
DWIDTH1 0 0
BBX 7 7 0 -1
BITMAP
16
38
D6
38
D6
38
D0
ENDCHAR
STARTCHAR uni4E30
ENCODING 20016
SWIDTH 1000 0
SWIDTH1 1000 0
DWIDTH1 0 0
BBX 7 7 0 -1
BITMAP
10
FE
10
7C
10
FE
10
ENDCHAR
STARTCHAR uni4E31
ENCODING 20017
SWIDTH 1000 0
SWIDTH1 1000 0
BBX 7 7 0 -1
BITMAP
28
AA
AA
AA
EE
28
48
ENDCHAR
STARTCHAR uni4E32
ENCODING 20018
SWIDTH 1000 0
SWIDTH1 1000 0
BBX 7 7 0 -1
BITMAP
10
7C
54
FE
92
FE
10
ENDCHAR
STARTCHAR uni4E33
ENCODING 20019
SWIDTH 1000 0
SWIDTH1 1000 0
DWIDTH1 0 0
BBX 7 7 0 -1
BITMAP
28
FE
AA
FE
AA
FE
28
ENDCHAR
STARTCHAR uni4E34
ENCODING 20020
SWIDTH 1000 0
SWIDTH1 1000 0
DWIDTH1 0 0
BBX 7 7 0 -1
BITMAP
28
2E
B4
A0
BE
2A
3E
ENDCHAR
STARTCHAR uni4E35
ENCODING 20021
SWIDTH 1000 0
SWIDTH1 1000 0
DWIDTH1 0 0
BBX 7 7 0 -1
BITMAP
AA
FE
28
7C
10
FE
10
ENDCHAR
STARTCHAR uni4E36
ENCODING 20022
SWIDTH 1000 0
SWIDTH1 1000 0
BBX 3 4 2 1
BITMAP
80
40
20
20
ENDCHAR
STARTCHAR uni4E37
ENCODING 20023
SWIDTH 1000 0
SWIDTH1 1000 0
DWIDTH1 0 0
BBX 7 3 0 2
BITMAP
82
44
28
ENDCHAR
STARTCHAR uni4E38
ENCODING 20024
SWIDTH 1000 0
SWIDTH1 1000 0
BBX 7 7 0 -1
BITMAP
20
FC
24
A4
64
24
D6
ENDCHAR
STARTCHAR uni4E39
ENCODING 20025
SWIDTH 1000 0
SWIDTH1 1000 0
BBX 7 7 0 -1
BITMAP
7C
44
54
44
FE
44
8C
ENDCHAR
STARTCHAR uni4E3A
ENCODING 20026
SWIDTH 1000 0
SWIDTH1 1000 0
DWIDTH1 0 0
BBX 6 7 0 -1
BITMAP
A0
20
FC
24
54
44
8C
ENDCHAR
STARTCHAR uni4E3B
ENCODING 20027
SWIDTH 1000 0
SWIDTH1 1000 0
BBX 7 7 0 -1
BITMAP
10
00
FE
10
7C
10
FE
ENDCHAR
STARTCHAR uni4E3C
ENCODING 20028
SWIDTH 1000 0
SWIDTH1 1000 0
BBX 7 7 0 -1
BITMAP
44
FE
44
54
44
FE
44
ENDCHAR
STARTCHAR uni4E3D
ENCODING 20029
SWIDTH 1000 0
SWIDTH1 1000 0
DWIDTH1 0 0
BBX 7 7 0 -1
BITMAP
FE
00
EE
AA
EE
AA
AA
ENDCHAR
STARTCHAR uni4E3E
ENCODING 20030
SWIDTH 1000 0
SWIDTH1 1000 0
BBX 7 7 0 -1
BITMAP
54
FE
54
BA
10
7C
10
ENDCHAR
STARTCHAR uni4E3F
ENCODING 20031
SWIDTH 1000 0
SWIDTH1 1000 0
BBX 7 5 0 -1
BITMAP
40
A0
10
08
06
ENDCHAR
STARTCHAR uni4E40
ENCODING 20032
SWIDTH 1000 0
SWIDTH1 1000 0
DWIDTH1 0 0
BBX 7 5 0 -1
BITMAP
40
A0
10
08
06
ENDCHAR
STARTCHAR uni4E41
ENCODING 20033
SWIDTH 1000 0
SWIDTH1 1000 0
DWIDTH1 0 0
BBX 7 6 0 -1
BITMAP
E0
20
20
10
08
06
ENDCHAR
STARTCHAR uni4E42
ENCODING 20034
SWIDTH 1000 0
SWIDTH1 1000 0
BBX 7 7 0 -1
BITMAP
44
44
28
28
10
28
C6
ENDCHAR
STARTCHAR uni4E43
ENCODING 20035
SWIDTH 1000 0
SWIDTH1 1000 0
BBX 7 7 0 -1
BITMAP
F8
48
4E
42
42
42
8E
ENDCHAR
STARTCHAR uni4E44
ENCODING 20036
SWIDTH 1000 0
SWIDTH1 1000 0
DWIDTH1 0 0
BBX 6 7 1 -1
BITMAP
04
04
28
10
A8
C0
80
ENDCHAR
STARTCHAR uni4E45
ENCODING 20037
SWIDTH 1000 0
SWIDTH1 1000 0
BBX 7 7 0 -1
BITMAP
40
70
50
90
10
28
C6
ENDCHAR
STARTCHAR uni4E46
ENCODING 20038
SWIDTH 1000 0
SWIDTH1 1000 0
BBX 7 7 0 -1
BITMAP
90
90
90
F0
10
28
C6
ENDCHAR
STARTCHAR uni4E47
ENCODING 20039
SWIDTH 1000 0
SWIDTH1 1000 0
DWIDTH1 0 0
BBX 7 7 0 -1
BITMAP
0C
70
10
FE
10
12
1E
ENDCHAR
STARTCHAR uni4E48
ENCODING 20040
SWIDTH 1000 0
SWIDTH1 1000 0
BBX 7 7 0 -1
BITMAP
10
20
48
90
20
44
FA
ENDCHAR
STARTCHAR uni4E49
ENCODING 20041
SWIDTH 1000 0
SWIDTH1 1000 0
DWIDTH1 0 0
BBX 7 6 0 -1
BITMAP
54
44
28
10
28
C6
ENDCHAR
STARTCHAR uni4E4A
ENCODING 20042
SWIDTH 1000 0
SWIDTH1 1000 0
DWIDTH1 0 0
BBX 7 5 0 1
BITMAP
0E
F0
02
44
28
ENDCHAR
STARTCHAR uni4E4B
ENCODING 20043
SWIDTH 1000 0
SWIDTH1 1000 0
BBX 7 7 0 -1
BITMAP
10
FC
04
08
30
42
BC
ENDCHAR
STARTCHAR uni4E4C
ENCODING 20044
SWIDTH 1000 0
SWIDTH1 1000 0
DWIDTH1 0 0
BBX 7 7 0 -1
BITMAP
20
7C
44
4C
40
7E
AA
ENDCHAR
STARTCHAR uni4E4D
ENCODING 20045
SWIDTH 1000 0
SWIDTH1 1000 0
BBX 7 7 0 -1
BITMAP
20
3E
50
9E
10
1E
10
ENDCHAR
STARTCHAR uni4E4E
ENCODING 20046
SWIDTH 1000 0
SWIDTH1 1000 0
BBX 7 7 0 -1
BITMAP
FE
10
54
10
FE
10
30
ENDCHAR
STARTCHAR uni4E4F
ENCODING 20047
SWIDTH 1000 0
SWIDTH1 1000 0
BBX 7 7 0 -1
BITMAP
7C
10
7C
08
50
60
9E
ENDCHAR
STARTCHAR uni4E50
ENCODING 20048
SWIDTH 1000 0
SWIDTH1 1000 0
DWIDTH1 0 0
BBX 7 7 0 -1
BITMAP
FE
90
90
FE
10
54
B2
ENDCHAR
STARTCHAR uni4E51
ENCODING 20049
SWIDTH 1000 0
SWIDTH1 1000 0
DWIDTH1 0 0
BBX 7 7 0 -1
BITMAP
FE
10
32
54
B8
54
92
ENDCHAR
STARTCHAR uni4E52
ENCODING 20050
SWIDTH 1000 0
SWIDTH1 1000 0
DWIDTH1 0 0
BBX 7 7 0 -1
BITMAP
7C
40
7C
44
FE
20
40
ENDCHAR
STARTCHAR uni4E53
ENCODING 20051
SWIDTH 1000 0
SWIDTH1 1000 0
DWIDTH1 0 0
BBX 7 7 0 -1
BITMAP
7C
40
7C
44
FE
08
04
ENDCHAR
STARTCHAR uni4E54
ENCODING 20052
SWIDTH 1000 0
SWIDTH1 1000 0
DWIDTH1 0 0
BBX 7 7 0 -1
BITMAP
7C
10
FE
28
6C
AA
28
ENDCHAR
STARTCHAR uni4E55
ENCODING 20053
SWIDTH 1000 0
SWIDTH1 1000 0
BBX 7 7 0 -1
BITMAP
FE
88
FE
88
FE
AA
AA
ENDCHAR
STARTCHAR uni4E56
ENCODING 20054
SWIDTH 1000 0
SWIDTH1 1000 0
BBX 7 7 0 -1
BITMAP
7C
10
FE
54
D6
54
D6
ENDCHAR
STARTCHAR uni4E57
ENCODING 20055
SWIDTH 1000 0
SWIDTH1 1000 0
BBX 7 7 0 -1
BITMAP
38
FE
54
FE
54
38
D6
ENDCHAR
STARTCHAR uni4E58
ENCODING 20056
SWIDTH 1000 0
SWIDTH1 1000 0
BBX 7 7 0 -1
BITMAP
7C
10
FE
54
D6
38
D6
ENDCHAR
STARTCHAR uni4E59
ENCODING 20057
SWIDTH 1000 0
SWIDTH1 1000 0
BBX 7 7 0 -1
BITMAP
78
08
10
20
40
82
7E
ENDCHAR
STARTCHAR uni4E5A
ENCODING 20058
SWIDTH 1000 0
SWIDTH1 1000 0
DWIDTH1 0 0
BBX 6 7 1 -1
BITMAP
80
80
80
80
80
84
78
ENDCHAR
STARTCHAR uni4E5B
ENCODING 20059
SWIDTH 1000 0
SWIDTH1 1000 0
DWIDTH1 0 0
BBX 6 3 1 3
BITMAP
FC
04
08
ENDCHAR
STARTCHAR uni4E5C
ENCODING 20060
SWIDTH 1000 0
SWIDTH1 1000 0
DWIDTH1 0 0
BBX 7 7 0 -1
BITMAP
20
3C
E4
2C
20
22
3E
ENDCHAR
STARTCHAR uni4E5D
ENCODING 20061
SWIDTH 1000 0
SWIDTH1 1000 0
BBX 7 7 0 -1
BITMAP
20
F8
28
28
28
4A
8E
ENDCHAR
STARTCHAR uni4E5E
ENCODING 20062
SWIDTH 1000 0
SWIDTH1 1000 0
BBX 7 7 0 -1
BITMAP
40
7E
80
78
10
22
3E
ENDCHAR
STARTCHAR uni4E5F
ENCODING 20063
SWIDTH 1000 0
SWIDTH1 1000 0
BBX 7 7 0 -1
BITMAP
10
5C
74
D4
50
42
3E
ENDCHAR
STARTCHAR uni4E60
ENCODING 20064
SWIDTH 1000 0
SWIDTH1 1000 0
BBX 6 7 1 -1
BITMAP
FC
44
24
04
34
C4
0C
ENDCHAR
STARTCHAR uni4E61
ENCODING 20065
SWIDTH 1000 0
SWIDTH1 1000 0
DWIDTH1 0 0
BBX 7 7 0 -1
BITMAP
10
24
78
12
3C
08
F0
ENDCHAR
STARTCHAR uni4E62
ENCODING 20066
SWIDTH 1000 0
SWIDTH1 1000 0
BBX 7 7 0 -1
BITMAP
28
28
28
A8
A8
FA
0E
ENDCHAR
STARTCHAR uni4E63
ENCODING 20067
SWIDTH 1000 0
SWIDTH1 1000 0
DWIDTH1 0 0
BBX 7 7 0 -1
BITMAP
48
88
E8
48
88
AA
EE
ENDCHAR
STARTCHAR uni4E64
ENCODING 20068
SWIDTH 1000 0
SWIDTH1 1000 0
DWIDTH1 0 0
BBX 7 7 0 -1
BITMAP
FE
10
14
00
78
12
3E
ENDCHAR
STARTCHAR uni4E65
ENCODING 20069
SWIDTH 1000 0
SWIDTH1 1000 0
DWIDTH1 0 0
BBX 7 7 0 -1
BITMAP
FE
28
00
70
10
24
3C
ENDCHAR
STARTCHAR uni4E66
ENCODING 20070
SWIDTH 1000 0
SWIDTH1 1000 0
DWIDTH1 0 0
BBX 7 7 0 -1
BITMAP
24
FA
28
FC
24
2C
20
ENDCHAR
STARTCHAR uni4E67
ENCODING 20071
SWIDTH 1000 0
SWIDTH1 1000 0
DWIDTH1 0 0
BBX 7 7 0 -1
BITMAP
28
48
FE
08
78
12
1E
ENDCHAR
STARTCHAR uni4E68
ENCODING 20072
SWIDTH 1000 0
SWIDTH1 1000 0
DWIDTH1 0 0
BBX 7 7 0 -1
BITMAP
48
A8
E8
08
E8
AA
EE
ENDCHAR
STARTCHAR uni4E69
ENCODING 20073
SWIDTH 1000 0
SWIDTH1 1000 0
BBX 7 7 0 -1
BITMAP
48
68
48
E8
A8
AA
EE
ENDCHAR
STARTCHAR uni4E6A
ENCODING 20074
SWIDTH 1000 0
SWIDTH1 1000 0
DWIDTH1 0 0
BBX 7 7 0 -1
BITMAP
FE
6A
7E
AA
BE
80
FE
ENDCHAR
STARTCHAR uni4E6B
ENCODING 20075
SWIDTH 1000 0
SWIDTH1 1000 0
DWIDTH1 0 0
BBX 7 7 0 -1
BITMAP
4E
EA
6A
AE
78
12
3E
ENDCHAR
STARTCHAR uni4E6C
ENCODING 20076
SWIDTH 1000 0
SWIDTH1 1000 0
DWIDTH1 0 0
BBX 7 7 0 -1
BITMAP
FC
90
F0
80
F8
12
1E
ENDCHAR
STARTCHAR uni4E6D
ENCODING 20077
SWIDTH 1000 0
SWIDTH1 1000 0
DWIDTH1 0 0
BBX 7 7 0 -1
BITMAP
FE
44
BC
00
F0
12
1E
ENDCHAR
STARTCHAR uni4E6E
ENCODING 20078
SWIDTH 1000 0
SWIDTH1 1000 0
DWIDTH1 0 0
BBX 7 7 0 -1
BITMAP
EE
8A
EA
2C
F8
12
3E
ENDCHAR
STARTCHAR uni4E6F
ENCODING 20079
SWIDTH 1000 0
SWIDTH1 1000 0
DWIDTH1 0 0
BBX 7 7 0 -1
BITMAP
FE
54
FE
10
78
0A
0E
ENDCHAR
STARTCHAR uni4E70
ENCODING 20080
SWIDTH 1000 0
SWIDTH1 1000 0
DWIDTH1 0 0
BBX 7 7 0 -1
BITMAP
FE
52
10
50
FE
28
C6
ENDCHAR
STARTCHAR uni4E71
ENCODING 20081
SWIDTH 1000 0
SWIDTH1 1000 0
BBX 7 7 0 -1
BITMAP
E8
48
E8
48
E8
AA
EE
ENDCHAR
STARTCHAR uni4E72
ENCODING 20082
SWIDTH 1000 0
SWIDTH1 1000 0
DWIDTH1 0 0
BBX 7 7 0 -1
BITMAP
90
1E
AA
14
78
12
1E
ENDCHAR
STARTCHAR uni4E73
ENCODING 20083
SWIDTH 1000 0
SWIDTH1 1000 0
BBX 7 7 0 -1
BITMAP
FC
AC
74
14
FC
24
66
ENDCHAR
STARTCHAR uni4E74
ENCODING 20084
SWIDTH 1000 0
SWIDTH1 1000 0
DWIDTH1 0 0
BBX 7 7 0 -1
BITMAP
4E
E8
4E
CA
30
14
3C
ENDCHAR
STARTCHAR uni4E75
ENCODING 20085
SWIDTH 1000 0
SWIDTH1 1000 0
DWIDTH1 0 0
BBX 7 7 0 -1
BITMAP
24
FC
54
FC
24
FC
26
ENDCHAR
STARTCHAR uni4E76
ENCODING 20086
SWIDTH 1000 0
SWIDTH1 1000 0
DWIDTH1 0 0
BBX 7 7 0 -1
BITMAP
14
FE
54
7C
54
3A
0E
ENDCHAR
STARTCHAR uni4E77
ENCODING 20087
SWIDTH 1000 0
SWIDTH1 1000 0
DWIDTH1 0 0
BBX 7 7 0 -1
BITMAP
FE
28
FE
AA
CE
82
FE
ENDCHAR
STARTCHAR uni4E78
ENCODING 20088
SWIDTH 1000 0
SWIDTH1 1000 0
DWIDTH1 0 0
BBX 7 7 0 -1
BITMAP
2E
FA
6E
6A
5E
42
7E
ENDCHAR
STARTCHAR uni4E79
ENCODING 20089
SWIDTH 1000 0
SWIDTH1 1000 0
DWIDTH1 0 0
BBX 7 7 0 -1
BITMAP
48
E8
48
A8
48
EA
4E
ENDCHAR
STARTCHAR uni4E7A
ENCODING 20090
SWIDTH 1000 0
SWIDTH1 1000 0
DWIDTH1 0 0
BBX 7 7 0 -1
BITMAP
EE
88
EE
AA
F0
92
3E
ENDCHAR
STARTCHAR uni4E7B
ENCODING 20091
SWIDTH 1000 0
SWIDTH1 1000 0
DWIDTH1 0 0
BBX 7 7 0 -1
BITMAP
44
EA
44
62
B0
14
1C
ENDCHAR
STARTCHAR uni4E7C
ENCODING 20092
SWIDTH 1000 0
SWIDTH1 1000 0
DWIDTH1 0 0
BBX 7 7 0 -1
BITMAP
88
3E
88
3E
80
1A
0E
ENDCHAR
STARTCHAR uni4E7D
ENCODING 20093
SWIDTH 1000 0
SWIDTH1 1000 0
DWIDTH1 0 0
BBX 7 7 0 -1
BITMAP
14
FE
64
BC
08
12
3E
ENDCHAR
STARTCHAR uni4E7E
ENCODING 20094
SWIDTH 1000 0
SWIDTH1 1000 0
BBX 7 7 0 -1
BITMAP
48
EE
40
AC
44
E8
4E
ENDCHAR
STARTCHAR uni4E7F
ENCODING 20095
SWIDTH 1000 0
SWIDTH1 1000 0
DWIDTH1 0 0
BBX 7 7 0 -1
BITMAP
E8
48
A8
48
E8
4A
CE
ENDCHAR
STARTCHAR uni4E80
ENCODING 20096
SWIDTH 1000 0
SWIDTH1 1000 0
BBX 7 7 0 -1
BITMAP
18
E8
54
7C
54
7C
1E
ENDCHAR
STARTCHAR uni4E81
ENCODING 20097
SWIDTH 1000 0
SWIDTH1 1000 0
DWIDTH1 0 0
BBX 7 7 0 -1
BITMAP
48
EE
40
EE
44
E8
4E
ENDCHAR
STARTCHAR uni4E82
ENCODING 20098
SWIDTH 1000 0
SWIDTH1 1000 0
BBX 7 7 0 -1
BITMAP
F8
58
F8
A8
D8
AA
DE
ENDCHAR
STARTCHAR uni4E83
ENCODING 20099
SWIDTH 1000 0
SWIDTH1 1000 0
DWIDTH1 0 0
BBX 7 7 0 -1
BITMAP
AC
74
AC
54
BC
54
96
ENDCHAR
STARTCHAR uni4E84
ENCODING 20100
SWIDTH 1000 0
SWIDTH1 1000 0
DWIDTH1 0 0
BBX 7 7 0 -1
BITMAP
24
FC
AC
54
74
54
FE
ENDCHAR
STARTCHAR uni4E85
ENCODING 20101
SWIDTH 1000 0
SWIDTH1 1000 0
BBX 2 7 2 -1
BITMAP
40
40
40
40
40
40
C0
ENDCHAR
STARTCHAR uni4E86
ENCODING 20102
SWIDTH 1000 0
SWIDTH1 1000 0
BBX 7 7 0 -1
BITMAP
FE
04
08
10
10
10
30
ENDCHAR
STARTCHAR uni4E87
ENCODING 20103
SWIDTH 1000 0
SWIDTH1 1000 0
DWIDTH1 0 0
BBX 7 7 0 -1
BITMAP
40
7E
92
10
10
10
70
ENDCHAR
STARTCHAR uni4E88
ENCODING 20104
SWIDTH 1000 0
SWIDTH1 1000 0
BBX 7 7 0 -1
BITMAP
7C
28
10
FE
12
10
30
ENDCHAR
STARTCHAR uni4E89
ENCODING 20105
SWIDTH 1000 0
SWIDTH1 1000 0
BBX 7 7 0 -1
BITMAP
3C
48
FC
16
FC
10
30
ENDCHAR
STARTCHAR uni4E8A
ENCODING 20106
SWIDTH 1000 0
SWIDTH1 1000 0
BBX 7 7 0 -1
BITMAP
10
FE
54
FC
16
FC
30
ENDCHAR
STARTCHAR uni4E8B
ENCODING 20107
SWIDTH 1000 0
SWIDTH1 1000 0
BBX 7 7 0 -1
BITMAP
10
FE
54
FC
16
FC
30
ENDCHAR
STARTCHAR uni4E8C
ENCODING 20108
SWIDTH 1000 0
SWIDTH1 1000 0
BBX 7 6 0 -1
BITMAP
7C
00
00
00
00
FE
ENDCHAR
STARTCHAR uni4E8D
ENCODING 20109
SWIDTH 1000 0
SWIDTH1 1000 0
BBX 7 7 0 -1
BITMAP
7C
00
FE
10
10
10
30
ENDCHAR
STARTCHAR uni4E8E
ENCODING 20110
SWIDTH 1000 0
SWIDTH1 1000 0
BBX 7 7 0 -1
BITMAP
7C
10
10
FE
10
10
30
ENDCHAR
STARTCHAR uni4E8F
ENCODING 20111
SWIDTH 1000 0
SWIDTH1 1000 0
DWIDTH1 0 0
BBX 7 7 0 -1
BITMAP
7C
00
FE
20
3C
04
0C
ENDCHAR
STARTCHAR uni4E90
ENCODING 20112
SWIDTH 1000 0
SWIDTH1 1000 0
DWIDTH1 0 0
BBX 7 7 0 -1
BITMAP
7C
20
FE
20
3C
04
0C
ENDCHAR
STARTCHAR uni4E91
ENCODING 20113
SWIDTH 1000 0
SWIDTH1 1000 0
BBX 7 7 0 -1
BITMAP
7C
00
FE
10
10
24
FA
ENDCHAR
STARTCHAR uni4E92
ENCODING 20114
SWIDTH 1000 0
SWIDTH1 1000 0
BBX 7 7 0 -1
BITMAP
FE
40
7C
44
7C
04
FE
ENDCHAR
STARTCHAR uni4E93
ENCODING 20115
SWIDTH 1000 0
SWIDTH1 1000 0
BBX 7 7 0 -1
BITMAP
7C
00
FE
24
24
24
44
ENDCHAR
STARTCHAR uni4E94
ENCODING 20116
SWIDTH 1000 0
SWIDTH1 1000 0
BBX 7 7 0 -1
BITMAP
7C
10
10
7C
24
24
FE
ENDCHAR
STARTCHAR uni4E95
ENCODING 20117
SWIDTH 1000 0
SWIDTH1 1000 0
BBX 6 7 1 -1
BITMAP
48
FC
48
48
FC
48
88
ENDCHAR
STARTCHAR uni4E96
ENCODING 20118
SWIDTH 1000 0
SWIDTH1 1000 0
DWIDTH1 0 0
BBX 7 7 0 -1
BITMAP
7C
00
FE
00
7C
00
FE
ENDCHAR
STARTCHAR uni4E97
ENCODING 20119
SWIDTH 1000 0
SWIDTH1 1000 0
DWIDTH1 0 0
BBX 7 7 0 -1
BITMAP
92
92
FE
00
7C
00
FE
ENDCHAR
STARTCHAR uni4E98
ENCODING 20120
SWIDTH 1000 0
SWIDTH1 1000 0
BBX 7 7 0 -1
BITMAP
FE
44
7C
44
7C
00
FE
ENDCHAR
STARTCHAR uni4E99
ENCODING 20121
SWIDTH 1000 0
SWIDTH1 1000 0
BBX 7 7 0 -1
BITMAP
FE
20
3C
54
A8
10
FE
ENDCHAR
STARTCHAR uni4E9A
ENCODING 20122
SWIDTH 1000 0
SWIDTH1 1000 0
BBX 7 7 0 -1
BITMAP
FE
28
AA
AA
AA
28
FE
ENDCHAR
STARTCHAR uni4E9B
ENCODING 20123
SWIDTH 1000 0
SWIDTH1 1000 0
BBX 7 7 0 -1
BITMAP
24
B6
A4
F6
38
00
FE
ENDCHAR
STARTCHAR uni4E9C
ENCODING 20124
SWIDTH 1000 0
SWIDTH1 1000 0
BBX 7 7 0 -1
BITMAP
FE
28
FE
AA
FE
28
FE
ENDCHAR
STARTCHAR uni4E9D
ENCODING 20125
SWIDTH 1000 0
SWIDTH1 1000 0
DWIDTH1 0 0
BBX 7 7 0 -1
BITMAP
28
7C
44
AA
FE
00
FE
ENDCHAR
STARTCHAR uni4E9E
ENCODING 20126
SWIDTH 1000 0
SWIDTH1 1000 0
BBX 7 7 0 -1
BITMAP
FE
28
EE
82
EE
28
FE
ENDCHAR
STARTCHAR uni4E9F
ENCODING 20127
SWIDTH 1000 0
SWIDTH1 1000 0
BBX 7 7 0 -1
BITMAP
F8
08
FE
BA
D4
3A
FE
ENDCHAR
STARTCHAR uni4EA0
ENCODING 20128
SWIDTH 1000 0
SWIDTH1 1000 0
BBX 7 4 0 2
BITMAP
20
10
00
FE
ENDCHAR
STARTCHAR uni4EA1
ENCODING 20129
SWIDTH 1000 0
SWIDTH1 1000 0
BBX 7 7 0 -1
BITMAP
10
FE
40
40
40
40
3E
ENDCHAR
STARTCHAR uni4EA2
ENCODING 20130
SWIDTH 1000 0
SWIDTH1 1000 0
BBX 7 7 0 -1
BITMAP
10
FE
00
38
28
2A
CE
ENDCHAR
STARTCHAR uni4EA3
ENCODING 20131
SWIDTH 1000 0
SWIDTH1 1000 0
DWIDTH1 0 0
BBX 7 7 0 -1
BITMAP
10
00
FE
24
24
24
44
ENDCHAR
STARTCHAR uni4EA4
ENCODING 20132
SWIDTH 1000 0
SWIDTH1 1000 0
BBX 7 7 0 -1
BITMAP
10
FE
28
C6
28
10
EE
ENDCHAR
STARTCHAR uni4EA5
ENCODING 20133
SWIDTH 1000 0
SWIDTH1 1000 0
BBX 7 7 0 -1
BITMAP
10
FE
20
54
28
14
E2
ENDCHAR
STARTCHAR uni4EA6
ENCODING 20134
SWIDTH 1000 0
SWIDTH1 1000 0
BBX 7 7 0 -1
BITMAP
10
FE
28
AA
AA
28
58
ENDCHAR
STARTCHAR uni4EA7
ENCODING 20135
SWIDTH 1000 0
SWIDTH1 1000 0
DWIDTH1 0 0
BBX 7 7 0 -1
BITMAP
10
FE
28
FE
80
80
80
ENDCHAR
STARTCHAR uni4EA8
ENCODING 20136
SWIDTH 1000 0
SWIDTH1 1000 0
BBX 7 7 0 -1
BITMAP
10
FE
28
7C
04
08
38
ENDCHAR
STARTCHAR uni4EA9
ENCODING 20137
SWIDTH 1000 0
SWIDTH1 1000 0
DWIDTH1 0 0
BBX 7 7 0 -1
BITMAP
10
00
FE
54
7C
54
7C
ENDCHAR
STARTCHAR uni4EAA
ENCODING 20138
SWIDTH 1000 0
SWIDTH1 1000 0
DWIDTH1 0 0
BBX 7 7 0 -1
BITMAP
10
FE
28
AA
00
7C
06
ENDCHAR
STARTCHAR uni4EAB
ENCODING 20139
SWIDTH 1000 0
SWIDTH1 1000 0
BBX 7 7 0 -1
BITMAP
10
FE
44
7C
08
FE
10
ENDCHAR
STARTCHAR uni4EAC
ENCODING 20140
SWIDTH 1000 0
SWIDTH1 1000 0
BBX 7 7 0 -1
BITMAP
10
FE
44
7C
10
54
B2
ENDCHAR
STARTCHAR uni4EAD
ENCODING 20141
SWIDTH 1000 0
SWIDTH1 1000 0
BBX 7 7 0 -1
BITMAP
10
FE
44
FE
BA
10
30
ENDCHAR
STARTCHAR uni4EAE
ENCODING 20142
SWIDTH 1000 0
SWIDTH1 1000 0
BBX 7 7 0 -1
BITMAP
10
FE
44
FE
82
38
CE
ENDCHAR
STARTCHAR uni4EAF
ENCODING 20143
SWIDTH 1000 0
SWIDTH1 1000 0
DWIDTH1 0 0
BBX 7 7 0 -1
BITMAP
10
FE
44
7C
FE
82
FE
ENDCHAR
STARTCHAR uni4EB0
ENCODING 20144
SWIDTH 1000 0
SWIDTH1 1000 0
BBX 7 7 0 -1
BITMAP
10
FE
44
7C
44
7C
92
ENDCHAR
STARTCHAR uni4EB1
ENCODING 20145
SWIDTH 1000 0
SWIDTH1 1000 0
DWIDTH1 0 0
BBX 7 7 0 -1
BITMAP
10
FE
5C
D4
5C
54
7E
ENDCHAR
STARTCHAR uni4EB2
ENCODING 20146
SWIDTH 1000 0
SWIDTH1 1000 0
DWIDTH1 0 0
BBX 7 7 0 -1
BITMAP
10
FE
44
FE
10
FE
54
ENDCHAR
STARTCHAR uni4EB3
ENCODING 20147
SWIDTH 1000 0
SWIDTH1 1000 0
BBX 7 7 0 -1
BITMAP
10
FE
44
FE
9A
70
1E
ENDCHAR
STARTCHAR uni4EB4
ENCODING 20148
SWIDTH 1000 0
SWIDTH1 1000 0
DWIDTH1 0 0
BBX 7 7 0 -1
BITMAP
10
FE
28
FE
92
7C
26
ENDCHAR
STARTCHAR uni4EB5
ENCODING 20149
SWIDTH 1000 0
SWIDTH1 1000 0
BBX 7 7 0 -1
BITMAP
10
FE
48
7C
D6
68
B6
ENDCHAR
STARTCHAR uni4EB6
ENCODING 20150
SWIDTH 1000 0
SWIDTH1 1000 0
BBX 7 7 0 -1
BITMAP
10
FE
AA
BA
FE
44
FE
ENDCHAR
STARTCHAR uni4EB7
ENCODING 20151
SWIDTH 1000 0
SWIDTH1 1000 0
DWIDTH1 0 0
BBX 7 7 0 -1
BITMAP
10
FE
28
7E
6A
7C
AA
ENDCHAR
STARTCHAR uni4EB8
ENCODING 20152
SWIDTH 1000 0
SWIDTH1 1000 0
DWIDTH1 0 0
BBX 7 7 0 -1
BITMAP
4A
E0
AE
EA
44
EE
44
ENDCHAR
STARTCHAR uni4EB9
ENCODING 20153
SWIDTH 1000 0
SWIDTH1 1000 0
DWIDTH1 0 0
BBX 7 7 0 -1
BITMAP
10
FE
AA
FE
BA
28
FE
ENDCHAR
STARTCHAR uni4EBA
ENCODING 20154
SWIDTH 1000 0
SWIDTH1 1000 0
BBX 7 7 0 -1
BITMAP
10
10
10
28
28
44
82
ENDCHAR
STARTCHAR uni4EBB
ENCODING 20155
SWIDTH 1000 0
SWIDTH1 1000 0
BBX 3 7 1 -1
BITMAP
20
40
C0
40
40
40
40
ENDCHAR
STARTCHAR uni4EBC
ENCODING 20156
SWIDTH 1000 0
SWIDTH1 1000 0
DWIDTH1 0 0
BBX 7 7 0 -1
BITMAP
10
10
10
28
C6
00
FE
ENDCHAR
STARTCHAR uni4EBD
ENCODING 20157
SWIDTH 1000 0
SWIDTH1 1000 0
DWIDTH1 0 0
BBX 7 7 0 -1
BITMAP
10
10
28
C6
00
30
08
ENDCHAR
STARTCHAR uni4EBE
ENCODING 20158
SWIDTH 1000 0
SWIDTH1 1000 0
DWIDTH1 0 0
BBX 7 7 0 -1
BITMAP
88
88
88
94
A2
80
FE
ENDCHAR
STARTCHAR uni4EBF
ENCODING 20159
SWIDTH 1000 0
SWIDTH1 1000 0
DWIDTH1 0 0
BBX 7 7 0 -1
BITMAP
5E
42
C4
48
50
52
5E
ENDCHAR
STARTCHAR uni4EC0
ENCODING 20160
SWIDTH 1000 0
SWIDTH1 1000 0
BBX 7 7 0 -1
BITMAP
48
48
C8
7E
48
48
48
ENDCHAR
STARTCHAR uni4EC1
ENCODING 20161
SWIDTH 1000 0
SWIDTH1 1000 0
BBX 7 7 0 -1
BITMAP
40
5C
C0
40
40
7E
40
ENDCHAR
STARTCHAR uni4EC2
ENCODING 20162
SWIDTH 1000 0
SWIDTH1 1000 0
BBX 7 7 0 -1
BITMAP
48
48
DE
4A
4A
4A
56
ENDCHAR
STARTCHAR uni4EC3
ENCODING 20163
SWIDTH 1000 0
SWIDTH1 1000 0
DWIDTH1 0 0
BBX 7 7 0 -1
BITMAP
2E
44
C4
44
44
44
4C
ENDCHAR
STARTCHAR uni4EC4
ENCODING 20164
SWIDTH 1000 0
SWIDTH1 1000 0
BBX 7 7 0 -1
BITMAP
7E
48
48
48
48
54
A2
ENDCHAR
STARTCHAR uni4EC5
ENCODING 20165
SWIDTH 1000 0
SWIDTH1 1000 0
DWIDTH1 0 0
BBX 7 7 0 -1
BITMAP
5E
D2
52
52
4C
4C
52
ENDCHAR
STARTCHAR uni4EC6
ENCODING 20166
SWIDTH 1000 0
SWIDTH1 1000 0
BBX 7 7 0 -1
BITMAP
28
48
C8
4C
4A
48
48
ENDCHAR
STARTCHAR uni4EC7
ENCODING 20167
SWIDTH 1000 0
SWIDTH1 1000 0
BBX 7 7 0 -1
BITMAP
28
7C
D4
54
54
54
66
ENDCHAR
STARTCHAR uni4EC8
ENCODING 20168
SWIDTH 1000 0
SWIDTH1 1000 0
DWIDTH1 0 0
BBX 7 7 0 -1
BITMAP
54
54
D4
54
54
62
62
ENDCHAR
STARTCHAR uni4EC9
ENCODING 20169
SWIDTH 1000 0
SWIDTH1 1000 0
BBX 7 7 0 -1
BITMAP
5C
54
D4
54
54
54
66
ENDCHAR
STARTCHAR uni4ECA
ENCODING 20170
SWIDTH 1000 0
SWIDTH1 1000 0
BBX 7 7 0 -1
BITMAP
10
28
D6
00
7C
08
30
ENDCHAR
STARTCHAR uni4ECB
ENCODING 20171
SWIDTH 1000 0
SWIDTH1 1000 0
BBX 7 7 0 -1
BITMAP
10
28
C6
28
28
28
48
ENDCHAR
STARTCHAR uni4ECC
ENCODING 20172
SWIDTH 1000 0
SWIDTH1 1000 0
DWIDTH1 0 0
BBX 7 7 0 -1
BITMAP
10
10
28
C6
10
28
C6
ENDCHAR
STARTCHAR uni4ECD
ENCODING 20173
SWIDTH 1000 0
SWIDTH1 1000 0
BBX 7 7 0 -1
BITMAP
3C
54
D6
52
52
52
66
ENDCHAR
STARTCHAR uni4ECE
ENCODING 20174
SWIDTH 1000 0
SWIDTH1 1000 0
BBX 7 7 0 -1
BITMAP
24
24
24
24
34
4A
92
ENDCHAR
STARTCHAR uni4ECF
ENCODING 20175
SWIDTH 1000 0
SWIDTH1 1000 0
BBX 7 7 0 -1
BITMAP
28
48
C8
48
50
54
7A
ENDCHAR
STARTCHAR uni4ED0
ENCODING 20176
SWIDTH 1000 0
SWIDTH1 1000 0
DWIDTH1 0 0
BBX 7 7 0 -1
BITMAP
10
28
D6
10
FE
10
10
ENDCHAR
STARTCHAR uni4ED1
ENCODING 20177
SWIDTH 1000 0
SWIDTH1 1000 0
DWIDTH1 0 0
BBX 7 7 0 -1
BITMAP
10
28
C6
48
70
44
7C
ENDCHAR
STARTCHAR uni4ED2
ENCODING 20178
SWIDTH 1000 0
SWIDTH1 1000 0
DWIDTH1 0 0
BBX 7 7 0 -1
BITMAP
10
28
44
92
08
20
18
ENDCHAR
STARTCHAR uni4ED3
ENCODING 20179
SWIDTH 1000 0
SWIDTH1 1000 0
DWIDTH1 0 0
BBX 7 7 0 -1
BITMAP
38
C6
78
48
58
44
7C
ENDCHAR
STARTCHAR uni4ED4
ENCODING 20180
SWIDTH 1000 0
SWIDTH1 1000 0
BBX 7 7 0 -1
BITMAP
3C
44
C8
7E
48
48
58
ENDCHAR
STARTCHAR uni4ED5
ENCODING 20181
SWIDTH 1000 0
SWIDTH1 1000 0
BBX 7 7 0 -1
BITMAP
28
48
FE
48
48
48
5C
ENDCHAR
STARTCHAR uni4ED6
ENCODING 20182
SWIDTH 1000 0
SWIDTH1 1000 0
BBX 7 7 0 -1
BITMAP
24
54
DE
76
54
52
5E
ENDCHAR
STARTCHAR uni4ED7
ENCODING 20183
SWIDTH 1000 0
SWIDTH1 1000 0
BBX 7 7 0 -1
BITMAP
28
7E
C8
58
48
54
62
ENDCHAR
STARTCHAR uni4ED8
ENCODING 20184
SWIDTH 1000 0
SWIDTH1 1000 0
BBX 7 7 0 -1
BITMAP
44
5E
C4
54
44
44
4C
ENDCHAR
STARTCHAR uni4ED9
ENCODING 20185
SWIDTH 1000 0
SWIDTH1 1000 0
BBX 7 7 0 -1
BITMAP
48
88
AA
AA
AA
AA
BE
ENDCHAR
STARTCHAR uni4EDA
ENCODING 20186
SWIDTH 1000 0
SWIDTH1 1000 0
DWIDTH1 0 0
BBX 7 7 0 -1
BITMAP
10
28
C6
10
54
54
7C
ENDCHAR
STARTCHAR uni4EDB
ENCODING 20187
SWIDTH 1000 0
SWIDTH1 1000 0
DWIDTH1 0 0
BBX 7 7 0 -1
BITMAP
26
5C
C4
5E
44
44
44
ENDCHAR
STARTCHAR uni4EDC
ENCODING 20188
SWIDTH 1000 0
SWIDTH1 1000 0
DWIDTH1 0 0
BBX 7 7 0 -1
BITMAP
5E
48
C8
48
48
48
5E
ENDCHAR
STARTCHAR uni4EDD
ENCODING 20189
SWIDTH 1000 0
SWIDTH1 1000 0
BBX 7 7 0 -1
BITMAP
10
28
C6
7C
10
10
FE
ENDCHAR
STARTCHAR uni4EDE
ENCODING 20190
SWIDTH 1000 0
SWIDTH1 1000 0
BBX 7 7 0 -1
BITMAP
5E
4A
CA
5A
6A
4A
56
ENDCHAR
STARTCHAR uni4EDF
ENCODING 20191
SWIDTH 1000 0
SWIDTH1 1000 0
BBX 7 7 0 -1
BITMAP
24
58
C8
7E
48
48
48
ENDCHAR
STARTCHAR uni4EE0
ENCODING 20192
SWIDTH 1000 0
SWIDTH1 1000 0
DWIDTH1 0 0
BBX 7 7 0 -1
BITMAP
26
5C
C4
5E
44
44
44
ENDCHAR
STARTCHAR uni4EE1
ENCODING 20193
SWIDTH 1000 0
SWIDTH1 1000 0
DWIDTH1 0 0
BBX 7 7 0 -1
BITMAP
48
CE
50
4E
44
48
4E
ENDCHAR
STARTCHAR uni4EE2
ENCODING 20194
SWIDTH 1000 0
SWIDTH1 1000 0
DWIDTH1 0 0
BBX 7 7 0 -1
BITMAP
48
CE
52
42
4A
42
46
ENDCHAR
STARTCHAR uni4EE3
ENCODING 20195
SWIDTH 1000 0
SWIDTH1 1000 0
BBX 7 7 0 -1
BITMAP
4A
48
FE
48
48
4A
46
ENDCHAR
STARTCHAR uni4EE4
ENCODING 20196
SWIDTH 1000 0
SWIDTH1 1000 0
BBX 7 7 0 -1
BITMAP
10
28
D6
7C
04
28
10
ENDCHAR
STARTCHAR uni4EE5
ENCODING 20197
SWIDTH 1000 0
SWIDTH1 1000 0
BBX 7 7 0 -1
BITMAP
44
54
44
44
64
8C
32
ENDCHAR
STARTCHAR uni4EE6
ENCODING 20198
SWIDTH 1000 0
SWIDTH1 1000 0
DWIDTH1 0 0
BBX 7 7 0 -1
BITMAP
48
48
DC
5A
6A
48
58
ENDCHAR
STARTCHAR uni4EE7
ENCODING 20199
SWIDTH 1000 0
SWIDTH1 1000 0
DWIDTH1 0 0
BBX 7 7 0 -1
BITMAP
10
1E
10
FE
10
28
C6
ENDCHAR
STARTCHAR uni4EE8
ENCODING 20200
SWIDTH 1000 0
SWIDTH1 1000 0
DWIDTH1 0 0
BBX 7 7 0 -1
BITMAP
5E
C0
40
5E
40
40
5E
ENDCHAR
STARTCHAR uni4EE9
ENCODING 20201
SWIDTH 1000 0
SWIDTH1 1000 0
DWIDTH1 0 0
BBX 7 7 0 -1
BITMAP
48
48
CE
48
48
48
5E
ENDCHAR
STARTCHAR uni4EEA
ENCODING 20202
SWIDTH 1000 0
SWIDTH1 1000 0
BBX 7 7 0 -1
BITMAP
40
6A
E2
54
48
54
62
ENDCHAR
STARTCHAR uni4EEB
ENCODING 20203
SWIDTH 1000 0
SWIDTH1 1000 0
DWIDTH1 0 0
BBX 7 7 0 -1
BITMAP
48
50
C4
48
50
64
7A
ENDCHAR
STARTCHAR uni4EEC
ENCODING 20204
SWIDTH 1000 0
SWIDTH1 1000 0
DWIDTH1 0 0
BBX 7 7 0 -1
BITMAP
56
C2
52
52
52
52
56
ENDCHAR
STARTCHAR uni4EED
ENCODING 20205
SWIDTH 1000 0
SWIDTH1 1000 0
BBX 7 7 0 -1
BITMAP
3E
4A
DA
4A
4E
4A
56
ENDCHAR
STARTCHAR uni4EEE
ENCODING 20206
SWIDTH 1000 0
SWIDTH1 1000 0
BBX 7 7 0 -1
BITMAP
5E
50
DE
52
5A
54
6A
ENDCHAR
STARTCHAR uni4EEF
ENCODING 20207
SWIDTH 1000 0
SWIDTH1 1000 0
DWIDTH1 0 0
BBX 7 7 0 -1
BITMAP
48
DC
5A
68
4A
44
58
ENDCHAR
STARTCHAR uni4EF0
ENCODING 20208
SWIDTH 1000 0
SWIDTH1 1000 0
BBX 7 7 0 -1
BITMAP
50
6E
EA
6A
7A
6C
48
ENDCHAR
STARTCHAR uni4EF1
ENCODING 20209
SWIDTH 1000 0
SWIDTH1 1000 0
DWIDTH1 0 0
BBX 7 7 0 -1
BITMAP
48
D4
6A
40
5C
44
48
ENDCHAR
STARTCHAR uni4EF2
ENCODING 20210
SWIDTH 1000 0
SWIDTH1 1000 0
BBX 7 7 0 -1
BITMAP
48
7E
EA
6A
7E
48
48
ENDCHAR
STARTCHAR uni4EF3
ENCODING 20211
SWIDTH 1000 0
SWIDTH1 1000 0
BBX 7 7 0 -1
BITMAP
54
D4
5E
54
54
5C
56
ENDCHAR
STARTCHAR uni4EF4
ENCODING 20212
SWIDTH 1000 0
SWIDTH1 1000 0
DWIDTH1 0 0
BBX 7 7 0 -1
BITMAP
5E
52
DE
52
5E
52
66
ENDCHAR
STARTCHAR uni4EF5
ENCODING 20213
SWIDTH 1000 0
SWIDTH1 1000 0
BBX 8 7 0 -1
BITMAP
48
4F
D4
44
5F
44
44
ENDCHAR
STARTCHAR uni4EF6
ENCODING 20214
SWIDTH 1000 0
SWIDTH1 1000 0
BBX 7 7 0 -1
BITMAP
54
5E
D4
44
5E
44
44
ENDCHAR
STARTCHAR uni4EF7
ENCODING 20215
SWIDTH 1000 0
SWIDTH1 1000 0
BBX 7 7 0 -1
BITMAP
28
54
E2
54
54
54
64
ENDCHAR
STARTCHAR uni4EF8
ENCODING 20216
SWIDTH 1000 0
SWIDTH1 1000 0
DWIDTH1 0 0
BBX 7 7 0 -1
BITMAP
4C
58
C8
7E
48
54
62
ENDCHAR
STARTCHAR uni4EF9
ENCODING 20217
SWIDTH 1000 0
SWIDTH1 1000 0
DWIDTH1 0 0
BBX 7 7 0 -1
BITMAP
48
7E
C8
5C
48
7E
48
ENDCHAR
STARTCHAR uni4EFA
ENCODING 20218
SWIDTH 1000 0
SWIDTH1 1000 0
DWIDTH1 0 0
BBX 7 7 0 -1
BITMAP
10
28
7C
C2
78
40
7C
ENDCHAR
STARTCHAR uni4EFB
ENCODING 20219
SWIDTH 1000 0
SWIDTH1 1000 0
BBX 7 7 0 -1
BITMAP
24
58
C8
7E
48
48
5C
ENDCHAR
STARTCHAR uni4EFC
ENCODING 20220
SWIDTH 1000 0
SWIDTH1 1000 0
DWIDTH1 0 0
BBX 7 7 0 -1
BITMAP
2E
44
C4
4E
44
44
4E
ENDCHAR
STARTCHAR uni4EFD
ENCODING 20221
SWIDTH 1000 0
SWIDTH1 1000 0
DWIDTH1 0 0
BBX 7 7 0 -1
BITMAP
54
D4
62
40
5E
4A
56
ENDCHAR
STARTCHAR uni4EFE
ENCODING 20222
SWIDTH 1000 0
SWIDTH1 1000 0
DWIDTH1 0 0
BBX 7 7 0 -1
BITMAP
7E
50
DC
54
5C
44
7E
ENDCHAR
STARTCHAR uni4EFF
ENCODING 20223
SWIDTH 1000 0
SWIDTH1 1000 0
DWIDTH1 0 0
BBX 7 7 0 -1
BITMAP
28
40
DE
48
4E
52
56
ENDCHAR
STARTCHAR uni4F00
ENCODING 20224
SWIDTH 1000 0
SWIDTH1 1000 0
DWIDTH1 0 0
BBX 7 7 0 -1
BITMAP
54
54
E2
48
48
54
5A
ENDCHAR
STARTCHAR uni4F01
ENCODING 20225
SWIDTH 1000 0
SWIDTH1 1000 0
BBX 7 7 0 -1
BITMAP
10
28
D6
10
5C
50
FE
ENDCHAR
STARTCHAR uni4F02
ENCODING 20226
SWIDTH 1000 0
SWIDTH1 1000 0
DWIDTH1 0 0
BBX 7 7 0 -1
BITMAP
48
7E
C8
7E
6A
6E
48
ENDCHAR
STARTCHAR uni4F03
ENCODING 20227
SWIDTH 1000 0
SWIDTH1 1000 0
DWIDTH1 0 0
BBX 7 7 0 -1
BITMAP
5E
C2
54
48
5E
4A
58
ENDCHAR
STARTCHAR uni4F04
ENCODING 20228
SWIDTH 1000 0
SWIDTH1 1000 0
DWIDTH1 0 0
BBX 7 7 0 -1
BITMAP
5E
4A
FE
68
7E
4A
48
ENDCHAR
STARTCHAR uni4F05
ENCODING 20229
SWIDTH 1000 0
SWIDTH1 1000 0
DWIDTH1 0 0
BBX 7 7 0 -1
BITMAP
48
FE
48
6A
7E
48
4E
ENDCHAR
STARTCHAR uni4F06
ENCODING 20230
SWIDTH 1000 0
SWIDTH1 1000 0
DWIDTH1 0 0
BBX 7 7 0 -1
BITMAP
50
7E
CA
56
6A
52
46
ENDCHAR
STARTCHAR uni4F07
ENCODING 20231
SWIDTH 1000 0
SWIDTH1 1000 0
DWIDTH1 0 0
BBX 7 7 0 -1
BITMAP
5C
54
E2
5C
54
48
54
ENDCHAR
STARTCHAR uni4F08
ENCODING 20232
SWIDTH 1000 0
SWIDTH1 1000 0
DWIDTH1 0 0
BBX 7 7 0 -1
BITMAP
28
44
D0
64
52
54
5C
ENDCHAR
STARTCHAR uni4F09
ENCODING 20233
SWIDTH 1000 0
SWIDTH1 1000 0
BBX 7 7 0 -1
BITMAP
28
7E
C0
5C
54
54
66
ENDCHAR
STARTCHAR uni4F0A
ENCODING 20234
SWIDTH 1000 0
SWIDTH1 1000 0
BBX 7 7 0 -1
BITMAP
3E
4A
FE
4A
5E
48
50
ENDCHAR
STARTCHAR uni4F0B
ENCODING 20235
SWIDTH 1000 0
SWIDTH1 1000 0
DWIDTH1 0 0
BBX 7 7 0 -1
BITMAP
5E
52
D4
5E
5A
54
6A
ENDCHAR
STARTCHAR uni4F0C
ENCODING 20236
SWIDTH 1000 0
SWIDTH1 1000 0
DWIDTH1 0 0
BBX 7 7 0 -1
BITMAP
5E
50
DE
5A
5E
68
6E
ENDCHAR
STARTCHAR uni4F0D
ENCODING 20237
SWIDTH 1000 0
SWIDTH1 1000 0
BBX 7 7 0 -1
BITMAP
3C
48
C8
7C
54
54
7E
ENDCHAR
STARTCHAR uni4F0E
ENCODING 20238
SWIDTH 1000 0
SWIDTH1 1000 0
BBX 7 7 0 -1
BITMAP
28
7E
C8
7C
54
48
76
ENDCHAR
STARTCHAR uni4F0F
ENCODING 20239
SWIDTH 1000 0
SWIDTH1 1000 0
BBX 7 7 0 -1
BITMAP
2A
48
FE
48
48
54
62
ENDCHAR
STARTCHAR uni4F10
ENCODING 20240
SWIDTH 1000 0
SWIDTH1 1000 0
BBX 7 7 0 -1
BITMAP
2A
48
DE
48
4A
44
5A
ENDCHAR
STARTCHAR uni4F11
ENCODING 20241
SWIDTH 1000 0
SWIDTH1 1000 0
BBX 7 7 0 -1
BITMAP
28
48
FE
48
5C
6A
48
ENDCHAR
STARTCHAR uni4F12
ENCODING 20242
SWIDTH 1000 0
SWIDTH1 1000 0
DWIDTH1 0 0
BBX 7 7 0 -1
BITMAP
22
5C
D0
5E
54
54
64
ENDCHAR
STARTCHAR uni4F13
ENCODING 20243
SWIDTH 1000 0
SWIDTH1 1000 0
DWIDTH1 0 0
BBX 7 7 0 -1
BITMAP
2E
44
CC
56
44
44
44
ENDCHAR
STARTCHAR uni4F14
ENCODING 20244
SWIDTH 1000 0
SWIDTH1 1000 0
DWIDTH1 0 0
BBX 7 7 0 -1
BITMAP
5E
52
C0
54
54
54
56
ENDCHAR
STARTCHAR uni4F15
ENCODING 20245
SWIDTH 1000 0
SWIDTH1 1000 0
DWIDTH1 0 0
BBX 7 7 0 -1
BITMAP
48
5C
C8
7E
48
54
62
ENDCHAR
STARTCHAR uni4F16
ENCODING 20246
SWIDTH 1000 0
SWIDTH1 1000 0
DWIDTH1 0 0
BBX 7 7 0 -1
BITMAP
48
5E
C8
4E
4A
54
4A
ENDCHAR
STARTCHAR uni4F17
ENCODING 20247
SWIDTH 1000 0
SWIDTH1 1000 0
DWIDTH1 0 0
BBX 7 7 0 -1
BITMAP
10
28
C6
00
44
44
AA
ENDCHAR
STARTCHAR uni4F18
ENCODING 20248
SWIDTH 1000 0
SWIDTH1 1000 0
BBX 7 7 0 -1
BITMAP
52
D0
7E
54
54
54
66
ENDCHAR
STARTCHAR uni4F19
ENCODING 20249
SWIDTH 1000 0
SWIDTH1 1000 0
DWIDTH1 0 0
BBX 7 7 0 -1
BITMAP
48
6A
DC
48
48
54
62
ENDCHAR
STARTCHAR uni4F1A
ENCODING 20250
SWIDTH 1000 0
SWIDTH1 1000 0
BBX 7 7 0 -1
BITMAP
38
C6
7C
00
FE
24
7A
ENDCHAR
STARTCHAR uni4F1B
ENCODING 20251
SWIDTH 1000 0
SWIDTH1 1000 0
DWIDTH1 0 0
BBX 7 7 0 -1
BITMAP
5E
50
DA
54
5A
50
5E
ENDCHAR
STARTCHAR uni4F1C
ENCODING 20252
SWIDTH 1000 0
SWIDTH1 1000 0
BBX 7 7 0 -1
BITMAP
28
7C
D4
66
48
7E
48
ENDCHAR
STARTCHAR uni4F1D
ENCODING 20253
SWIDTH 1000 0
SWIDTH1 1000 0
BBX 7 7 0 -1
BITMAP
3C
40
FE
48
48
54
7A
ENDCHAR
STARTCHAR uni4F1E
ENCODING 20254
SWIDTH 1000 0
SWIDTH1 1000 0
DWIDTH1 0 0
BBX 7 7 0 -1
BITMAP
10
38
D6
54
FE
10
10
ENDCHAR
STARTCHAR uni4F1F
ENCODING 20255
SWIDTH 1000 0
SWIDTH1 1000 0
DWIDTH1 0 0
BBX 7 7 0 -1
BITMAP
48
5E
C8
5E
4A
4E
48
ENDCHAR
STARTCHAR uni4F20
ENCODING 20256
SWIDTH 1000 0
SWIDTH1 1000 0
DWIDTH1 0 0
BBX 7 7 0 -1
BITMAP
28
5E
C8
5E
48
4E
42
ENDCHAR
STARTCHAR uni4F21
ENCODING 20257
SWIDTH 1000 0
SWIDTH1 1000 0
DWIDTH1 0 0
BBX 7 7 0 -1
BITMAP
48
7E
D4
5E
44
5E
44
ENDCHAR
STARTCHAR uni4F22
ENCODING 20258
SWIDTH 1000 0
SWIDTH1 1000 0
DWIDTH1 0 0
BBX 7 7 0 -1
BITMAP
5C
C4
54
5E
4C
54
4C
ENDCHAR
STARTCHAR uni4F23
ENCODING 20259
SWIDTH 1000 0
SWIDTH1 1000 0
DWIDTH1 0 0
BBX 7 7 0 -1
BITMAP
5E
52
DA
5A
48
4A
56
ENDCHAR
STARTCHAR uni4F24
ENCODING 20260
SWIDTH 1000 0
SWIDTH1 1000 0
DWIDTH1 0 0
BBX 7 7 0 -1
BITMAP
50
5E
E8
5E
4A
4A
56
ENDCHAR
STARTCHAR uni4F25
ENCODING 20261
SWIDTH 1000 0
SWIDTH1 1000 0
DWIDTH1 0 0
BBX 7 7 0 -1
BITMAP
52
D4
7E
50
58
54
5A
ENDCHAR
STARTCHAR uni4F26
ENCODING 20262
SWIDTH 1000 0
SWIDTH1 1000 0
DWIDTH1 0 0
BBX 7 7 0 -1
BITMAP
28
54
E2
54
58
52
5E
ENDCHAR
STARTCHAR uni4F27
ENCODING 20263
SWIDTH 1000 0
SWIDTH1 1000 0
DWIDTH1 0 0
BBX 7 7 0 -1
BITMAP
28
54
FE
54
5C
52
5E
ENDCHAR
STARTCHAR uni4F28
ENCODING 20264
SWIDTH 1000 0
SWIDTH1 1000 0
DWIDTH1 0 0
BBX 7 7 0 -1
BITMAP
50
5E
E2
56
4A
52
46
ENDCHAR
STARTCHAR uni4F29
ENCODING 20265
SWIDTH 1000 0
SWIDTH1 1000 0
DWIDTH1 0 0
BBX 7 7 0 -1
BITMAP
48
7E
D4
54
48
54
62
ENDCHAR
STARTCHAR uni4F2A
ENCODING 20266
SWIDTH 1000 0
SWIDTH1 1000 0
DWIDTH1 0 0
BBX 7 7 0 -1
BITMAP
58
48
FE
4A
4E
52
66
ENDCHAR
STARTCHAR uni4F2B
ENCODING 20267
SWIDTH 1000 0
SWIDTH1 1000 0
BBX 7 7 0 -1
BITMAP
48
40
DE
52
40
40
5E
ENDCHAR
STARTCHAR uni4F2C
ENCODING 20268
SWIDTH 1000 0
SWIDTH1 1000 0
DWIDTH1 0 0
BBX 7 7 0 -1
BITMAP
5E
52
D2
5E
54
54
52
ENDCHAR
STARTCHAR uni4F2D
ENCODING 20269
SWIDTH 1000 0
SWIDTH1 1000 0
DWIDTH1 0 0
BBX 7 7 0 -1
BITMAP
48
7E
C8
54
48
52
5E
ENDCHAR
STARTCHAR uni4F2E
ENCODING 20270
SWIDTH 1000 0
SWIDTH1 1000 0
DWIDTH1 0 0
BBX 7 7 0 -1
BITMAP
AE
FA
AA
AA
AC
94
AA
ENDCHAR
STARTCHAR uni4F2F
ENCODING 20271
SWIDTH 1000 0
SWIDTH1 1000 0
BBX 7 7 0 -1
BITMAP
28
5E
D2
5E
52
52
5E
ENDCHAR
STARTCHAR uni4F30
ENCODING 20272
SWIDTH 1000 0
SWIDTH1 1000 0
BBX 7 7 0 -1
BITMAP
28
48
FE
48
5C
54
5C
ENDCHAR
STARTCHAR uni4F31
ENCODING 20273
SWIDTH 1000 0
SWIDTH1 1000 0
DWIDTH1 0 0
BBX 7 7 0 -1
BITMAP
28
54
E2
48
6A
48
58
ENDCHAR
STARTCHAR uni4F32
ENCODING 20274
SWIDTH 1000 0
SWIDTH1 1000 0
DWIDTH1 0 0
BBX 7 7 0 -1
BITMAP
5E
52
DE
50
5E
68
6E
ENDCHAR
STARTCHAR uni4F33
ENCODING 20275
SWIDTH 1000 0
SWIDTH1 1000 0
DWIDTH1 0 0
BBX 7 7 0 -1
BITMAP
54
54
FE
54
5C
50
5E
ENDCHAR
STARTCHAR uni4F34
ENCODING 20276
SWIDTH 1000 0
SWIDTH1 1000 0
BBX 7 7 0 -1
BITMAP
6A
48
DC
48
7E
48
48
ENDCHAR
STARTCHAR uni4F35
ENCODING 20277
SWIDTH 1000 0
SWIDTH1 1000 0
DWIDTH1 0 0
BBX 7 7 0 -1
BITMAP
BE
AA
AA
B6
A2
A2
BE
ENDCHAR
STARTCHAR uni4F36
ENCODING 20278
SWIDTH 1000 0
SWIDTH1 1000 0
BBX 7 7 0 -1
BITMAP
5C
6A
C0
7E
54
48
44
ENDCHAR
STARTCHAR uni4F37
ENCODING 20279
SWIDTH 1000 0
SWIDTH1 1000 0
DWIDTH1 0 0
BBX 7 7 0 -1
BITMAP
48
88
BE
AA
BE
AA
BE
ENDCHAR
STARTCHAR uni4F38
ENCODING 20280
SWIDTH 1000 0
SWIDTH1 1000 0
BBX 7 7 0 -1
BITMAP
48
BE
AA
BE
AA
BE
88
ENDCHAR
STARTCHAR uni4F39
ENCODING 20281
SWIDTH 1000 0
SWIDTH1 1000 0
DWIDTH1 0 0
BBX 7 7 0 -1
BITMAP
5C
54
DC
54
5C
54
7E
ENDCHAR
STARTCHAR uni4F3A
ENCODING 20282
SWIDTH 1000 0
SWIDTH1 1000 0
BBX 7 7 0 -1
BITMAP
5E
42
DA
42
5A
5A
46
ENDCHAR
STARTCHAR uni4F3B
ENCODING 20283
SWIDTH 1000 0
SWIDTH1 1000 0
DWIDTH1 0 0
BBX 7 7 0 -1
BITMAP
7E
48
EA
48
7E
48
48
ENDCHAR
STARTCHAR uni4F3C
ENCODING 20284
SWIDTH 1000 0
SWIDTH1 1000 0
BBX 7 7 0 -1
BITMAP
44
54
C4
64
74
64
5A
ENDCHAR
STARTCHAR uni4F3D
ENCODING 20285
SWIDTH 1000 0
SWIDTH1 1000 0
BBX 7 7 0 -1
BITMAP
50
7E
DA
DA
5A
6A
6E
ENDCHAR
STARTCHAR uni4F3E
ENCODING 20286
SWIDTH 1000 0
SWIDTH1 1000 0
DWIDTH1 0 0
BBX 7 7 0 -1
BITMAP
7E
44
C8
5C
6A
48
48
ENDCHAR
STARTCHAR uni4F3F
ENCODING 20287
SWIDTH 1000 0
SWIDTH1 1000 0
DWIDTH1 0 0
BBX 7 7 0 -1
BITMAP
5E
52
D2
5E
40
52
52
ENDCHAR
STARTCHAR uni4F40
ENCODING 20288
SWIDTH 1000 0
SWIDTH1 1000 0
DWIDTH1 0 0
BBX 7 7 0 -1
BITMAP
5E
52
DE
50
5E
52
5E
ENDCHAR
STARTCHAR uni4F41
ENCODING 20289
SWIDTH 1000 0
SWIDTH1 1000 0
DWIDTH1 0 0
BBX 7 7 0 -1
BITMAP
48
52
DE
40
5E
52
5E
ENDCHAR
STARTCHAR uni4F42
ENCODING 20290
SWIDTH 1000 0
SWIDTH1 1000 0
DWIDTH1 0 0
BBX 7 7 0 -1
BITMAP
5E
44
C4
46
54
54
5E
ENDCHAR
STARTCHAR uni4F43
ENCODING 20291
SWIDTH 1000 0
SWIDTH1 1000 0
BBX 7 7 0 -1
BITMAP
7E
AA
AA
BE
AA
AA
BE
ENDCHAR
STARTCHAR uni4F44
ENCODING 20292
SWIDTH 1000 0
SWIDTH1 1000 0
DWIDTH1 0 0
BBX 7 7 0 -1
BITMAP
54
D4
7E
54
5C
54
5C
ENDCHAR
STARTCHAR uni4F45
ENCODING 20293
SWIDTH 1000 0
SWIDTH1 1000 0
DWIDTH1 0 0
BBX 7 7 0 -1
BITMAP
48
5C
C8
7E
5C
6A
48
ENDCHAR
STARTCHAR uni4F46
ENCODING 20294
SWIDTH 1000 0
SWIDTH1 1000 0
BBX 7 7 0 -1
BITMAP
5E
52
DE
52
5E
40
5E
ENDCHAR
STARTCHAR uni4F47
ENCODING 20295
SWIDTH 1000 0
SWIDTH1 1000 0
BBX 7 7 0 -1
BITMAP
24
5E
D2
4E
44
44
4C
ENDCHAR
STARTCHAR uni4F48
ENCODING 20296
SWIDTH 1000 0
SWIDTH1 1000 0
DWIDTH1 0 0
BBX 7 7 0 -1
BITMAP
48
7E
D8
7E
6A
6E
48
ENDCHAR
STARTCHAR uni4F49
ENCODING 20297
SWIDTH 1000 0
SWIDTH1 1000 0
DWIDTH1 0 0
BBX 7 7 0 -1
BITMAP
48
5C
C8
7E
50
54
7A
ENDCHAR
STARTCHAR uni4F4A
ENCODING 20298
SWIDTH 1000 0
SWIDTH1 1000 0
DWIDTH1 0 0
BBX 7 7 0 -1
BITMAP
48
BE
AA
BC
B4
A8
B6
ENDCHAR
STARTCHAR uni4F4B
ENCODING 20299
SWIDTH 1000 0
SWIDTH1 1000 0
DWIDTH1 0 0
BBX 7 7 0 -1
BITMAP
5E
4A
D6
40
5E
52
5E
ENDCHAR
STARTCHAR uni4F4C
ENCODING 20300
SWIDTH 1000 0
SWIDTH1 1000 0
DWIDTH1 0 0
BBX 7 7 0 -1
BITMAP
54
54
DE
54
54
5C
76
ENDCHAR
STARTCHAR uni4F4D
ENCODING 20301
SWIDTH 1000 0
SWIDTH1 1000 0
BBX 7 7 0 -1
BITMAP
48
7E
D4
54
54
54
7E
ENDCHAR
STARTCHAR uni4F4E
ENCODING 20302
SWIDTH 1000 0
SWIDTH1 1000 0
BBX 7 7 0 -1
BITMAP
5E
54
DE
54
52
58
56
ENDCHAR
STARTCHAR uni4F4F
ENCODING 20303
SWIDTH 1000 0
SWIDTH1 1000 0
BBX 7 7 0 -1
BITMAP
28
40
DE
48
5C
48
5E
ENDCHAR
STARTCHAR uni4F50
ENCODING 20304
SWIDTH 1000 0
SWIDTH1 1000 0
BBX 7 7 0 -1
BITMAP
28
7E
D0
5E
54
64
5E
ENDCHAR
STARTCHAR uni4F51
ENCODING 20305
SWIDTH 1000 0
SWIDTH1 1000 0
BBX 7 7 0 -1
BITMAP
28
7E
D0
5E
72
52
5E
ENDCHAR
STARTCHAR uni4F52
ENCODING 20306
SWIDTH 1000 0
SWIDTH1 1000 0
DWIDTH1 0 0
BBX 7 7 0 -1
BITMAP
48
7E
EA
7E
48
54
62
ENDCHAR
STARTCHAR uni4F53
ENCODING 20307
SWIDTH 1000 0
SWIDTH1 1000 0
BBX 7 7 0 -1
BITMAP
28
7E
C8
5C
6A
5C
48
ENDCHAR
STARTCHAR uni4F54
ENCODING 20308
SWIDTH 1000 0
SWIDTH1 1000 0
DWIDTH1 0 0
BBX 7 7 0 -1
BITMAP
48
4E
C8
5E
52
52
5E
ENDCHAR
STARTCHAR uni4F55
ENCODING 20309
SWIDTH 1000 0
SWIDTH1 1000 0
BBX 7 7 0 -1
BITMAP
5E
42
DE
56
5E
42
4E
ENDCHAR
STARTCHAR uni4F56
ENCODING 20310
SWIDTH 1000 0
SWIDTH1 1000 0
DWIDTH1 0 0
BBX 7 7 0 -1
BITMAP
48
42
D2
54
6A
48
56
ENDCHAR
STARTCHAR uni4F57
ENCODING 20311
SWIDTH 1000 0
SWIDTH1 1000 0
BBX 7 7 0 -1
BITMAP
28
7E
E2
54
58
52
5E
ENDCHAR
STARTCHAR uni4F58
ENCODING 20312
SWIDTH 1000 0
SWIDTH1 1000 0
DWIDTH1 0 0
BBX 7 7 0 -1
BITMAP
38
C6
38
00
FE
54
92
ENDCHAR
STARTCHAR uni4F59
ENCODING 20313
SWIDTH 1000 0
SWIDTH1 1000 0
BBX 7 7 0 -1
BITMAP
38
C6
7C
10
FE
54
B2
ENDCHAR
STARTCHAR uni4F5A
ENCODING 20314
SWIDTH 1000 0
SWIDTH1 1000 0
BBX 7 7 0 -1
BITMAP
58
5C
E8
7E
48
54
62
ENDCHAR
STARTCHAR uni4F5B
ENCODING 20315
SWIDTH 1000 0
SWIDTH1 1000 0
BBX 7 7 0 -1
BITMAP
54
7E
DE
F4
7E
56
64
ENDCHAR
STARTCHAR uni4F5C
ENCODING 20316
SWIDTH 1000 0
SWIDTH1 1000 0
BBX 7 7 0 -1
BITMAP
28
4E
D8
4E
48
4E
48
ENDCHAR
STARTCHAR uni4F5D
ENCODING 20317
SWIDTH 1000 0
SWIDTH1 1000 0
BBX 7 7 0 -1
BITMAP
50
5E
E2
5A
5A
42
46
ENDCHAR
STARTCHAR uni4F5E
ENCODING 20318
SWIDTH 1000 0
SWIDTH1 1000 0
BBX 7 7 0 -1
BITMAP
5C
40
FE
50
7E
48
76
ENDCHAR
STARTCHAR uni4F5F
ENCODING 20319
SWIDTH 1000 0
SWIDTH1 1000 0
DWIDTH1 0 0
BBX 7 7 0 -1
BITMAP
50
5E
F4
48
76
40
4C
ENDCHAR
STARTCHAR uni4F60
ENCODING 20320
SWIDTH 1000 0
SWIDTH1 1000 0
DWIDTH1 0 0
BBX 7 7 0 -1
BITMAP
50
5E
EA
48
5C
6A
58
ENDCHAR
STARTCHAR uni4F61
ENCODING 20321
SWIDTH 1000 0
SWIDTH1 1000 0
DWIDTH1 0 0
BBX 7 7 0 -1
BITMAP
48
94
A2
88
AA
AA
BE
ENDCHAR
STARTCHAR uni4F62
ENCODING 20322
SWIDTH 1000 0
SWIDTH1 1000 0
DWIDTH1 0 0
BBX 7 7 0 -1
BITMAP
5E
50
DE
52
5E
50
5E
ENDCHAR
STARTCHAR uni4F63
ENCODING 20323
SWIDTH 1000 0
SWIDTH1 1000 0
DWIDTH1 0 0
BBX 7 7 0 -1
BITMAP
7E
AA
BE
AA
BE
AA
C6
ENDCHAR
STARTCHAR uni4F64
ENCODING 20324
SWIDTH 1000 0
SWIDTH1 1000 0
DWIDTH1 0 0
BBX 7 7 0 -1
BITMAP
7E
50
DC
54
5C
56
5A
ENDCHAR
STARTCHAR uni4F65
ENCODING 20325
SWIDTH 1000 0
SWIDTH1 1000 0
DWIDTH1 0 0
BBX 7 7 0 -1
BITMAP
38
44
BA
00
A2
54
FE
ENDCHAR
STARTCHAR uni4F66
ENCODING 20326
SWIDTH 1000 0
SWIDTH1 1000 0
DWIDTH1 0 0
BBX 7 7 0 -1
BITMAP
5E
48
D0
7E
52
52
5E
ENDCHAR
STARTCHAR uni4F67
ENCODING 20327
SWIDTH 1000 0
SWIDTH1 1000 0
DWIDTH1 0 0
BBX 7 7 0 -1
BITMAP
50
5C
D0
7E
50
54
50
ENDCHAR
STARTCHAR uni4F68
ENCODING 20328
SWIDTH 1000 0
SWIDTH1 1000 0
DWIDTH1 0 0
BBX 7 7 0 -1
BITMAP
50
5E
E2
5A
58
52
5E
ENDCHAR
STARTCHAR uni4F69
ENCODING 20329
SWIDTH 1000 0
SWIDTH1 1000 0
BBX 7 7 0 -1
BITMAP
5E
52
DE
5A
5E
5E
6A
ENDCHAR
STARTCHAR uni4F6A
ENCODING 20330
SWIDTH 1000 0
SWIDTH1 1000 0
DWIDTH1 0 0
BBX 7 7 0 -1
BITMAP
5E
52
DE
56
5E
52
5E
ENDCHAR
STARTCHAR uni4F6B
ENCODING 20331
SWIDTH 1000 0
SWIDTH1 1000 0
DWIDTH1 0 0
BBX 7 7 0 -1
BITMAP
50
7E
D4
48
7E
54
5C
ENDCHAR
STARTCHAR uni4F6C
ENCODING 20332
SWIDTH 1000 0
SWIDTH1 1000 0
DWIDTH1 0 0
BBX 7 7 0 -1
BITMAP
48
7E
CC
7E
54
7A
5E
ENDCHAR
STARTCHAR uni4F6D
ENCODING 20333
SWIDTH 1000 0
SWIDTH1 1000 0
DWIDTH1 0 0
BBX 7 7 0 -1
BITMAP
50
7E
DC
6A
54
5E
44
ENDCHAR
STARTCHAR uni4F6E
ENCODING 20334
SWIDTH 1000 0
SWIDTH1 1000 0
DWIDTH1 0 0
BBX 7 7 0 -1
BITMAP
48
54
FE
40
5C
54
5C
ENDCHAR
STARTCHAR uni4F6F
ENCODING 20335
SWIDTH 1000 0
SWIDTH1 1000 0
BBX 7 7 0 -1
BITMAP
54
7E
C8
DC
48
7E
48
ENDCHAR
STARTCHAR uni4F70
ENCODING 20336
SWIDTH 1000 0
SWIDTH1 1000 0
BBX 7 7 0 -1
BITMAP
5E
48
DE
52
5E
52
5E
ENDCHAR
STARTCHAR uni4F71
ENCODING 20337
SWIDTH 1000 0
SWIDTH1 1000 0
DWIDTH1 0 0
BBX 7 7 0 -1
BITMAP
38
C6
7C
10
5C
50
FE
ENDCHAR
STARTCHAR uni4F72
ENCODING 20338
SWIDTH 1000 0
SWIDTH1 1000 0
DWIDTH1 0 0
BBX 7 7 0 -1
BITMAP
48
5E
F4
48
7E
52
5E
ENDCHAR
STARTCHAR uni4F73
ENCODING 20339
SWIDTH 1000 0
SWIDTH1 1000 0
BBX 7 7 0 -1
BITMAP
48
5C
C8
7E
5C
48
7E
ENDCHAR
STARTCHAR uni4F74
ENCODING 20340
SWIDTH 1000 0
SWIDTH1 1000 0
DWIDTH1 0 0
BBX 7 7 0 -1
BITMAP
7E
54
DC
54
5E
74
44
ENDCHAR
STARTCHAR uni4F75
ENCODING 20341
SWIDTH 1000 0
SWIDTH1 1000 0
BBX 7 7 0 -1
BITMAP
54
40
FE
54
7E
54
54
ENDCHAR
STARTCHAR uni4F76
ENCODING 20342
SWIDTH 1000 0
SWIDTH1 1000 0
BBX 7 7 0 -1
BITMAP
48
FE
48
5C
40
5C
5C
ENDCHAR
STARTCHAR uni4F77
ENCODING 20343
SWIDTH 1000 0
SWIDTH1 1000 0
DWIDTH1 0 0
BBX 7 7 0 -1
BITMAP
5E
52
DE
52
5E
54
5A
ENDCHAR
STARTCHAR uni4F78
ENCODING 20344
SWIDTH 1000 0
SWIDTH1 1000 0
DWIDTH1 0 0
BBX 7 7 0 -1
BITMAP
5E
48
DE
48
5E
52
5E
ENDCHAR
STARTCHAR uni4F79
ENCODING 20345
SWIDTH 1000 0
SWIDTH1 1000 0
DWIDTH1 0 0
BBX 7 7 0 -1
BITMAP
5C
E4
7E
54
5C
52
6E
ENDCHAR
STARTCHAR uni4F7A
ENCODING 20346
SWIDTH 1000 0
SWIDTH1 1000 0
DWIDTH1 0 0
BBX 7 7 0 -1
BITMAP
5C
62
DC
48
5C
48
7E
ENDCHAR
STARTCHAR uni4F7B
ENCODING 20347
SWIDTH 1000 0
SWIDTH1 1000 0
BBX 7 7 0 -1
BITMAP
54
76
D4
F6
54
54
66
ENDCHAR
STARTCHAR uni4F7C
ENCODING 20348
SWIDTH 1000 0
SWIDTH1 1000 0
BBX 7 7 0 -1
BITMAP
28
7E
D4
62
54
48
76
ENDCHAR
STARTCHAR uni4F7D
ENCODING 20349
SWIDTH 1000 0
SWIDTH1 1000 0
DWIDTH1 0 0
BBX 7 7 0 -1
BITMAP
48
6E
D2
44
54
64
4A
ENDCHAR
STARTCHAR uni4F7E
ENCODING 20350
SWIDTH 1000 0
SWIDTH1 1000 0
BBX 7 7 0 -1
BITMAP
48
54
FE
54
5C
54
6C
ENDCHAR
STARTCHAR uni4F7F
ENCODING 20351
SWIDTH 1000 0
SWIDTH1 1000 0
BBX 7 7 0 -1
BITMAP
48
7E
EA
7E
68
58
66
ENDCHAR
STARTCHAR uni4F80
ENCODING 20352
SWIDTH 1000 0
SWIDTH1 1000 0
DWIDTH1 0 0
BBX 7 7 0 -1
BITMAP
7A
56
D6
7E
56
52
56
ENDCHAR
STARTCHAR uni4F81
ENCODING 20353
SWIDTH 1000 0
SWIDTH1 1000 0
DWIDTH1 0 0
BBX 7 7 0 -1
BITMAP
54
5E
C4
7E
4C
54
56
ENDCHAR
STARTCHAR uni4F82
ENCODING 20354
SWIDTH 1000 0
SWIDTH1 1000 0
DWIDTH1 0 0
BBX 7 7 0 -1
BITMAP
48
BE
A4
B8
AC
BA
AE
ENDCHAR
STARTCHAR uni4F83
ENCODING 20355
SWIDTH 1000 0
SWIDTH1 1000 0
BBX 7 7 0 -1
BITMAP
5E
52
DE
40
5A
5A
6A
ENDCHAR
STARTCHAR uni4F84
ENCODING 20356
SWIDTH 1000 0
SWIDTH1 1000 0
BBX 7 7 0 -1
BITMAP
7E
48
D4
48
5C
48
7E
ENDCHAR
STARTCHAR uni4F85
ENCODING 20357
SWIDTH 1000 0
SWIDTH1 1000 0
DWIDTH1 0 0
BBX 7 7 0 -1
BITMAP
48
7E
D0
6A
54
48
76
ENDCHAR
STARTCHAR uni4F86
ENCODING 20358
SWIDTH 1000 0
SWIDTH1 1000 0
BBX 7 7 0 -1
BITMAP
10
FE
54
54
BA
54
92
ENDCHAR
STARTCHAR uni4F87
ENCODING 20359
SWIDTH 1000 0
SWIDTH1 1000 0
DWIDTH1 0 0
BBX 7 7 0 -1
BITMAP
48
7E
D4
68
7E
4A
54
ENDCHAR
STARTCHAR uni4F88
ENCODING 20360
SWIDTH 1000 0
SWIDTH1 1000 0
BBX 7 7 0 -1
BITMAP
2C
54
C8
76
4A
44
58
ENDCHAR
STARTCHAR uni4F89
ENCODING 20361
SWIDTH 1000 0
SWIDTH1 1000 0
DWIDTH1 0 0
BBX 7 7 0 -1
BITMAP
48
7E
D4
62
5C
4E
42
ENDCHAR
STARTCHAR uni4F8A
ENCODING 20362
SWIDTH 1000 0
SWIDTH1 1000 0
DWIDTH1 0 0
BBX 7 7 0 -1
BITMAP
48
6A
C8
7E
54
54
66
ENDCHAR
STARTCHAR uni4F8B
ENCODING 20363
SWIDTH 1000 0
SWIDTH1 1000 0
BBX 7 7 0 -1
BITMAP
3A
56
DE
6E
5A
52
66
ENDCHAR
STARTCHAR uni4F8C
ENCODING 20364
SWIDTH 1000 0
SWIDTH1 1000 0
DWIDTH1 0 0
BBX 7 7 0 -1
BITMAP
38
D6
38
08
FE
24
7A
ENDCHAR
STARTCHAR uni4F8D
ENCODING 20365
SWIDTH 1000 0
SWIDTH1 1000 0
BBX 7 7 0 -1
BITMAP
28
5C
C8
7E
44
7E
54
ENDCHAR
STARTCHAR uni4F8E
ENCODING 20366
SWIDTH 1000 0
SWIDTH1 1000 0
DWIDTH1 0 0
BBX 7 7 0 -1
BITMAP
48
6A
C8
7E
5C
6A
48
ENDCHAR
STARTCHAR uni4F8F
ENCODING 20367
SWIDTH 1000 0
SWIDTH1 1000 0
BBX 7 7 0 -1
BITMAP
38
5C
E8
7E
48
5C
6A
ENDCHAR
STARTCHAR uni4F90
ENCODING 20368
SWIDTH 1000 0
SWIDTH1 1000 0
DWIDTH1 0 0
BBX 7 7 0 -1
BITMAP
48
5C
D4
54
54
7E
40
ENDCHAR
STARTCHAR uni4F91
ENCODING 20369
SWIDTH 1000 0
SWIDTH1 1000 0
BBX 7 7 0 -1
BITMAP
28
5E
C8
4E
5A
4E
4A
ENDCHAR
STARTCHAR uni4F92
ENCODING 20370
SWIDTH 1000 0
SWIDTH1 1000 0
DWIDTH1 0 0
BBX 7 7 0 -1
BITMAP
48
7E
EA
7E
54
48
54
ENDCHAR
STARTCHAR uni4F93
ENCODING 20371
SWIDTH 1000 0
SWIDTH1 1000 0
DWIDTH1 0 0
BBX 7 7 0 -1
BITMAP
48
5E
CA
5E
48
5E
48
ENDCHAR
STARTCHAR uni4F94
ENCODING 20372
SWIDTH 1000 0
SWIDTH1 1000 0
DWIDTH1 0 0
BBX 7 7 0 -1
BITMAP
44
CA
54
5E
64
5E
44
ENDCHAR
STARTCHAR uni4F95
ENCODING 20373
SWIDTH 1000 0
SWIDTH1 1000 0
DWIDTH1 0 0
BBX 7 7 0 -1
BITMAP
5E
48
DE
56
56
56
52
ENDCHAR
STARTCHAR uni4F96
ENCODING 20374
SWIDTH 1000 0
SWIDTH1 1000 0
BBX 7 7 0 -1
BITMAP
38
C6
38
FE
AA
FE
AA
ENDCHAR
STARTCHAR uni4F97
ENCODING 20375
SWIDTH 1000 0
SWIDTH1 1000 0
DWIDTH1 0 0
BBX 7 7 0 -1
BITMAP
5E
52
DE
52
5E
5E
52
ENDCHAR
STARTCHAR uni4F98
ENCODING 20376
SWIDTH 1000 0
SWIDTH1 1000 0
BBX 7 7 0 -1
BITMAP
28
7E
E6
58
7E
48
4E
ENDCHAR
STARTCHAR uni4F99
ENCODING 20377
SWIDTH 1000 0
SWIDTH1 1000 0
DWIDTH1 0 0
BBX 7 7 0 -1
BITMAP
4A
7E
C8
78
54
7C
46
ENDCHAR
STARTCHAR uni4F9A
ENCODING 20378
SWIDTH 1000 0
SWIDTH1 1000 0
DWIDTH1 0 0
BBX 7 7 0 -1
BITMAP
50
BE
EA
BA
AA
BA
86
ENDCHAR
STARTCHAR uni4F9B
ENCODING 20379
SWIDTH 1000 0
SWIDTH1 1000 0
BBX 7 7 0 -1
BITMAP
54
7E
D4
D4
7E
40
62
ENDCHAR
STARTCHAR uni4F9C
ENCODING 20380
SWIDTH 1000 0
SWIDTH1 1000 0
DWIDTH1 0 0
BBX 7 7 0 -1
BITMAP
48
5C
D4
7E
54
5C
64
ENDCHAR
STARTCHAR uni4F9D
ENCODING 20381
SWIDTH 1000 0
SWIDTH1 1000 0
BBX 7 7 0 -1
BITMAP
28
7E
C8
5A
74
54
5A
ENDCHAR
STARTCHAR uni4F9E
ENCODING 20382
SWIDTH 1000 0
SWIDTH1 1000 0
DWIDTH1 0 0
BBX 7 7 0 -1
BITMAP
50
56
FA
6A
6A
56
68
ENDCHAR
STARTCHAR uni4F9F
ENCODING 20383
SWIDTH 1000 0
SWIDTH1 1000 0
DWIDTH1 0 0
BBX 7 7 0 -1
BITMAP
48
7E
D4
72
54
5E
54
ENDCHAR
STARTCHAR uni4FA0
ENCODING 20384
SWIDTH 1000 0
SWIDTH1 1000 0
BBX 7 7 0 -1
BITMAP
48
7E
C8
6A
7E
48
76
ENDCHAR
STARTCHAR uni4FA1
ENCODING 20385
SWIDTH 1000 0
SWIDTH1 1000 0
BBX 7 7 0 -1
BITMAP
5E
48
DE
5A
5A
5A
5E
ENDCHAR
STARTCHAR uni4FA2
ENCODING 20386
SWIDTH 1000 0
SWIDTH1 1000 0
DWIDTH1 0 0
BBX 7 7 0 -1
BITMAP
5C
48
DC
5C
7E
54
54
ENDCHAR
STARTCHAR uni4FA3
ENCODING 20387
SWIDTH 1000 0
SWIDTH1 1000 0
DWIDTH1 0 0
BBX 7 7 0 -1
BITMAP
5E
52
DE
40
5E
52
5E
ENDCHAR
STARTCHAR uni4FA4
ENCODING 20388
SWIDTH 1000 0
SWIDTH1 1000 0
DWIDTH1 0 0
BBX 7 7 0 -1
BITMAP
4A
4C
FE
48
5E
62
4E
ENDCHAR
STARTCHAR uni4FA5
ENCODING 20389
SWIDTH 1000 0
SWIDTH1 1000 0
DWIDTH1 0 0
BBX 7 7 0 -1
BITMAP
50
7E
C8
54
7E
54
66
ENDCHAR
STARTCHAR uni4FA6
ENCODING 20390
SWIDTH 1000 0
SWIDTH1 1000 0
DWIDTH1 0 0
BBX 7 7 0 -1
BITMAP
4E
88
BE
A2
AA
88
B6
ENDCHAR
STARTCHAR uni4FA7
ENCODING 20391
SWIDTH 1000 0
SWIDTH1 1000 0
DWIDTH1 0 0
BBX 7 7 0 -1
BITMAP
42
BA
AA
AA
AA
92
AA
ENDCHAR
STARTCHAR uni4FA8
ENCODING 20392
SWIDTH 1000 0
SWIDTH1 1000 0
DWIDTH1 0 0
BBX 7 7 0 -1
BITMAP
5C
48
FE
54
76
54
54
ENDCHAR
STARTCHAR uni4FA9
ENCODING 20393
SWIDTH 1000 0
SWIDTH1 1000 0
DWIDTH1 0 0
BBX 7 7 0 -1
BITMAP
48
76
DC
40
7E
54
7A
ENDCHAR
STARTCHAR uni4FAA
ENCODING 20394
SWIDTH 1000 0
SWIDTH1 1000 0
BBX 7 7 0 -1
BITMAP
48
7E
D4
48
76
54
54
ENDCHAR
STARTCHAR uni4FAB
ENCODING 20395
SWIDTH 1000 0
SWIDTH1 1000 0
BBX 7 7 0 -1
BITMAP
28
7E
D0
5C
7E
54
7A
ENDCHAR
STARTCHAR uni4FAC
ENCODING 20396
SWIDTH 1000 0
SWIDTH1 1000 0
DWIDTH1 0 0
BBX 7 7 0 -1
BITMAP
48
7E
EA
50
7A
54
5A
ENDCHAR
STARTCHAR uni4FAD
ENCODING 20397
SWIDTH 1000 0
SWIDTH1 1000 0
BBX 7 7 0 -1
BITMAP
3E
52
DE
54
6A
40
4C
ENDCHAR
STARTCHAR uni4FAE
ENCODING 20398
SWIDTH 1000 0
SWIDTH1 1000 0
BBX 7 7 0 -1
BITMAP
50
5E
D4
7E
54
5E
44
ENDCHAR
STARTCHAR uni4FAF
ENCODING 20399
SWIDTH 1000 0
SWIDTH1 1000 0
BBX 7 7 0 -1
BITMAP
2C
44
DE
48
5E
44
5A
ENDCHAR
STARTCHAR uni4FB0
ENCODING 20400
SWIDTH 1000 0
SWIDTH1 1000 0
DWIDTH1 0 0
BBX 7 7 0 -1
BITMAP
5C
46
DC
48
5E
6A
4E
ENDCHAR
STARTCHAR uni4FB1
ENCODING 20401
SWIDTH 1000 0
SWIDTH1 1000 0
DWIDTH1 0 0
BBX 7 7 0 -1
BITMAP
5C
54
FE
48
5C
48
7E
ENDCHAR
STARTCHAR uni4FB2
ENCODING 20402
SWIDTH 1000 0
SWIDTH1 1000 0
DWIDTH1 0 0
BBX 7 7 0 -1
BITMAP
5E
50
DE
50
5A
54
6A
ENDCHAR
STARTCHAR uni4FB3
ENCODING 20403
SWIDTH 1000 0
SWIDTH1 1000 0
DWIDTH1 0 0
BBX 7 7 0 -1
BITMAP
54
54
EA
48
5C
48
7E
ENDCHAR
STARTCHAR uni4FB4
ENCODING 20404
SWIDTH 1000 0
SWIDTH1 1000 0
DWIDTH1 0 0
BBX 7 7 0 -1
BITMAP
38
C6
7A
56
F2
56
FA
ENDCHAR
STARTCHAR uni4FB5
ENCODING 20405
SWIDTH 1000 0
SWIDTH1 1000 0
BBX 7 7 0 -1
BITMAP
3C
44
DC
7E
76
48
76
ENDCHAR
STARTCHAR uni4FB6
ENCODING 20406
SWIDTH 1000 0
SWIDTH1 1000 0
BBX 7 7 0 -1
BITMAP
3E
52
DE
48
5E
52
5E
ENDCHAR
STARTCHAR uni4FB7
ENCODING 20407
SWIDTH 1000 0
SWIDTH1 1000 0
DWIDTH1 0 0
BBX 7 7 0 -1
BITMAP
5E
52
DE
50
5E
5A
62
ENDCHAR
STARTCHAR uni4FB8
ENCODING 20408
SWIDTH 1000 0
SWIDTH1 1000 0
DWIDTH1 0 0
BBX 7 7 0 -1
BITMAP
40
7E
D4
5C
40
54
7E
ENDCHAR
STARTCHAR uni4FB9
ENCODING 20409
SWIDTH 1000 0
SWIDTH1 1000 0
DWIDTH1 0 0
BBX 7 7 0 -1
BITMAP
4E
74
DE
54
6E
50
6E
ENDCHAR
STARTCHAR uni4FBA
ENCODING 20410
SWIDTH 1000 0
SWIDTH1 1000 0
DWIDTH1 0 0
BBX 7 7 0 -1
BITMAP
48
6A
FE
54
6A
5C
44
ENDCHAR
STARTCHAR uni4FBB
ENCODING 20411
SWIDTH 1000 0
SWIDTH1 1000 0
DWIDTH1 0 0
BBX 7 7 0 -1
BITMAP
54
7E
E2
7E
54
54
66
ENDCHAR
STARTCHAR uni4FBC
ENCODING 20412
SWIDTH 1000 0
SWIDTH1 1000 0
DWIDTH1 0 0
BBX 7 7 0 -1
BITMAP
5C
48
FE
6A
44
7E
48
ENDCHAR
STARTCHAR uni4FBD
ENCODING 20413
SWIDTH 1000 0
SWIDTH1 1000 0
DWIDTH1 0 0
BBX 7 7 0 -1
BITMAP
5E
5A
DE
48
5E
4A
56
ENDCHAR
STARTCHAR uni4FBE
ENCODING 20414
SWIDTH 1000 0
SWIDTH1 1000 0
DWIDTH1 0 0
BBX 7 7 0 -1
BITMAP
4A
5C
C8
76
48
7E
58
ENDCHAR
STARTCHAR uni4FBF
ENCODING 20415
SWIDTH 1000 0
SWIDTH1 1000 0
BBX 7 7 0 -1
BITMAP
7E
5C
DC
48
58
48
76
ENDCHAR
STARTCHAR uni4FC0
ENCODING 20416
SWIDTH 1000 0
SWIDTH1 1000 0
DWIDTH1 0 0
BBX 7 7 0 -1
BITMAP
7E
6A
D0
7E
54
48
76
ENDCHAR
STARTCHAR uni4FC1
ENCODING 20417
SWIDTH 1000 0
SWIDTH1 1000 0
DWIDTH1 0 0
BBX 7 7 0 -1
BITMAP
5C
74
FE
4A
7E
48
76
ENDCHAR
STARTCHAR uni4FC2
ENCODING 20418
SWIDTH 1000 0
SWIDTH1 1000 0
BBX 7 7 0 -1
BITMAP
3E
48
D0
4A
7E
48
6A
ENDCHAR
STARTCHAR uni4FC3
ENCODING 20419
SWIDTH 1000 0
SWIDTH1 1000 0
BBX 7 7 0 -1
BITMAP
3E
52
DE
44
56
54
6E
ENDCHAR
STARTCHAR uni4FC4
ENCODING 20420
SWIDTH 1000 0
SWIDTH1 1000 0
BBX 7 7 0 -1
BITMAP
76
54
FE
54
56
7C
52
ENDCHAR
STARTCHAR uni4FC5
ENCODING 20421
SWIDTH 1000 0
SWIDTH1 1000 0
DWIDTH1 0 0
BBX 7 7 0 -1
BITMAP
4A
C8
7E
48
6A
5C
6A
ENDCHAR
STARTCHAR uni4FC6
ENCODING 20422
SWIDTH 1000 0
SWIDTH1 1000 0
DWIDTH1 0 0
BBX 7 7 0 -1
BITMAP
5C
62
DC
48
7E
48
6A
ENDCHAR
STARTCHAR uni4FC7
ENCODING 20423
SWIDTH 1000 0
SWIDTH1 1000 0
DWIDTH1 0 0
BBX 7 7 0 -1
BITMAP
A8
9E
B4
9E
B4
9E
A0
ENDCHAR
STARTCHAR uni4FC8
ENCODING 20424
SWIDTH 1000 0
SWIDTH1 1000 0
DWIDTH1 0 0
BBX 7 7 0 -1
BITMAP
54
DE
44
5E
40
5E
5E
ENDCHAR
STARTCHAR uni4FC9
ENCODING 20425
SWIDTH 1000 0
SWIDTH1 1000 0
DWIDTH1 0 0
BBX 7 7 0 -1
BITMAP
7E
48
DE
4A
7E
54
5C
ENDCHAR
STARTCHAR uni4FCA
ENCODING 20426
SWIDTH 1000 0
SWIDTH1 1000 0
BBX 7 7 0 -1
BITMAP
32
7E
D4
66
5C
68
56
ENDCHAR
STARTCHAR uni4FCB
ENCODING 20427
SWIDTH 1000 0
SWIDTH1 1000 0
DWIDTH1 0 0
BBX 7 7 0 -1
BITMAP
5C
94
BE
AA
BE
A0
BE
ENDCHAR
STARTCHAR uni4FCC
ENCODING 20428
SWIDTH 1000 0
SWIDTH1 1000 0
DWIDTH1 0 0
BBX 7 7 0 -1
BITMAP
4A
BE
88
BE
AA
BE
AA
ENDCHAR
STARTCHAR uni4FCD
ENCODING 20429
SWIDTH 1000 0
SWIDTH1 1000 0
DWIDTH1 0 0
BBX 7 7 0 -1
BITMAP
28
5E
D2
5C
5A
54
5A
ENDCHAR
STARTCHAR uni4FCE
ENCODING 20430
SWIDTH 1000 0
SWIDTH1 1000 0
BBX 7 7 0 -1
BITMAP
5C
54
BC
14
5C
54
BE
ENDCHAR
STARTCHAR uni4FCF
ENCODING 20431
SWIDTH 1000 0
SWIDTH1 1000 0
DWIDTH1 4 0
BBX 7 7 0 -1
BITMAP
6A
48
D4
5C
54
5C
54
ENDCHAR
STARTCHAR uni4FD0
ENCODING 20432
SWIDTH 1000 0
SWIDTH1 1000 0
BBX 7 7 0 -1
BITMAP
3A
56
FE
56
7A
72
56
ENDCHAR
STARTCHAR uni4FD1
ENCODING 20433
SWIDTH 1000 0
SWIDTH1 1000 0
BBX 7 7 0 -1
BITMAP
3E
44
FE
6A
7E
6A
6A
ENDCHAR
STARTCHAR uni4FD2
ENCODING 20434
SWIDTH 1000 0
SWIDTH1 1000 0
DWIDTH1 4 0
BBX 7 7 0 -1
BITMAP
48
7E
E2
5C
40
7E
54
ENDCHAR
STARTCHAR uni4FD3
ENCODING 20435
SWIDTH 1000 0
SWIDTH1 1000 0
DWIDTH1 4 0
BBX 7 7 0 -1
BITMAP
7E
D4
68
54
7E
48
7E
ENDCHAR
STARTCHAR uni4FD4
ENCODING 20436
SWIDTH 1000 0
SWIDTH1 1000 0
BBX 7 7 0 -1
BITMAP
3E
52
DE
52
5E
4C
56
ENDCHAR
STARTCHAR uni4FD5
ENCODING 20437
SWIDTH 1000 0
SWIDTH1 1000 0
DWIDTH1 4 0
BBX 7 7 0 -1
BITMAP
48
7E
EA
5C
48
5C
6A
ENDCHAR
STARTCHAR uni4FD6
ENCODING 20438
SWIDTH 1000 0
SWIDTH1 1000 0
DWIDTH1 4 0
BBX 7 7 0 -1
BITMAP
5C
48
DC
6A
5C
54
5C
ENDCHAR
STARTCHAR uni4FD7
ENCODING 20439
SWIDTH 1000 0
SWIDTH1 1000 0
BBX 7 7 0 -1
BITMAP
54
62
C8
D4
7E
54
5C
ENDCHAR
STARTCHAR uni4FD8
ENCODING 20440
SWIDTH 1000 0
SWIDTH1 1000 0
BBX 7 7 0 -1
BITMAP
3C
6A
C0
5C
44
7E
48
ENDCHAR
STARTCHAR uni4FD9
ENCODING 20441
SWIDTH 1000 0
SWIDTH1 1000 0
DWIDTH1 4 0
BBX 7 7 0 -1
BITMAP
54
48
D4
7E
6A
6E
48
ENDCHAR
STARTCHAR uni4FDA
ENCODING 20442
SWIDTH 1000 0
SWIDTH1 1000 0
BBX 7 7 0 -1
BITMAP
3E
6A
FE
6A
7E
48
7E
ENDCHAR
STARTCHAR uni4FDB
ENCODING 20443
SWIDTH 1000 0
SWIDTH1 1000 0
BBX 7 7 0 -1
BITMAP
2C
54
FE
6A
7E
54
66
ENDCHAR
STARTCHAR uni4FDC
ENCODING 20444
SWIDTH 1000 0
SWIDTH1 1000 0
BBX 7 7 0 -1
BITMAP
48
5C
DC
7E
50
5C
44
ENDCHAR
STARTCHAR uni4FDD
ENCODING 20445
SWIDTH 1000 0
SWIDTH1 1000 0
BBX 7 7 0 -1
BITMAP
3C
54
DC
48
7E
5C
6A
ENDCHAR
STARTCHAR uni4FDE
ENCODING 20446
SWIDTH 1000 0
SWIDTH1 1000 0
BBX 7 7 0 -1
BITMAP
38
C6
7C
E2
AA
EA
A6
ENDCHAR
STARTCHAR uni4FDF
ENCODING 20447
SWIDTH 1000 0
SWIDTH1 1000 0
BBX 7 7 0 -1
BITMAP
28
52
DE
48
5E
44
5A
ENDCHAR
STARTCHAR uni4FE0
ENCODING 20448
SWIDTH 1000 0
SWIDTH1 1000 0
DWIDTH1 4 0
BBX 7 7 0 -1
BITMAP
48
7E
DA
6C
7E
54
62
ENDCHAR
STARTCHAR uni4FE1
ENCODING 20449
SWIDTH 1000 0
SWIDTH1 1000 0
BBX 7 7 0 -1
BITMAP
5E
40
DE
40
5E
52
5E
ENDCHAR
STARTCHAR uni4FE2
ENCODING 20450
SWIDTH 1000 0
SWIDTH1 1000 0
DWIDTH1 4 0
BBX 7 7 0 -1
BITMAP
50
7E
C8
76
58
44
58
ENDCHAR
STARTCHAR uni4FE3
ENCODING 20451
SWIDTH 1000 0
SWIDTH1 1000 0
BBX 7 7 0 -1
BITMAP
3C
54
FE
48
5C
48
76
ENDCHAR
STARTCHAR uni4FE4
ENCODING 20452
SWIDTH 1000 0
SWIDTH1 1000 0
BBX 7 7 0 -1
BITMAP
54
7E
CA
FE
68
5E
6A
ENDCHAR
STARTCHAR uni4FE5
ENCODING 20453
SWIDTH 1000 0
SWIDTH1 1000 0
BBX 7 7 0 -1
BITMAP
48
7E
DC
5C
5C
7E
48
ENDCHAR
STARTCHAR uni4FE6
ENCODING 20454
SWIDTH 1000 0
SWIDTH1 1000 0
BBX 7 7 0 -1
BITMAP
48
7E
C8
7E
54
6E
54
ENDCHAR
STARTCHAR uni4FE7
ENCODING 20455
SWIDTH 1000 0
SWIDTH1 1000 0
DWIDTH1 4 0
BBX 7 7 0 -1
BITMAP
48
7E
C8
5C
40
6A
5C
ENDCHAR
STARTCHAR uni4FE8
ENCODING 20456
SWIDTH 1000 0
SWIDTH1 1000 0
BBX 7 7 0 -1
BITMAP
7E
94
B6
94
BE
A0
A0
ENDCHAR
STARTCHAR uni4FE9
ENCODING 20457
SWIDTH 1000 0
SWIDTH1 1000 0
DWIDTH1 4 0
BBX 7 7 0 -1
BITMAP
5C
48
FE
6A
7E
7E
62
ENDCHAR
STARTCHAR uni4FEA
ENCODING 20458
SWIDTH 1000 0
SWIDTH1 1000 0
DWIDTH1 4 0
BBX 7 7 0 -1
BITMAP
BE
80
BE
AA
BE
AA
AA
ENDCHAR
STARTCHAR uni4FEB
ENCODING 20459
SWIDTH 1000 0
SWIDTH1 1000 0
DWIDTH1 4 0
BBX 7 7 0 -1
BITMAP
48
7E
EA
5C
7E
5C
6A
ENDCHAR
STARTCHAR uni4FEC
ENCODING 20460
SWIDTH 1000 0
SWIDTH1 1000 0
DWIDTH1 4 0
BBX 7 7 0 -1
BITMAP
B4
E4
A4
F4
A4
FA
AE
ENDCHAR
STARTCHAR uni4FED
ENCODING 20461
SWIDTH 1000 0
SWIDTH1 1000 0
DWIDTH1 4 0
BBX 7 7 0 -1
BITMAP
5C
62
DC
40
6A
54
7E
ENDCHAR
STARTCHAR uni4FEE
ENCODING 20462
SWIDTH 1000 0
SWIDTH1 1000 0
BBX 7 7 0 -1
BITMAP
50
5E
F4
6A
64
42
4C
ENDCHAR
STARTCHAR uni4FEF
ENCODING 20463
SWIDTH 1000 0
SWIDTH1 1000 0
BBX 7 7 0 -1
BITMAP
48
7E
D2
7E
56
52
56
ENDCHAR
STARTCHAR uni4FF0
ENCODING 20464
SWIDTH 1000 0
SWIDTH1 1000 0
DWIDTH1 4 0
BBX 7 7 0 -1
BITMAP
78
D6
7E
56
7E
76
50
ENDCHAR
STARTCHAR uni4FF1
ENCODING 20465
SWIDTH 1000 0
SWIDTH1 1000 0
DWIDTH1 4 0
BBX 7 7 0 -1
BITMAP
5C
54
DC
54
7E
40
54
ENDCHAR
STARTCHAR uni4FF2
ENCODING 20466
SWIDTH 1000 0
SWIDTH1 1000 0
DWIDTH1 4 0
BBX 7 7 0 -1
BITMAP
54
7E
D6
6E
56
6E
4A
ENDCHAR
STARTCHAR uni4FF3
ENCODING 20467
SWIDTH 1000 0
SWIDTH1 1000 0
BBX 7 7 0 -1
BITMAP
54
76
D4
76
54
76
54
ENDCHAR
STARTCHAR uni4FF4
ENCODING 20468
SWIDTH 1000 0
SWIDTH1 1000 0
DWIDTH1 4 0
BBX 7 7 0 -1
BITMAP
54
4A
D6
40
54
4A
56
ENDCHAR
STARTCHAR uni4FF5
ENCODING 20469
SWIDTH 1000 0
SWIDTH1 1000 0
BBX 7 7 0 -1
BITMAP
28
7E
C8
7C
5A
74
5A
ENDCHAR
STARTCHAR uni4FF6
ENCODING 20470
SWIDTH 1000 0
SWIDTH1 1000 0
BBX 7 7 0 -1
BITMAP
36
5A
D2
7A
54
74
5A
ENDCHAR
STARTCHAR uni4FF7
ENCODING 20471
SWIDTH 1000 0
SWIDTH1 1000 0
DWIDTH1 4 0
BBX 7 7 0 -1
BITMAP
7E
AA
BA
AE
B8
AA
DE
ENDCHAR
STARTCHAR uni4FF8
ENCODING 20472
SWIDTH 1000 0
SWIDTH1 1000 0
BBX 7 7 0 -1
BITMAP
28
5C
FE
54
6A
5C
48
ENDCHAR
STARTCHAR uni4FF9
ENCODING 20473
SWIDTH 1000 0
SWIDTH1 1000 0
DWIDTH1 4 0
BBX 7 7 0 -1
BITMAP
7E
54
F6
62
76
54
7E
ENDCHAR
STARTCHAR uni4FFA
ENCODING 20474
SWIDTH 1000 0
SWIDTH1 1000 0
BBX 7 7 0 -1
BITMAP
48
7E
D4
6A
5C
5C
4E
ENDCHAR
STARTCHAR uni4FFB
ENCODING 20475
SWIDTH 1000 0
SWIDTH1 1000 0
DWIDTH1 4 0
BBX 7 7 0 -1
BITMAP
5E
74
C8
76
5C
5C
5C
ENDCHAR
STARTCHAR uni4FFC
ENCODING 20476
SWIDTH 1000 0
SWIDTH1 1000 0
DWIDTH1 4 0
BBX 7 7 0 -1
BITMAP
48
7E
D4
7E
54
5C
54
ENDCHAR
STARTCHAR uni4FFD
ENCODING 20477
SWIDTH 1000 0
SWIDTH1 1000 0
DWIDTH1 4 0
BBX 7 7 0 -1
BITMAP
48
7E
CA
7E
54
54
5A
ENDCHAR
STARTCHAR uni4FFE
ENCODING 20478
SWIDTH 1000 0
SWIDTH1 1000 0
BBX 7 7 0 -1
BITMAP
28
7E
EA
7E
54
7E
44
ENDCHAR
STARTCHAR uni4FFF
ENCODING 20479
SWIDTH 1000 0
SWIDTH1 1000 0
DWIDTH1 4 0
BBX 7 7 0 -1
BITMAP
44
5E
D4
56
50
54
6A
ENDCHAR
STARTCHAR uni5000
ENCODING 20480
SWIDTH 1000 0
SWIDTH1 1000 0
DWIDTH1 4 0
BBX 7 7 0 -1
BITMAP
5E
50
DE
50
7A
54
5A
ENDCHAR
STARTCHAR uni5001
ENCODING 20481
SWIDTH 1000 0
SWIDTH1 1000 0
DWIDTH1 4 0
BBX 7 7 0 -1
BITMAP
60
FE
56
7E
56
56
68
ENDCHAR
STARTCHAR uni5002
ENCODING 20482
SWIDTH 1000 0
SWIDTH1 1000 0
DWIDTH1 4 0
BBX 7 7 0 -1
BITMAP
54
40
FE
54
7E
54
54
ENDCHAR
STARTCHAR uni5003
ENCODING 20483
SWIDTH 1000 0
SWIDTH1 1000 0
DWIDTH1 4 0
BBX 7 7 0 -1
BITMAP
54
6E
D4
6E
5C
54
5C
ENDCHAR
STARTCHAR uni5004
ENCODING 20484
SWIDTH 1000 0
SWIDTH1 1000 0
DWIDTH1 4 0
BBX 7 7 0 -1
BITMAP
54
48
D4
48
76
5C
54
ENDCHAR
STARTCHAR uni5005
ENCODING 20485
SWIDTH 1000 0
SWIDTH1 1000 0
BBX 7 7 0 -1
BITMAP
28
7E
D4
54
6A
7E
48
ENDCHAR
STARTCHAR uni5006
ENCODING 20486
SWIDTH 1000 0
SWIDTH1 1000 0
BBX 7 7 0 -1
BITMAP
3E
48
FE
6A
7E
7E
6A
ENDCHAR
STARTCHAR uni5007
ENCODING 20487
SWIDTH 1000 0
SWIDTH1 1000 0
DWIDTH1 4 0
BBX 7 7 0 -1
BITMAP
48
7E
E2
5E
6A
58
6E
ENDCHAR
STARTCHAR uni5008
ENCODING 20488
SWIDTH 1000 0
SWIDTH1 1000 0
DWIDTH1 4 0
BBX 7 7 0 -1
BITMAP
48
7E
EA
5C
6A
54
62
ENDCHAR
STARTCHAR uni5009
ENCODING 20489
SWIDTH 1000 0
SWIDTH1 1000 0
BBX 7 7 0 -1
BITMAP
38
D6
7C
44
7E
42
BE
ENDCHAR
STARTCHAR uni500A
ENCODING 20490
SWIDTH 1000 0
SWIDTH1 1000 0
DWIDTH1 4 0
BBX 7 7 0 -1
BITMAP
54
6A
D4
5C
40
6A
5C
ENDCHAR
STARTCHAR uni500B
ENCODING 20491
SWIDTH 1000 0
SWIDTH1 1000 0
BBX 7 7 0 -1
BITMAP
7E
AA
BE
AA
B6
AA
BE
ENDCHAR
STARTCHAR uni500C
ENCODING 20492
SWIDTH 1000 0
SWIDTH1 1000 0
BBX 7 7 0 -1
BITMAP
48
7E
E2
58
58
54
5C
ENDCHAR
STARTCHAR uni500D
ENCODING 20493
SWIDTH 1000 0
SWIDTH1 1000 0
BBX 7 7 0 -1
BITMAP
28
7E
D4
7E
5C
54
5C
ENDCHAR
STARTCHAR uni500E
ENCODING 20494
SWIDTH 1000 0
SWIDTH1 1000 0
BBX 7 7 0 -1
BITMAP
48
5C
DC
5C
7E
40
54
ENDCHAR
STARTCHAR uni500F
ENCODING 20495
SWIDTH 1000 0
SWIDTH1 1000 0
BBX 7 7 0 -1
BITMAP
2C
74
E8
74
7E
48
76
ENDCHAR
STARTCHAR uni5010
ENCODING 20496
SWIDTH 1000 0
SWIDTH1 1000 0
BBX 7 7 0 -1
BITMAP
50
7E
C8
76
6A
48
76
ENDCHAR
STARTCHAR uni5011
ENCODING 20497
SWIDTH 1000 0
SWIDTH1 1000 0
BBX 7 7 0 -1
BITMAP
7E
AA
BE
AA
BE
A2
A6
ENDCHAR
STARTCHAR uni5012
ENCODING 20498
SWIDTH 1000 0
SWIDTH1 1000 0
BBX 7 7 0 -1
BITMAP
3A
56
E6
7E
52
7A
46
ENDCHAR
STARTCHAR uni5013
ENCODING 20499
SWIDTH 1000 0
SWIDTH1 1000 0
BBX 7 7 0 -1
BITMAP
6A
48
F6
40
6A
48
76
ENDCHAR
STARTCHAR uni5014
ENCODING 20500
SWIDTH 1000 0
SWIDTH1 1000 0
BBX 7 7 0 -1
BITMAP
7E
A2
BE
AA
BC
AA
DE
ENDCHAR
STARTCHAR uni5015
ENCODING 20501
SWIDTH 1000 0
SWIDTH1 1000 0
BBX 7 7 0 -1
BITMAP
7E
88
BE
9C
BE
88
BE
ENDCHAR
STARTCHAR uni5016
ENCODING 20502
SWIDTH 1000 0
SWIDTH1 1000 0
BBX 7 7 0 -1
BITMAP
28
5C
FE
54
7E
5C
48
ENDCHAR
STARTCHAR uni5017
ENCODING 20503
SWIDTH 1000 0
SWIDTH1 1000 0
BBX 7 7 0 -1
BITMAP
7E
AA
BE
AA
BE
AA
D6
ENDCHAR
STARTCHAR uni5018
ENCODING 20504
SWIDTH 1000 0
SWIDTH1 1000 0
BBX 7 7 0 -1
BITMAP
6A
88
BE
AA
BA
A2
A6
ENDCHAR
STARTCHAR uni5019
ENCODING 20505
SWIDTH 1000 0
SWIDTH1 1000 0
BBX 7 7 0 -1
BITMAP
2C
64
FE
68
7E
64
5A
ENDCHAR
STARTCHAR uni501A
ENCODING 20506
SWIDTH 1000 0
SWIDTH1 1000 0
BBX 7 7 0 -1
BITMAP
28
7E
C8
54
7E
44
54
ENDCHAR
STARTCHAR uni501B
ENCODING 20507
SWIDTH 1000 0
SWIDTH1 1000 0
BBX 7 7 0 -1
BITMAP
54
BE
94
9C
BE
80
94
ENDCHAR
STARTCHAR uni501C
ENCODING 20508
SWIDTH 1000 0
SWIDTH1 1000 0
BBX 7 7 0 -1
BITMAP
5E
52
D6
5A
56
5A
56
ENDCHAR
STARTCHAR uni501D
ENCODING 20509
SWIDTH 1000 0
SWIDTH1 1000 0
BBX 7 8 0 -1
BITMAP
04
44
E4
44
A4
44
EA
4A
ENDCHAR
STARTCHAR uni501F
ENCODING 20511
SWIDTH 1000 0
SWIDTH1 1000 0
BBX 7 7 0 -1
BITMAP
54
7E
D4
FE
5C
54
5C
ENDCHAR
STARTCHAR uni5021
ENCODING 20513
SWIDTH 1000 0
SWIDTH1 1000 0
BBX 7 7 0 -1
BITMAP
5C
D4
7E
62
7E
62
7E
ENDCHAR
STARTCHAR uni5023
ENCODING 20515
SWIDTH 1000 0
SWIDTH1 1000 0
BBX 7 7 0 -1
BITMAP
54
7E
D6
DE
5E
6C
6A
ENDCHAR
STARTCHAR uni5024
ENCODING 20516
SWIDTH 1000 0
SWIDTH1 1000 0
BBX 6 7 1 -1
BITMAP
A4
68
FC
84
FC
84
8C
ENDCHAR
STARTCHAR uni5025
ENCODING 20517
SWIDTH 1000 0
SWIDTH1 1000 0
BBX 7 7 0 -1
BITMAP
28
7E
F6
40
5C
48
7E
ENDCHAR
STARTCHAR uni5026
ENCODING 20518
SWIDTH 1000 0
SWIDTH1 1000 0
BBX 7 7 0 -1
BITMAP
48
6E
B4
10
FE
10
EE
ENDCHAR
STARTCHAR uni5028
ENCODING 20520
SWIDTH 1000 0
SWIDTH1 1000 0
BBX 7 7 0 -1
BITMAP
3E
5E
D4
5E
54
5A
6E
ENDCHAR
STARTCHAR uni5029
ENCODING 20521
SWIDTH 1000 0
SWIDTH1 1000 0
BBX 7 7 0 -1
BITMAP
28
5C
C8
7E
54
5C
54
ENDCHAR
STARTCHAR uni502A
ENCODING 20522
SWIDTH 1000 0
SWIDTH1 1000 0
BBX 7 7 0 -1
BITMAP
36
62
F6
62
7E
54
66
ENDCHAR
STARTCHAR uni502B
ENCODING 20523
SWIDTH 1000 0
SWIDTH1 1000 0
BBX 7 7 0 -1
BITMAP
5C
F4
BC
FE
52
7A
C6
ENDCHAR
STARTCHAR uni502C
ENCODING 20524
SWIDTH 1000 0
SWIDTH1 1000 0
BBX 7 7 0 -1
BITMAP
28
5E
D4
5C
54
7E
48
ENDCHAR
STARTCHAR uni502D
ENCODING 20525
SWIDTH 1000 0
SWIDTH1 1000 0
BBX 7 7 0 -1
BITMAP
5C
7E
DC
EA
7E
54
7A
ENDCHAR
STARTCHAR uni502E
ENCODING 20526
SWIDTH 1000 0
SWIDTH1 1000 0
BBX 7 7 0 -1
BITMAP
5E
5E
DE
48
7E
5C
6A
ENDCHAR
STARTCHAR uni5036
ENCODING 20534
SWIDTH 1000 0
SWIDTH1 1000 0
BBX 7 7 0 -1
BITMAP
3C
54
DC
54
7E
40
62
ENDCHAR
STARTCHAR uni5039
ENCODING 20537
SWIDTH 1000 0
SWIDTH1 1000 0
BBX 7 7 0 -1
BITMAP
28
54
FE
6A
7E
48
76
ENDCHAR
STARTCHAR uni503A
ENCODING 20538
SWIDTH 1000 0
SWIDTH1 1000 0
BBX 7 7 0 -1
BITMAP
48
7E
C8
7E
5C
48
76
ENDCHAR
STARTCHAR uni503C
ENCODING 20540
SWIDTH 1000 0
SWIDTH1 1000 0
BBX 7 7 0 -1
BITMAP
48
7E
D4
5C
5C
54
7E
ENDCHAR
STARTCHAR uni503E
ENCODING 20542
SWIDTH 1000 0
SWIDTH1 1000 0
BBX 7 7 0 -1
BITMAP
4E
E4
7E
6A
7A
64
4A
ENDCHAR
STARTCHAR uni5043
ENCODING 20547
SWIDTH 1000 0
SWIDTH1 1000 0
BBX 7 7 0 -1
BITMAP
3E
6C
EC
7A
64
6A
7E
ENDCHAR
STARTCHAR uni5047
ENCODING 20551
SWIDTH 1000 0
SWIDTH1 1000 0
BBX 7 7 0 -1
BITMAP
76
B2
A6
BA
AA
B4
AA
ENDCHAR
STARTCHAR uni5048
ENCODING 20552
SWIDTH 1000 0
SWIDTH1 1000 0
BBX 7 7 0 -1
BITMAP
3C
54
DC
5E
72
5A
46
ENDCHAR
STARTCHAR uni5049
ENCODING 20553
SWIDTH 1000 0
SWIDTH1 1000 0
BBX 7 7 0 -1
BITMAP
28
5E
CA
7E
54
7E
44
ENDCHAR
STARTCHAR uni504C
ENCODING 20556
SWIDTH 1000 0
SWIDTH1 1000 0
BBX 7 7 0 -1
BITMAP
54
FE
54
7E
5C
74
5C
ENDCHAR
STARTCHAR uni504E
ENCODING 20558
SWIDTH 1000 0
SWIDTH1 1000 0
BBX 7 7 0 -1
BITMAP
5C
5C
FE
50
54
58
56
ENDCHAR
STARTCHAR uni504F
ENCODING 20559
SWIDTH 1000 0
SWIDTH1 1000 0
BBX 7 7 0 -1
BITMAP
3E
54
DC
50
5E
6E
4A
ENDCHAR
STARTCHAR uni5050
ENCODING 20560
SWIDTH 1000 0
SWIDTH1 1000 0
BBX 7 7 0 -1
BITMAP
28
7E
D4
7E
68
62
4C
ENDCHAR
STARTCHAR uni5055
ENCODING 20565
SWIDTH 1000 0
SWIDTH1 1000 0
BBX 7 7 0 -1
BITMAP
24
76
E4
76
48
5C
5C
ENDCHAR
STARTCHAR uni5056
ENCODING 20566
SWIDTH 1000 0
SWIDTH1 1000 0
BBX 7 7 0 -1
BITMAP
2A
5C
C8
7E
54
6E
4E
ENDCHAR
STARTCHAR uni505A
ENCODING 20570
SWIDTH 1000 0
SWIDTH1 1000 0
BBX 7 7 0 -1
BITMAP
54
7E
D6
FE
6E
7C
4A
ENDCHAR
STARTCHAR uni505C
ENCODING 20572
SWIDTH 1000 0
SWIDTH1 1000 0
BBX 7 7 0 -1
BITMAP
28
7E
D4
7E
5E
48
58
ENDCHAR
STARTCHAR uni5065
ENCODING 20581
SWIDTH 1000 0
SWIDTH1 1000 0
BBX 7 7 0 -1
BITMAP
34
5E
EE
54
7E
54
6E
ENDCHAR
STARTCHAR uni506C
ENCODING 20588
SWIDTH 1000 0
SWIDTH1 1000 0
BBX 7 7 0 -1
BITMAP
30
5E
EA
5A
44
72
6E
ENDCHAR
STARTCHAR uni5072
ENCODING 20594
SWIDTH 1000 0
SWIDTH1 1000 0
BBX 7 7 0 -1
BITMAP
3E
6A
FE
7E
40
72
6E
ENDCHAR
STARTCHAR uni5074
ENCODING 20596
SWIDTH 1000 0
SWIDTH1 1000 0
BBX 7 7 0 -1
BITMAP
3A
6E
FE
6E
7A
42
6A
ENDCHAR
STARTCHAR uni5075
ENCODING 20597
SWIDTH 1000 0
SWIDTH1 1000 0
BBX 7 7 0 -1
BITMAP
28
4E
DC
54
5C
5C
62
ENDCHAR
STARTCHAR uni5076
ENCODING 20598
SWIDTH 1000 0
SWIDTH1 1000 0
BBX 7 7 0 -1
BITMAP
3C
5C
C8
7E
6A
6E
7A
ENDCHAR
STARTCHAR uni5077
ENCODING 20599
SWIDTH 1000 0
SWIDTH1 1000 0
BBX 7 7 0 -1
BITMAP
5C
A2
9C
BA
AA
BA
AA
ENDCHAR
STARTCHAR uni5078
ENCODING 20600
SWIDTH 1000 0
SWIDTH1 1000 0
BBX 7 7 0 -1
BITMAP
38
54
EE
40
5A
5C
5A
ENDCHAR
STARTCHAR uni507B
ENCODING 20603
SWIDTH 1000 0
SWIDTH1 1000 0
BBX 7 7 0 -1
BITMAP
6A
5C
EA
48
76
48
76
ENDCHAR
STARTCHAR uni507D
ENCODING 20605
SWIDTH 1000 0
SWIDTH1 1000 0
BBX 7 7 0 -1
BITMAP
54
7C
CC
D4
7E
42
6A
ENDCHAR
STARTCHAR uni507E
ENCODING 20606
SWIDTH 1000 0
SWIDTH1 1000 0
BBX 7 7 0 -1
BITMAP
48
7E
D4
7E
5C
5C
62
ENDCHAR
STARTCHAR uni507F
ENCODING 20607
SWIDTH 1000 0
SWIDTH1 1000 0
BBX 7 7 0 -1
BITMAP
6A
48
FE
62
5C
48
5C
ENDCHAR
STARTCHAR uni5080
ENCODING 20608
SWIDTH 1000 0
SWIDTH1 1000 0
BBX 7 7 0 -1
BITMAP
28
7E
EA
7E
6A
5C
6E
ENDCHAR
STARTCHAR uni5085
ENCODING 20613
SWIDTH 1000 0
SWIDTH1 1000 0
BBX 7 7 0 -1
BITMAP
2A
7E
DC
54
7E
54
4C
ENDCHAR
STARTCHAR uni5088
ENCODING 20616
SWIDTH 1000 0
SWIDTH1 1000 0
BBX 7 7 0 -1
BITMAP
7E
94
BE
B6
BE
9C
AA
ENDCHAR
STARTCHAR uni508D
ENCODING 20621
SWIDTH 1000 0
SWIDTH1 1000 0
BBX 7 7 0 -1
BITMAP
28
7E
D4
7E
6A
4C
54
ENDCHAR
STARTCHAR uni5091
ENCODING 20625
SWIDTH 1000 0
SWIDTH1 1000 0
BBX 7 7 0 -1
BITMAP
5A
6E
D6
EA
7E
5C
6A
ENDCHAR
STARTCHAR uni5098
ENCODING 20632
SWIDTH 1000 0
SWIDTH1 1000 0
BBX 7 7 0 -1
BITMAP
10
28
D6
38
54
FE
10
ENDCHAR
STARTCHAR uni5099
ENCODING 20633
SWIDTH 1000 0
SWIDTH1 1000 0
BBX 7 7 0 -1
BITMAP
54
7E
D4
FE
60
6E
4A
ENDCHAR
STARTCHAR uni509A
ENCODING 20634
SWIDTH 1000 0
SWIDTH1 1000 0
BBX 7 7 0 -1
BITMAP
54
7E
EE
C6
6E
54
6A
ENDCHAR
STARTCHAR uni50A3
ENCODING 20643
SWIDTH 1000 0
SWIDTH1 1000 0
BBX 7 7 0 -1
BITMAP
48
7E
C8
7E
54
6A
58
ENDCHAR
STARTCHAR uni50A5
ENCODING 20645
SWIDTH 1000 0
SWIDTH1 1000 0
BBX 7 7 0 -1
BITMAP
54
7E
E2
5C
54
5C
66
ENDCHAR
STARTCHAR uni50A7
ENCODING 20647
SWIDTH 1000 0
SWIDTH1 1000 0
BBX 7 7 0 -1
BITMAP
48
7E
E2
5C
54
7E
54
ENDCHAR
STARTCHAR uni50A8
ENCODING 20648
SWIDTH 1000 0
SWIDTH1 1000 0
BBX 7 7 0 -1
BITMAP
A4
8E
E4
BE
AC
BE
8E
ENDCHAR
STARTCHAR uni50A9
ENCODING 20649
SWIDTH 1000 0
SWIDTH1 1000 0
BBX 7 7 0 -1
BITMAP
54
7E
D4
6E
54
6E
48
ENDCHAR
STARTCHAR uni50AC
ENCODING 20652
SWIDTH 1000 0
SWIDTH1 1000 0
BBX 7 7 0 -1
BITMAP
2A
7E
D4
5E
74
54
5E
ENDCHAR
STARTCHAR uni50AD
ENCODING 20653
SWIDTH 1000 0
SWIDTH1 1000 0
BBX 7 7 0 -1
BITMAP
24
7E
EC
7E
76
7E
56
ENDCHAR
STARTCHAR uni50B2
ENCODING 20658
SWIDTH 1000 0
SWIDTH1 1000 0
BBX 7 7 0 -1
BITMAP
54
7E
D6
FE
56
5C
6A
ENDCHAR
STARTCHAR uni50B3
ENCODING 20659
SWIDTH 1000 0
SWIDTH1 1000 0
BBX 7 7 0 -1
BITMAP
28
7E
DC
5A
7E
54
4C
ENDCHAR
STARTCHAR uni50B4
ENCODING 20660
SWIDTH 1000 0
SWIDTH1 1000 0
BBX 7 7 0 -1
BITMAP
5E
D6
56
50
5A
5A
5E
ENDCHAR
STARTCHAR uni50B5
ENCODING 20661
SWIDTH 1000 0
SWIDTH1 1000 0
BBX 7 7 0 -1
BITMAP
28
5C
C8
7E
5C
5C
62
ENDCHAR
STARTCHAR uni50B7
ENCODING 20663
SWIDTH 1000 0
SWIDTH1 1000 0
BBX 7 7 0 -1
BITMAP
30
5E
F4
5C
5E
6A
56
ENDCHAR
STARTCHAR uni50B8
ENCODING 20664
SWIDTH 1000 0
SWIDTH1 1000 0
BBX 7 7 0 -1
BITMAP
48
BE
DA
AC
DA
88
B6
ENDCHAR
STARTCHAR uni50BA
ENCODING 20666
SWIDTH 1000 0
SWIDTH1 1000 0
BBX 7 7 0 -1
BITMAP
56
6A
D4
62
5C
48
6A
ENDCHAR
STARTCHAR uni50BB
ENCODING 20667
SWIDTH 1000 0
SWIDTH1 1000 0
BBX 7 7 0 -1
BITMAP
50
BE
AA
9C
B6
88
B6
ENDCHAR
STARTCHAR uni50BE
ENCODING 20670
SWIDTH 1000 0
SWIDTH1 1000 0
BBX 7 7 0 -1
BITMAP
2E
64
FE
6A
6E
70
4A
ENDCHAR
STARTCHAR uni50C2
ENCODING 20674
SWIDTH 1000 0
SWIDTH1 1000 0
BBX 7 7 0 -1
BITMAP
28
5C
F6
5C
7E
54
7A
ENDCHAR
STARTCHAR uni50C5
ENCODING 20677
SWIDTH 1000 0
SWIDTH1 1000 0
BBX 7 7 0 -1
BITMAP
54
7E
D4
FE
7E
48
7E
ENDCHAR
STARTCHAR uni50C9
ENCODING 20681
SWIDTH 1000 0
SWIDTH1 1000 0
BBX 7 7 0 -1
BITMAP
10
28
FE
AA
EE
44
AA
ENDCHAR
STARTCHAR uni50CA
ENCODING 20682
SWIDTH 1000 0
SWIDTH1 1000 0
BBX 7 7 0 -1
BITMAP
3E
5C
FE
54
6A
50
5C
ENDCHAR
STARTCHAR uni50CD
ENCODING 20685
SWIDTH 1000 0
SWIDTH1 1000 0
BBX 7 7 0 -1
BITMAP
34
5E
F6
76
56
7A
4A
ENDCHAR
STARTCHAR uni50CF
ENCODING 20687
SWIDTH 1000 0
SWIDTH1 1000 0
BBX 7 7 0 -1
BITMAP
4C
D4
7E
6A
5E
6C
5A
ENDCHAR
STARTCHAR uni50D1
ENCODING 20689
SWIDTH 1000 0
SWIDTH1 1000 0
BBX 7 7 0 -1
BITMAP
5C
7E
D4
EA
7E
62
6A
ENDCHAR
STARTCHAR uni50D5
ENCODING 20693
SWIDTH 1000 0
SWIDTH1 1000 0
BBX 7 7 0 -1
BITMAP
2A
7E
D4
7E
5C
48
76
ENDCHAR
STARTCHAR uni50D6
ENCODING 20694
SWIDTH 1000 0
SWIDTH1 1000 0
BBX 7 7 0 -1
BITMAP
28
7E
DC
54
7E
54
5C
ENDCHAR
STARTCHAR uni50DA
ENCODING 20698
SWIDTH 1000 0
SWIDTH1 1000 0
BBX 7 7 0 -1
BITMAP
28
7E
D4
7E
54
48
6A
ENDCHAR
STARTCHAR uni50DE
ENCODING 20702
SWIDTH 1000 0
SWIDTH1 1000 0
BBX 7 7 0 -1
BITMAP
3C
6A
DC
54
7E
42
6A
ENDCHAR
STARTCHAR uni50E3
ENCODING 20707
SWIDTH 1000 0
SWIDTH1 1000 0
BBX 7 7 0 -1
BITMAP
54
7E
D4
EA
5C
54
5C
ENDCHAR
STARTCHAR uni50E5
ENCODING 20709
SWIDTH 1000 0
SWIDTH1 1000 0
BBX 7 7 0 -1
BITMAP
28
5C
FE
76
7E
54
66
ENDCHAR
STARTCHAR uni50E6
ENCODING 20710
SWIDTH 1000 0
SWIDTH1 1000 0
BBX 7 7 0 -1
BITMAP
54
7E
D4
6C
54
7C
56
ENDCHAR
STARTCHAR uni50E7
ENCODING 20711
SWIDTH 1000 0
SWIDTH1 1000 0
BBX 7 7 0 -1
BITMAP
54
7E
EA
FE
5C
54
5C
ENDCHAR
STARTCHAR uni50EC
ENCODING 20716
SWIDTH 1000 0
SWIDTH1 1000 0
BBX 7 7 0 -1
BITMAP
54
DE
74
5E
54
5E
6A
ENDCHAR
STARTCHAR uni50ED
ENCODING 20717
SWIDTH 1000 0
SWIDTH1 1000 0
BBX 7 7 0 -1
BITMAP
54
5E
FE
D4
6A
5C
5C
ENDCHAR
STARTCHAR uni50EE
ENCODING 20718
SWIDTH 1000 0
SWIDTH1 1000 0
BBX 7 7 0 -1
BITMAP
28
7E
D4
7E
5C
48
7E
ENDCHAR
STARTCHAR uni50F3
ENCODING 20723
SWIDTH 1000 0
SWIDTH1 1000 0
BBX 7 7 0 -1
BITMAP
7E
5C
DC
48
6A
5C
6A
ENDCHAR
STARTCHAR uni50F5
ENCODING 20725
SWIDTH 1000 0
SWIDTH1 1000 0
BBX 7 7 0 -1
BITMAP
7E
5C
DC
7E
5C
5C
7E
ENDCHAR
STARTCHAR uni50F9
ENCODING 20729
SWIDTH 1000 0
SWIDTH1 1000 0
BBX 7 7 0 -1
BITMAP
7E
5C
C0
5C
5C
5C
62
ENDCHAR
STARTCHAR uni50FB
ENCODING 20731
SWIDTH 1000 0
SWIDTH1 1000 0
BBX 7 7 0 -1
BITMAP
24
7E
FA
6E
74
7E
44
ENDCHAR
STARTCHAR uni5100
ENCODING 20736
SWIDTH 1000 0
SWIDTH1 1000 0
BBX 7 7 0 -1
BITMAP
54
7E
C8
FE
56
7C
52
ENDCHAR
STARTCHAR uni5101
ENCODING 20737
SWIDTH 1000 0
SWIDTH1 1000 0
BBX 7 7 0 -1
BITMAP
54
5E
F4
DE
76
6A
62
ENDCHAR
STARTCHAR uni5102
ENCODING 20738
SWIDTH 1000 0
SWIDTH1 1000 0
BBX 7 7 0 -1
BITMAP
54
7E
FE
40
7E
74
5A
ENDCHAR
STARTCHAR uni5104
ENCODING 20740
SWIDTH 1000 0
SWIDTH1 1000 0
BBX 7 7 0 -1
BITMAP
28
7E
D4
7E
5C
72
6E
ENDCHAR
STARTCHAR uni5106
ENCODING 20742
SWIDTH 1000 0
SWIDTH1 1000 0
BBX 7 7 0 -1
BITMAP
A8
FE
AA
DA
B4
94
BA
ENDCHAR
STARTCHAR uni5107
ENCODING 20743
SWIDTH 1000 0
SWIDTH1 1000 0
BBX 7 7 0 -1
BITMAP
5C
5C
FE
54
7E
54
5A
ENDCHAR
STARTCHAR uni5109
ENCODING 20745
SWIDTH 1000 0
SWIDTH1 1000 0
BBX 7 7 0 -1
BITMAP
28
54
FE
6A
7E
54
6A
ENDCHAR
STARTCHAR uni510B
ENCODING 20747
SWIDTH 1000 0
SWIDTH1 1000 0
BBX 7 7 0 -1
BITMAP
58
6E
D4
5E
50
5E
6E
ENDCHAR
STARTCHAR uni5112
ENCODING 20754
SWIDTH 1000 0
SWIDTH1 1000 0
BBX 7 7 0 -1
BITMAP
5C
7E
EA
DC
48
7E
6A
ENDCHAR
STARTCHAR uni5114
ENCODING 20756
SWIDTH 1000 0
SWIDTH1 1000 0
BBX 7 7 0 -1
BITMAP
28
5C
FE
48
7E
74
4C
ENDCHAR
STARTCHAR uni5115
ENCODING 20757
SWIDTH 1000 0
SWIDTH1 1000 0
BBX 7 7 0 -1
BITMAP
28
7E
D4
6A
54
5C
64
ENDCHAR
STARTCHAR uni5116
ENCODING 20758
SWIDTH 1000 0
SWIDTH1 1000 0
BBX 7 7 0 -1
BITMAP
34
66
E0
76
40
5C
7E
ENDCHAR
STARTCHAR uni5118
ENCODING 20760
SWIDTH 1000 0
SWIDTH1 1000 0
BBX 7 7 0 -1
BITMAP
28
5C
CE
5C
6A
5C
7E
ENDCHAR
STARTCHAR uni511A
ENCODING 20762
SWIDTH 1000 0
SWIDTH1 1000 0
BBX 7 7 0 -1
BITMAP
54
7E
DC
FE
6E
44
58
ENDCHAR
STARTCHAR uni511F
ENCODING 20767
SWIDTH 1000 0
SWIDTH1 1000 0
BBX 7 7 0 -1
BITMAP
2A
5C
F6
5C
5C
5C
62
ENDCHAR
STARTCHAR uni5121
ENCODING 20769
SWIDTH 1000 0
SWIDTH1 1000 0
BBX 7 7 0 -1
BITMAP
5C
5C
DC
40
76
76
76
ENDCHAR
STARTCHAR uni512A
ENCODING 20778
SWIDTH 1000 0
SWIDTH1 1000 0
BBX 7 7 0 -1
BITMAP
3E
5C
DC
7E
76
48
76
ENDCHAR
STARTCHAR uni5132
ENCODING 20786
SWIDTH 1000 0
SWIDTH1 1000 0
BBX 7 7 0 -1
BITMAP
24
7E
C4
6E
48
76
76
ENDCHAR
STARTCHAR uni5137
ENCODING 20791
SWIDTH 1000 0
SWIDTH1 1000 0
BBX 7 7 0 -1
BITMAP
36
6A
FE
6C
7E
64
76
ENDCHAR
STARTCHAR uni513A
ENCODING 20794
SWIDTH 1000 0
SWIDTH1 1000 0
BBX 7 7 0 -1
BITMAP
2A
7C
D6
7C
7E
54
6E
ENDCHAR
STARTCHAR uni513B
ENCODING 20795
SWIDTH 1000 0
SWIDTH1 1000 0
BBX 7 7 0 -1
BITMAP
2A
7E
EA
5C
7E
40
6A
ENDCHAR
STARTCHAR uni513C
ENCODING 20796
SWIDTH 1000 0
SWIDTH1 1000 0
BBX 7 7 0 -1
BITMAP
36
7E
F4
7E
7A
7C
6A
ENDCHAR
STARTCHAR uni513F
ENCODING 20799
SWIDTH 1000 0
SWIDTH1 1000 0
BBX 7 7 0 -1
BITMAP
28
28
28
28
28
4A
8E
ENDCHAR
STARTCHAR uni5140
ENCODING 20800
SWIDTH 1000 0
SWIDTH1 1000 0
BBX 7 7 0 -1
BITMAP
FE
28
28
28
28
4A
8E
ENDCHAR
STARTCHAR uni5141
ENCODING 20801
SWIDTH 1000 0
SWIDTH1 1000 0
BBX 7 7 0 -1
BITMAP
10
24
FA
28
28
4A
8E
ENDCHAR
STARTCHAR uni5142
ENCODING 20802
SWIDTH 1000 0
SWIDTH1 1000 0
BBX 7 7 0 -1
BITMAP
10
FE
50
7E
10
2A
CE
ENDCHAR
STARTCHAR uni5143
ENCODING 20803
SWIDTH 1000 0
SWIDTH1 1000 0
BBX 7 7 0 -1
BITMAP
7C
00
FE
28
28
4A
8E
ENDCHAR
STARTCHAR uni5144
ENCODING 20804
SWIDTH 1000 0
SWIDTH1 1000 0
BBX 7 7 0 -1
BITMAP
7C
44
44
7C
28
2A
CE
ENDCHAR
STARTCHAR uni5145
ENCODING 20805
SWIDTH 1000 0
SWIDTH1 1000 0
BBX 7 7 0 -1
BITMAP
10
FE
28
74
28
2A
CE
ENDCHAR
STARTCHAR uni5146
ENCODING 20806
SWIDTH 1000 0
SWIDTH1 1000 0
BBX 7 7 0 -1
BITMAP
28
AA
6C
2C
EA
28
CE
ENDCHAR
STARTCHAR uni5147
ENCODING 20807
SWIDTH 1000 0
SWIDTH1 1000 0
BBX 7 7 0 -1
BITMAP
6C
54
6C
44
7C
2A
CE
ENDCHAR
STARTCHAR uni5148
ENCODING 20808
SWIDTH 1000 0
SWIDTH1 1000 0
BBX 7 7 0 -1
BITMAP
50
7C
90
FE
28
2A
CE
ENDCHAR
STARTCHAR uni5149
ENCODING 20809
SWIDTH 1000 0
SWIDTH1 1000 0
BBX 7 7 0 -1
BITMAP
92
54
10
FE
28
2A
CE
ENDCHAR
STARTCHAR uni514A
ENCODING 20810
SWIDTH 1000 0
SWIDTH1 1000 0
BBX 7 7 0 -1
BITMAP
44
92
24
7C
28
2A
CE
ENDCHAR
STARTCHAR uni514B
ENCODING 20811
SWIDTH 1000 0
SWIDTH1 1000 0
BBX 7 7 0 -1
BITMAP
10
FE
7C
44
7C
2A
CE
ENDCHAR
STARTCHAR uni514C
ENCODING 20812
SWIDTH 1000 0
SWIDTH1 1000 0
BBX 7 7 0 -1
BITMAP
28
44
FE
44
7C
2A
CE
ENDCHAR
STARTCHAR uni514D
ENCODING 20813
SWIDTH 1000 0
SWIDTH1 1000 0
BBX 7 7 0 -1
BITMAP
38
C8
7C
54
7C
2A
CE
ENDCHAR
STARTCHAR uni514E
ENCODING 20814
SWIDTH 1000 0
SWIDTH1 1000 0
BBX 7 7 0 -1
BITMAP
FC
10
7C
54
7C
2A
CE
ENDCHAR
STARTCHAR uni514F
ENCODING 20815
SWIDTH 1000 0
SWIDTH1 1000 0
BBX 7 7 0 -1
BITMAP
7E
48
4E
48
7E
54
E6
ENDCHAR
STARTCHAR uni5150
ENCODING 20816
SWIDTH 1000 0
SWIDTH1 1000 0
BBX 7 7 0 -1
BITMAP
5C
54
5C
54
5C
2A
CE
ENDCHAR
STARTCHAR uni5151
ENCODING 20817
SWIDTH 1000 0
SWIDTH1 1000 0
BBX 7 7 0 -1
BITMAP
44
28
7C
44
7C
28
CE
ENDCHAR
STARTCHAR uni5152
ENCODING 20818
SWIDTH 1000 0
SWIDTH1 1000 0
BBX 7 7 0 -1
BITMAP
2C
44
6C
44
7C
2A
CE
ENDCHAR
STARTCHAR uni5153
ENCODING 20819
SWIDTH 1000 0
SWIDTH1 1000 0
BBX 7 7 0 -1
BITMAP
EE
44
D4
FE
4C
54
A6
ENDCHAR
STARTCHAR uni5154
ENCODING 20820
SWIDTH 1000 0
SWIDTH1 1000 0
BBX 7 7 0 -1
BITMAP
38
C8
7E
52
7E
34
DE
ENDCHAR
STARTCHAR uni5155
ENCODING 20821
SWIDTH 1000 0
SWIDTH1 1000 0
BBX 7 7 0 -1
BITMAP
EE
BA
82
FE
28
2A
CE
ENDCHAR
STARTCHAR uni5156
ENCODING 20822
SWIDTH 1000 0
SWIDTH1 1000 0
BBX 7 7 0 -1
BITMAP
10
FE
54
AA
7C
2A
CE
ENDCHAR
STARTCHAR uni515A
ENCODING 20826
SWIDTH 1000 0
SWIDTH1 1000 0
BBX 7 7 0 -1
BITMAP
54
FE
BA
28
38
2A
CE
ENDCHAR
STARTCHAR uni515C
ENCODING 20828
SWIDTH 1000 0
SWIDTH1 1000 0
BBX 7 7 0 -1
BITMAP
56
AA
BA
AA
FE
28
CE
ENDCHAR
STARTCHAR uni5162
ENCODING 20834
SWIDTH 1000 0
SWIDTH1 1000 0
BBX 7 7 0 -1
BITMAP
24
FE
24
5A
7E
6C
B6
ENDCHAR
STARTCHAR uni5165
ENCODING 20837
SWIDTH 1000 0
SWIDTH1 1000 0
BBX 7 7 0 -1
BITMAP
70
10
10
10
28
44
82
ENDCHAR
STARTCHAR uni5166
ENCODING 20838
SWIDTH 1000 0
SWIDTH1 1000 0
BBX 7 7 0 -1
BITMAP
90
88
88
94
A2
80
FE
ENDCHAR
STARTCHAR uni5167
ENCODING 20839
SWIDTH 1000 0
SWIDTH1 1000 0
BBX 7 7 0 -1
BITMAP
20
10
FE
92
92
AA
C6
ENDCHAR
STARTCHAR uni5168
ENCODING 20840
SWIDTH 1000 0
SWIDTH1 1000 0
BBX 7 7 0 -1
BITMAP
38
C6
7C
10
7C
10
FE
ENDCHAR
STARTCHAR uni5169
ENCODING 20841
SWIDTH 1000 0
SWIDTH1 1000 0
BBX 7 7 0 -1
BITMAP
FE
10
FE
DA
DA
B6
92
ENDCHAR
STARTCHAR uni516A
ENCODING 20842
SWIDTH 1000 0
SWIDTH1 1000 0
BBX 7 7 0 -1
BITMAP
70
28
DE
00
EA
F4
AA
ENDCHAR
STARTCHAR uni516B
ENCODING 20843
SWIDTH 1000 0
SWIDTH1 1000 0
BBX 7 7 0 -1
BITMAP
28
28
28
28
44
44
82
ENDCHAR
STARTCHAR uni516C
ENCODING 20844
SWIDTH 1000 0
SWIDTH1 1000 0
BBX 7 7 0 -1
BITMAP
28
28
44
92
10
24
FA
ENDCHAR
STARTCHAR uni516D
ENCODING 20845
SWIDTH 1000 0
SWIDTH1 1000 0
BBX 7 7 0 -1
BITMAP
10
FE
00
28
28
44
82
ENDCHAR
STARTCHAR uni516E
ENCODING 20846
SWIDTH 1000 0
SWIDTH1 1000 0
BBX 7 7 0 -1
BITMAP
28
44
FA
20
3C
04
0C
ENDCHAR
STARTCHAR uni516F
ENCODING 20847
SWIDTH 1000 0
SWIDTH1 1000 0
BBX 7 7 0 -1
BITMAP
44
28
FE
22
22
2E
20
ENDCHAR
STARTCHAR uni5170
ENCODING 20848
SWIDTH 1000 0
SWIDTH1 1000 0
BBX 7 7 0 -1
BITMAP
44
28
FE
00
7C
00
FE
ENDCHAR
STARTCHAR uni5171
ENCODING 20849
SWIDTH 1000 0
SWIDTH1 1000 0
BBX 7 7 0 -1
BITMAP
44
FE
44
44
FE
00
C6
ENDCHAR
STARTCHAR uni5172
ENCODING 20850
SWIDTH 1000 0
SWIDTH1 1000 0
BBX 7 7 0 -1
BITMAP
FE
10
FE
10
FE
44
82
ENDCHAR
STARTCHAR uni5173
ENCODING 20851
SWIDTH 1000 0
SWIDTH1 1000 0
BBX 7 7 0 -1
BITMAP
44
00
FE
10
FE
28
C6
ENDCHAR
STARTCHAR uni5174
ENCODING 20852
SWIDTH 1000 0
SWIDTH1 1000 0
BBX 7 7 0 -1
BITMAP
22
92
44
FE
00
44
82
ENDCHAR
STARTCHAR uni5175
ENCODING 20853
SWIDTH 1000 0
SWIDTH1 1000 0
BBX 7 7 0 -1
BITMAP
7C
40
7C
48
FE
44
82
ENDCHAR
STARTCHAR uni5176
ENCODING 20854
SWIDTH 1000 0
SWIDTH1 1000 0
BBX 7 7 0 -1
BITMAP
28
FE
28
38
FE
00
C6
ENDCHAR
STARTCHAR uni5177
ENCODING 20855
SWIDTH 1000 0
SWIDTH1 1000 0
BBX 7 7 0 -1
BITMAP
7C
44
7C
44
FE
00
C6
ENDCHAR
STARTCHAR uni5178
ENCODING 20856
SWIDTH 1000 0
SWIDTH1 1000 0
BBX 7 7 0 -1
BITMAP
28
7C
6C
7C
FE
00
C6
ENDCHAR
STARTCHAR uni5179
ENCODING 20857
SWIDTH 1000 0
SWIDTH1 1000 0
BBX 7 7 0 -1
BITMAP
28
FE
44
AA
44
AA
EE
ENDCHAR
STARTCHAR uni517B
ENCODING 20859
SWIDTH 1000 0
SWIDTH1 1000 0
BBX 7 7 0 -1
BITMAP
24
FE
10
FE
44
AA
28
ENDCHAR
STARTCHAR uni517C
ENCODING 20860
SWIDTH 1000 0
SWIDTH1 1000 0
BBX 7 7 0 -1
BITMAP
28
FE
2C
7C
28
7C
AA
ENDCHAR
STARTCHAR uni517D
ENCODING 20861
SWIDTH 1000 0
SWIDTH1 1000 0
BBX 7 7 0 -1
BITMAP
28
54
7C
54
FE
44
7C
ENDCHAR
STARTCHAR uni5180
ENCODING 20864
SWIDTH 1000 0
SWIDTH1 1000 0
BBX 7 7 0 -1
BITMAP
28
EE
28
FE
38
FE
44
ENDCHAR
STARTCHAR uni5181
ENCODING 20865
SWIDTH 1000 0
SWIDTH1 1000 0
BBX 7 7 0 -1
BITMAP
AE
0E
EE
AC
4A
F4
5A
ENDCHAR
STARTCHAR uni5182
ENCODING 20866
SWIDTH 1000 0
SWIDTH1 1000 0
BBX 7 7 0 -1
BITMAP
FE
82
82
82
82
82
86
ENDCHAR
STARTCHAR uni5183
ENCODING 20867
SWIDTH 1000 0
SWIDTH1 1000 0
BBX 7 7 0 -1
BITMAP
FE
82
BA
82
BA
82
86
ENDCHAR
STARTCHAR uni5184
ENCODING 20868
SWIDTH 1000 0
SWIDTH1 1000 0
BBX 7 7 0 -1
BITMAP
7C
44
FE
44
FE
44
4C
ENDCHAR
STARTCHAR uni5185
ENCODING 20869
SWIDTH 1000 0
SWIDTH1 1000 0
BBX 7 7 0 -1
BITMAP
10
FE
92
AA
C6
82
86
ENDCHAR
STARTCHAR uni5186
ENCODING 20870
SWIDTH 1000 0
SWIDTH1 1000 0
BBX 7 7 0 -1
BITMAP
FE
92
92
FE
82
82
86
ENDCHAR
STARTCHAR uni5187
ENCODING 20871
SWIDTH 1000 0
SWIDTH1 1000 0
BBX 7 7 0 -1
BITMAP
20
FE
20
7C
A4
24
2C
ENDCHAR
STARTCHAR uni5188
ENCODING 20872
SWIDTH 1000 0
SWIDTH1 1000 0
BBX 7 7 0 -1
BITMAP
FE
82
AA
92
AA
82
86
ENDCHAR
STARTCHAR uni5189
ENCODING 20873
SWIDTH 1000 0
SWIDTH1 1000 0
BBX 7 7 0 -1
BITMAP
10
7C
54
7C
54
FE
44
ENDCHAR
STARTCHAR uni518A
ENCODING 20874
SWIDTH 1000 0
SWIDTH1 1000 0
BBX 7 7 0 -1
BITMAP
FE
AA
AA
FE
AA
AA
82
ENDCHAR
STARTCHAR uni518B
ENCODING 20875
SWIDTH 1000 0
SWIDTH1 1000 0
BBX 7 7 0 -1
BITMAP
FE
82
BA
AA
BA
82
86
ENDCHAR
STARTCHAR uni518C
ENCODING 20876
SWIDTH 1000 0
SWIDTH1 1000 0
BBX 7 7 0 -1
BITMAP
7C
54
54
FE
54
54
AC
ENDCHAR
STARTCHAR uni518D
ENCODING 20877
SWIDTH 1000 0
SWIDTH1 1000 0
BBX 7 7 0 -1
BITMAP
FE
54
7C
54
FE
44
4C
ENDCHAR
STARTCHAR uni518E
ENCODING 20878
SWIDTH 1000 0
SWIDTH1 1000 0
BBX 7 7 0 -1
BITMAP
7C
44
74
54
FE
82
86
ENDCHAR
STARTCHAR uni518F
ENCODING 20879
SWIDTH 1000 0
SWIDTH1 1000 0
BBX 7 7 0 -1
BITMAP
FE
AA
CE
BA
AA
BA
86
ENDCHAR
STARTCHAR uni5190
ENCODING 20880
SWIDTH 1000 0
SWIDTH1 1000 0
BBX 7 7 0 -1
BITMAP
FE
82
BA
7C
44
7C
44
ENDCHAR
STARTCHAR uni5191
ENCODING 20881
SWIDTH 1000 0
SWIDTH1 1000 0
BBX 7 7 0 -1
BITMAP
10
FE
92
FE
44
5C
44
ENDCHAR
STARTCHAR uni5192
ENCODING 20882
SWIDTH 1000 0
SWIDTH1 1000 0
BBX 7 7 0 -1
BITMAP
FE
82
FE
44
7C
44
7C
ENDCHAR
STARTCHAR uni5193
ENCODING 20883
SWIDTH 1000 0
SWIDTH1 1000 0
BBX 7 7 0 -1
BITMAP
28
FE
28
FE
54
FE
44
ENDCHAR
STARTCHAR uni5194
ENCODING 20884
SWIDTH 1000 0
SWIDTH1 1000 0
BBX 7 7 0 -1
BITMAP
FE
BA
00
78
EE
A4
EC
ENDCHAR
STARTCHAR uni5195
ENCODING 20885
SWIDTH 1000 0
SWIDTH1 1000 0
BBX 7 7 0 -1
BITMAP
7C
44
3C
D4
7C
2A
CE
ENDCHAR
STARTCHAR uni5196
ENCODING 20886
SWIDTH 1000 0
SWIDTH1 1000 0
BBX 7 2 0 2
BITMAP
FE
82
ENDCHAR
STARTCHAR uni5197
ENCODING 20887
SWIDTH 1000 0
SWIDTH1 1000 0
BBX 7 7 0 -1
BITMAP
FE
82
38
28
28
4A
8E
ENDCHAR
STARTCHAR uni5198
ENCODING 20888
SWIDTH 1000 0
SWIDTH1 1000 0
BBX 7 7 0 -1
BITMAP
10
FE
92
10
28
4A
8E
ENDCHAR
STARTCHAR uni5199
ENCODING 20889
SWIDTH 1000 0
SWIDTH1 1000 0
BBX 7 7 0 -1
BITMAP
FE
A2
3C
20
3C
04
F4
ENDCHAR
STARTCHAR uni519B
ENCODING 20891
SWIDTH 1000 0
SWIDTH1 1000 0
BBX 7 7 0 -1
BITMAP
FE
A2
7C
38
08
FE
08
ENDCHAR
STARTCHAR uni519C
ENCODING 20892
SWIDTH 1000 0
SWIDTH1 1000 0
BBX 7 7 0 -1
BITMAP
10
FE
92
34
68
A4
32
ENDCHAR
STARTCHAR uni519D
ENCODING 20893
SWIDTH 1000 0
SWIDTH1 1000 0
BBX 7 7 0 -1
BITMAP
FE
82
7C
44
7C
44
FE
ENDCHAR
STARTCHAR uni519E
ENCODING 20894
SWIDTH 1000 0
SWIDTH1 1000 0
BBX 7 7 0 -1
BITMAP
FE
92
54
10
FE
54
92
ENDCHAR
STARTCHAR uni51A0
ENCODING 20896
SWIDTH 1000 0
SWIDTH1 1000 0
BBX 7 7 0 -1
BITMAP
FE
82
64
0E
F4
6C
BE
ENDCHAR
STARTCHAR uni51A2
ENCODING 20898
SWIDTH 1000 0
SWIDTH1 1000 0
BBX 7 7 0 -1
BITMAP
FE
BA
30
DA
2C
CA
30
ENDCHAR
STARTCHAR uni51A4
ENCODING 20900
SWIDTH 1000 0
SWIDTH1 1000 0
BBX 7 7 0 -1
BITMAP
FE
BA
3C
D4
7C
2A
CE
ENDCHAR
STARTCHAR uni51A5
ENCODING 20901
SWIDTH 1000 0
SWIDTH1 1000 0
BBX 7 7 0 -1
BITMAP
FE
BA
28
38
FE
00
C6
ENDCHAR
STARTCHAR uni51A6
ENCODING 20902
SWIDTH 1000 0
SWIDTH1 1000 0
BBX 7 7 0 -1
BITMAP
FE
86
6C
0A
E4
6A
BE
ENDCHAR
STARTCHAR uni51A8
ENCODING 20904
SWIDTH 1000 0
SWIDTH1 1000 0
BBX 7 7 0 -1
BITMAP
FE
BA
28
38
7C
54
7C
ENDCHAR
STARTCHAR uni51A9
ENCODING 20905
SWIDTH 1000 0
SWIDTH1 1000 0
BBX 7 7 0 -1
BITMAP
FE
82
6C
44
7E
82
56
ENDCHAR
STARTCHAR uni51AA
ENCODING 20906
SWIDTH 1000 0
SWIDTH1 1000 0
BBX 7 7 0 -1
BITMAP
FE
AA
7C
28
FE
7C
92
ENDCHAR
STARTCHAR uni51AB
ENCODING 20907
SWIDTH 1000 0
SWIDTH1 1000 0
BBX 4 7 1 -1
BITMAP
80
40
00
10
20
40
80
ENDCHAR
STARTCHAR uni51AC
ENCODING 20908
SWIDTH 1000 0
SWIDTH1 1000 0
BBX 7 7 0 -1
BITMAP
20
7C
A8
10
EE
00
38
ENDCHAR
STARTCHAR uni51AD
ENCODING 20909
SWIDTH 1000 0
SWIDTH1 1000 0
BBX 8 7 0 -1
BITMAP
10
FF
28
C6
30
00
38
ENDCHAR
STARTCHAR uni51AE
ENCODING 20910
SWIDTH 1000 0
SWIDTH1 1000 0
BBX 7 7 0 -1
BITMAP
9C
48
08
08
48
88
BE
ENDCHAR
STARTCHAR uni51AF
ENCODING 20911
SWIDTH 1000 0
SWIDTH1 1000 0
BBX 7 7 0 -1
BITMAP
BC
94
14
1E
82
BA
86
ENDCHAR
STARTCHAR uni51B0
ENCODING 20912
SWIDTH 1000 0
SWIDTH1 1000 0
BBX 7 7 0 -1
BITMAP
88
0A
3C
18
AC
8A
98
ENDCHAR
STARTCHAR uni51B1
ENCODING 20913
SWIDTH 1000 0
SWIDTH1 1000 0
BBX 7 7 0 -1
BITMAP
BE
48
0E
12
5C
84
BE
ENDCHAR
STARTCHAR uni51B2
ENCODING 20914
SWIDTH 1000 0
SWIDTH1 1000 0
BBX 7 7 0 -1
BITMAP
88
3E
2A
2A
BE
88
88
ENDCHAR
STARTCHAR uni51B3
ENCODING 20915
SWIDTH 1000 0
SWIDTH1 1000 0
BBX 7 7 0 -1
BITMAP
90
BC
14
7E
10
90
AC
ENDCHAR
STARTCHAR uni51B4
ENCODING 20916
SWIDTH 1000 0
SWIDTH1 1000 0
BBX 7 7 0 -1
BITMAP
BE
14
14
3E
8C
B4
8C
ENDCHAR
STARTCHAR uni51B5
ENCODING 20917
SWIDTH 1000 0
SWIDTH1 1000 0
BBX 7 7 0 -1
BITMAP
BE
22
22
3E
94
94
A6
ENDCHAR
STARTCHAR uni51B6
ENCODING 20918
SWIDTH 1000 0
SWIDTH1 1000 0
BBX 7 7 0 -1
BITMAP
90
24
3A
00
BC
A4
BC
ENDCHAR
STARTCHAR uni51B7
ENCODING 20919
SWIDTH 1000 0
SWIDTH1 1000 0
BBX 7 7 0 -1
BITMAP
9C
A2
08
3E
04
88
84
ENDCHAR
STARTCHAR uni51BB
ENCODING 20923
SWIDTH 1000 0
SWIDTH1 1000 0
BBX 7 7 0 -1
BITMAP
88
BE
14
3E
04
B6
8C
ENDCHAR
STARTCHAR uni51BC
ENCODING 20924
SWIDTH 1000 0
SWIDTH1 1000 0
BBX 7 7 0 -1
BITMAP
A8
BE
08
3E
94
94
A6
ENDCHAR
STARTCHAR uni51BD
ENCODING 20925
SWIDTH 1000 0
SWIDTH1 1000 0
BBX 7 7 0 -1
BITMAP
BA
16
1E
2E
9A
92
A6
ENDCHAR
STARTCHAR uni51C0
ENCODING 20928
SWIDTH 1000 0
SWIDTH1 1000 0
BBX 7 7 0 -1
BITMAP
98
A8
14
7E
94
BC
90
ENDCHAR
STARTCHAR uni51C4
ENCODING 20932
SWIDTH 1000 0
SWIDTH1 1000 0
BBX 7 7 0 -1
BITMAP
88
3E
0C
1C
BE
94
BA
ENDCHAR
STARTCHAR uni51C5
ENCODING 20933
SWIDTH 1000 0
SWIDTH1 1000 0
BBX 7 7 0 -1
BITMAP
BE
2A
3E
2A
B6
AA
BE
ENDCHAR
STARTCHAR uni51C6
ENCODING 20934
SWIDTH 1000 0
SWIDTH1 1000 0
BBX 7 7 0 -1
BITMAP
94
1E
34
1E
54
94
9E
ENDCHAR
STARTCHAR uni51C7
ENCODING 20935
SWIDTH 1000 0
SWIDTH1 1000 0
BBX 7 7 0 -1
BITMAP
AA
AA
70
24
74
EA
AE
ENDCHAR
STARTCHAR uni51C9
ENCODING 20937
SWIDTH 1000 0
SWIDTH1 1000 0
BBX 7 7 0 -1
BITMAP
88
3E
14
1C
88
AA
98
ENDCHAR
STARTCHAR uni51CB
ENCODING 20939
SWIDTH 1000 0
SWIDTH1 1000 0
BBX 7 7 0 -1
BITMAP
BE
2A
3E
2A
B6
BE
A2
ENDCHAR
STARTCHAR uni51CC
ENCODING 20940
SWIDTH 1000 0
SWIDTH1 1000 0
BBX 7 7 0 -1
BITMAP
88
1C
08
3E
94
A8
96
ENDCHAR
STARTCHAR uni51CD
ENCODING 20941
SWIDTH 1000 0
SWIDTH1 1000 0
BBX 7 7 0 -1
BITMAP
88
3E
1C
1C
48
9C
AA
ENDCHAR
STARTCHAR uni51CE
ENCODING 20942
SWIDTH 1000 0
SWIDTH1 1000 0
BBX 7 7 0 -1
BITMAP
9C
A2
1C
08
BE
9C
BE
ENDCHAR
STARTCHAR uni51CF
ENCODING 20943
SWIDTH 1000 0
SWIDTH1 1000 0
BBX 7 7 0 -1
BITMAP
84
7E
44
7C
46
F4
B2
ENDCHAR
STARTCHAR uni51D1
ENCODING 20945
SWIDTH 1000 0
SWIDTH1 1000 0
BBX 7 7 0 -1
BITMAP
88
BE
14
2A
9C
88
36
ENDCHAR
STARTCHAR uni51D6
ENCODING 20950
SWIDTH 1000 0
SWIDTH1 1000 0
BBX 7 7 0 -1
BITMAP
94
1E
34
9E
10
FE
10
ENDCHAR
STARTCHAR uni51DB
ENCODING 20955
SWIDTH 1000 0
SWIDTH1 1000 0
BBX 7 7 0 -1
BITMAP
88
3E
14
1C
BE
88
AA
ENDCHAR
STARTCHAR uni51DC
ENCODING 20956
SWIDTH 1000 0
SWIDTH1 1000 0
BBX 7 7 0 -1
BITMAP
88
3E
14
1C
BE
9C
AA
ENDCHAR
STARTCHAR uni51DD
ENCODING 20957
SWIDTH 1000 0
SWIDTH1 1000 0
BBX 7 7 0 -1
BITMAP
A6
3A
26
1C
BE
94
AA
ENDCHAR
STARTCHAR uni51E0
ENCODING 20960
SWIDTH 1000 0
SWIDTH1 1000 0
BBX 7 7 0 -1
BITMAP
7C
44
44
44
44
44
86
ENDCHAR
STARTCHAR uni51E1
ENCODING 20961
SWIDTH 1000 0
SWIDTH1 1000 0
BBX 7 7 0 -1
BITMAP
7C
44
64
54
54
44
86
ENDCHAR
STARTCHAR uni51E2
ENCODING 20962
SWIDTH 1000 0
SWIDTH1 1000 0
BBX 7 7 0 -1
BITMAP
10
20
78
48
48
4A
8E
ENDCHAR
STARTCHAR uni51E4
ENCODING 20964
SWIDTH 1000 0
SWIDTH1 1000 0
BBX 7 7 0 -1
BITMAP
FC
84
BC
AC
94
AC
82
ENDCHAR
STARTCHAR uni51E5
ENCODING 20965
SWIDTH 1000 0
SWIDTH1 1000 0
BBX 7 7 0 -1
BITMAP
FE
82
FE
80
B8
AA
AE
ENDCHAR
STARTCHAR uni51E6
ENCODING 20966
SWIDTH 1000 0
SWIDTH1 1000 0
BBX 7 7 0 -1
BITMAP
40
7C
54
D4
26
50
8E
ENDCHAR
STARTCHAR uni51E7
ENCODING 20967
SWIDTH 1000 0
SWIDTH1 1000 0
BBX 7 7 0 -1
BITMAP
7C
44
54
7C
7C
54
96
ENDCHAR
STARTCHAR uni51E9
ENCODING 20969
SWIDTH 1000 0
SWIDTH1 1000 0
BBX 7 7 0 -1
BITMAP
7C
44
54
7C
54
7C
96
ENDCHAR
STARTCHAR uni51EA
ENCODING 20970
SWIDTH 1000 0
SWIDTH1 1000 0
BBX 7 7 0 -1
BITMAP
FC
84
94
DC
D4
FC
86
ENDCHAR
STARTCHAR uni51EB
ENCODING 20971
SWIDTH 1000 0
SWIDTH1 1000 0
BBX 7 7 0 -1
BITMAP
20
FC
94
FE
02
74
9C
ENDCHAR
STARTCHAR uni51ED
ENCODING 20973
SWIDTH 1000 0
SWIDTH1 1000 0
BBX 7 7 0 -1
BITMAP
24
58
FE
48
3C
28
CE
ENDCHAR
STARTCHAR uni51EE
ENCODING 20974
SWIDTH 1000 0
SWIDTH1 1000 0
BBX 7 7 0 -1
BITMAP
FC
84
F4
A4
F4
D4
F6
ENDCHAR
STARTCHAR uni51EF
ENCODING 20975
SWIDTH 1000 0
SWIDTH1 1000 0
BBX 7 7 0 -1
BITMAP
AC
F4
14
D4
54
94
D6
ENDCHAR
STARTCHAR uni51F0
ENCODING 20976
SWIDTH 1000 0
SWIDTH1 1000 0
BBX 7 7 0 -1
BITMAP
7C
54
7C
6C
7C
54
BA
ENDCHAR
STARTCHAR uni51F1
ENCODING 20977
SWIDTH 1000 0
SWIDTH1 1000 0
BBX 7 7 0 -1
BITMAP
AE
FA
0A
FA
5A
2A
F2
ENDCHAR
STARTCHAR uni51F3
ENCODING 20979
SWIDTH 1000 0
SWIDTH1 1000 0
BBX 7 7 0 -1
BITMAP
AA
44
BA
44
FE
28
CE
ENDCHAR
STARTCHAR uni51F4
ENCODING 20980
SWIDTH 1000 0
SWIDTH1 1000 0
BBX 7 7 0 -1
BITMAP
9E
14
9E
AA
00
38
CE
ENDCHAR
STARTCHAR uni51F5
ENCODING 20981
SWIDTH 1000 0
SWIDTH1 1000 0
BBX 7 7 0 -1
BITMAP
82
82
82
82
82
82
FE
ENDCHAR
STARTCHAR uni51F6
ENCODING 20982
SWIDTH 1000 0
SWIDTH1 1000 0
BBX 7 7 0 -1
BITMAP
82
82
AA
92
AA
82
FE
ENDCHAR
STARTCHAR uni51F7
ENCODING 20983
SWIDTH 1000 0
SWIDTH1 1000 0
BBX 7 7 0 -1
BITMAP
10
92
BA
92
BA
82
FE
ENDCHAR
STARTCHAR uni51F8
ENCODING 20984
SWIDTH 1000 0
SWIDTH1 1000 0
BBX 7 7 0 -1
BITMAP
38
28
28
EE
82
82
FE
ENDCHAR
STARTCHAR uni51F9
ENCODING 20985
SWIDTH 1000 0
SWIDTH1 1000 0
BBX 7 7 0 -1
BITMAP
EE
AA
AA
BA
82
82
FE
ENDCHAR
STARTCHAR uni51FA
ENCODING 20986
SWIDTH 1000 0
SWIDTH1 1000 0
BBX 7 7 0 -1
BITMAP
10
54
54
7C
92
92
FE
ENDCHAR
STARTCHAR uni51FB
ENCODING 20987
SWIDTH 1000 0
SWIDTH1 1000 0
BBX 7 7 0 -1
BITMAP
10
7C
10
FE
10
54
7C
ENDCHAR
STARTCHAR uni51FC
ENCODING 20988
SWIDTH 1000 0
SWIDTH1 1000 0
BBX 7 7 0 -1
BITMAP
92
F6
BA
D6
92
B2
FE
ENDCHAR
STARTCHAR uni51FD
ENCODING 20989
SWIDTH 1000 0
SWIDTH1 1000 0
BBX 7 7 0 -1
BITMAP
FE
20
B2
D6
BA
D6
FE
ENDCHAR
STARTCHAR uni51FE
ENCODING 20990
SWIDTH 1000 0
SWIDTH1 1000 0
BBX 7 7 0 -1
BITMAP
7C
08
9A
F6
DA
F6
FE
ENDCHAR
STARTCHAR uni51FF
ENCODING 20991
SWIDTH 1000 0
SWIDTH1 1000 0
BBX 7 7 0 -1
BITMAP
AA
FE
28
92
BA
92
FE
ENDCHAR
STARTCHAR uni5200
ENCODING 20992
SWIDTH 1000 0
SWIDTH1 1000 0
BBX 7 7 0 -1
BITMAP
FE
12
12
22
22
42
86
ENDCHAR
STARTCHAR uni5201
ENCODING 20993
SWIDTH 1000 0
SWIDTH1 1000 0
BBX 6 7 1 -1
BITMAP
FC
04
14
24
44
84
0C
ENDCHAR
STARTCHAR uni5202
ENCODING 20994
SWIDTH 1000 0
SWIDTH1 1000 0
BBX 3 7 3 -1
BITMAP
20
A0
A0
A0
A0
20
60
ENDCHAR
STARTCHAR uni5203
ENCODING 20995
SWIDTH 1000 0
SWIDTH1 1000 0
BBX 7 7 0 -1
BITMAP
FE
12
12
72
2A
42
86
ENDCHAR
STARTCHAR uni5204
ENCODING 20996
SWIDTH 1000 0
SWIDTH1 1000 0
BBX 7 7 0 -1
BITMAP
FE
12
52
32
2E
42
86
ENDCHAR
STARTCHAR uni5205
ENCODING 20997
SWIDTH 1000 0
SWIDTH1 1000 0
BBX 7 7 0 -1
BITMAP
F8
28
28
AA
AA
28
D8
ENDCHAR
STARTCHAR uni5206
ENCODING 20998
SWIDTH 1000 0
SWIDTH1 1000 0
BBX 7 7 0 -1
BITMAP
28
28
44
BE
14
24
CC
ENDCHAR
STARTCHAR uni5207
ENCODING 20999
SWIDTH 1000 0
SWIDTH1 1000 0
BBX 7 7 0 -1
BITMAP
5E
4A
EA
4A
4A
6A
16
ENDCHAR
STARTCHAR uni5208
ENCODING 21000
SWIDTH 1000 0
SWIDTH1 1000 0
BBX 7 7 0 -1
BITMAP
22
AA
AA
4A
4A
A2
A6
ENDCHAR
STARTCHAR uni5209
ENCODING 21001
SWIDTH 1000 0
SWIDTH1 1000 0
BBX 7 7 0 -1
BITMAP
42
F2
0A
EA
4A
92
F6
ENDCHAR
STARTCHAR uni520A
ENCODING 21002
SWIDTH 1000 0
SWIDTH1 1000 0
BBX 7 7 0 -1
BITMAP
72
2A
2A
FA
22
22
26
ENDCHAR
STARTCHAR uni520B
ENCODING 21003
SWIDTH 1000 0
SWIDTH1 1000 0
BBX 7 7 0 -1
BITMAP
22
C2
4A
EA
4A
42
86
ENDCHAR
STARTCHAR uni520C
ENCODING 21004
SWIDTH 1000 0
SWIDTH1 1000 0
BBX 7 7 0 -1
BITMAP
22
F2
2A
AA
6A
22
66
ENDCHAR
STARTCHAR uni520D
ENCODING 21005
SWIDTH 1000 0
SWIDTH1 1000 0
BBX 7 7 0 -1
BITMAP
3C
C4
7E
02
3E
02
7E
ENDCHAR
STARTCHAR uni520E
ENCODING 21006
SWIDTH 1000 0
SWIDTH1 1000 0
BBX 7 7 0 -1
BITMAP
42
7A
9A
2A
5A
AA
5A
ENDCHAR
STARTCHAR uni5211
ENCODING 21009
SWIDTH 1000 0
SWIDTH1 1000 0
BBX 7 7 0 -1
BITMAP
FA
56
56
FE
52
52
96
ENDCHAR
STARTCHAR uni5212
ENCODING 21010
SWIDTH 1000 0
SWIDTH1 1000 0
BBX 7 7 0 -1
BITMAP
52
42
F6
46
56
22
D6
ENDCHAR
STARTCHAR uni5214
ENCODING 21012
SWIDTH 1000 0
SWIDTH1 1000 0
BBX 7 7 0 -1
BITMAP
42
F2
56
F6
46
42
B6
ENDCHAR
STARTCHAR uni5215
ENCODING 21013
SWIDTH 1000 0
SWIDTH1 1000 0
BBX 7 7 0 -1
BITMAP
FE
22
C6
00
EE
66
AA
ENDCHAR
STARTCHAR uni5216
ENCODING 21014
SWIDTH 1000 0
SWIDTH1 1000 0
BBX 7 7 0 -1
BITMAP
72
52
7A
5A
7A
52
B6
ENDCHAR
STARTCHAR uni5217
ENCODING 21015
SWIDTH 1000 0
SWIDTH1 1000 0
BBX 7 7 0 -1
BITMAP
F2
4A
6A
AA
62
42
86
ENDCHAR
STARTCHAR uni5218
ENCODING 21016
SWIDTH 1000 0
SWIDTH1 1000 0
BBX 7 7 0 -1
BITMAP
22
FA
56
56
26
22
56
ENDCHAR
STARTCHAR uni5219
ENCODING 21017
SWIDTH 1000 0
SWIDTH1 1000 0
BBX 7 7 0 -1
BITMAP
F2
96
D6
D6
D6
42
B6
ENDCHAR
STARTCHAR uni521A
ENCODING 21018
SWIDTH 1000 0
SWIDTH1 1000 0
BBX 7 7 0 -1
BITMAP
FA
8A
DE
AE
DA
8A
8A
ENDCHAR
STARTCHAR uni521B
ENCODING 21019
SWIDTH 1000 0
SWIDTH1 1000 0
BBX 7 7 0 -1
BITMAP
72
8A
72
56
76
42
76
ENDCHAR
ENDFONT
